<svg width="38" height="24" viewBox="0 0 38 24" fill="none" xmlns="http://www.w3.org/2000/svg">
<path fill-rule="evenodd" clip-rule="evenodd" d="M14.2025 23.098C13.583 23.098 13.1912 22.9795 13.0434 22.7581L11.2647 20.8141C10.8501 20.3608 11.0032 19.913 11.7252 19.4651C14.7708 17.617 16.5719 15.2932 17.1344 12.499C15.231 12.2948 13.7082 11.6489 12.5775 10.549C11.441 9.45536 10.8784 8.07793 10.8784 6.4286C10.8784 4.439 11.5715 2.85764 12.9638 1.70709C14.1967 0.664247 15.8732 0.137085 17.9867 0.137085C20.504 0.137085 22.5042 0.964527 23.9702 2.61954C25.4363 4.28048 26.1748 6.4909 26.1748 9.25131C26.1748 12.0059 25.1181 14.6866 23.01 17.2999C20.845 20.0093 17.9074 21.9423 14.2025 23.098Z" fill="white"/>
<path fill-rule="evenodd" clip-rule="evenodd" d="M7.93765 14.9407C6.52113 16.7135 4.59901 17.9782 2.17497 18.7344C1.76964 18.7344 1.51324 18.657 1.41652 18.5121L0.252733 17.2401C-0.0184588 16.9436 0.0816737 16.6505 0.554016 16.3575C2.5468 15.1483 3.72526 13.6279 4.0933 11.7996C2.84796 11.666 1.85144 11.2434 1.1117 10.5238C0.368164 9.8081 0 8.90688 0 7.82771C0 6.52595 0.453504 5.4913 1.36443 4.73852C2.17118 4.05611 3.26796 3.71118 4.65098 3.71118C6.29798 3.71118 7.60666 4.25259 8.56588 5.33555C9.52523 6.42216 10.0084 7.86857 10.0084 9.67467C10.0084 11.477 9.317 13.231 7.93765 14.9407Z" fill="white"/>
<path fill-rule="evenodd" clip-rule="evenodd" d="M35.1076 14.9407C33.6912 16.7135 31.7692 17.9782 29.3449 18.7344C28.9397 18.7344 28.6834 18.657 28.5828 18.5121L27.4228 17.2401C27.1516 16.9436 27.2517 16.6505 27.7241 16.3575C29.7131 15.1483 30.8952 13.6279 31.2633 11.7996C30.018 11.666 29.0217 11.2434 28.2817 10.5238C27.5382 9.8081 27.1702 8.90688 27.1702 7.82771C27.1702 6.52595 27.6235 5.4913 28.5345 4.73852C29.3412 4.05611 30.4341 3.71118 31.8174 3.71118C33.4679 3.71118 34.7768 4.25259 35.736 5.33555C36.6953 6.42216 37.1785 7.86857 37.1785 9.67467C37.1785 11.477 36.4869 13.231 35.1076 14.9407Z" fill="white"/>
</svg>
