<svg width="72" height="44" viewBox="0 0 72 44" fill="none" xmlns="http://www.w3.org/2000/svg">
<path fill-rule="evenodd" clip-rule="evenodd" d="M27.8142 43.6385C26.6367 43.6385 25.8921 43.4132 25.6112 42.9926L22.2306 39.2978C21.4427 38.4363 21.7337 37.5852 23.106 36.734C28.8942 33.2216 32.3174 28.8051 33.3864 23.4946C29.7689 23.1065 26.8746 21.8788 24.7257 19.7885C22.5658 17.7099 21.4965 15.092 21.4965 11.9574C21.4965 8.17604 22.8138 5.17057 25.4598 2.98389C27.8031 1.0019 30.9893 0 35.0062 0C39.7905 0 43.5919 1.5726 46.3783 4.71804C49.1646 7.87475 50.5681 12.0758 50.5681 17.3221C50.5681 22.5574 48.5598 27.6522 44.5533 32.6188C40.4386 37.7683 34.8555 41.442 27.8142 43.6385Z" fill="#EF4926"/>
<path fill-rule="evenodd" clip-rule="evenodd" d="M15.9075 28.1353C13.2153 31.5046 9.56222 33.9082 4.95519 35.3453C4.18483 35.3453 3.69753 35.1982 3.51371 34.9228L1.30187 32.5053C0.786451 31.9418 0.976759 31.3847 1.87447 30.8279C5.66188 28.5298 7.9016 25.6401 8.60107 22.1653C6.23424 21.9115 4.3403 21.1083 2.93438 19.7406C1.52125 18.3804 0.821533 16.6676 0.821533 14.6165C0.821533 12.1425 1.68344 10.1761 3.41471 8.74535C4.94799 7.4484 7.03248 6.79285 9.66098 6.79285C12.7912 6.79285 15.2784 7.82183 17.1015 9.88004C18.9248 11.9452 19.8432 14.6942 19.8432 18.1268C19.8432 21.5522 18.529 24.8858 15.9075 28.1353Z" fill="#FCBA2A"/>
<path fill-rule="evenodd" clip-rule="evenodd" d="M67.5454 28.1353C64.8534 31.5046 61.2006 33.9082 56.5931 35.3453C55.823 35.3453 55.3359 35.1982 55.1446 34.9228L52.94 32.5053C52.4246 31.9418 52.6149 31.3847 53.5126 30.8279C57.2928 28.5298 59.5395 25.6401 60.2392 22.1653C57.8724 21.9115 55.9789 21.1083 54.5725 19.7406C53.1594 18.3804 52.4599 16.6676 52.4599 14.6165C52.4599 12.1425 53.3216 10.1761 55.0528 8.74535C56.5861 7.4484 58.6632 6.79285 61.2921 6.79285C64.4291 6.79285 66.9168 7.82183 68.7398 9.88004C70.5629 11.9452 71.4813 14.6942 71.4813 18.1268C71.4813 21.5522 70.1669 24.8858 67.5454 28.1353Z" fill="#ACB44E"/>
</svg>
