<!-- icon666.com - MILLIONS vector ICONS FREE --><svg id="Layer_1" viewBox="0 0 512 512" xmlns="http://www.w3.org/2000/svg"><g><path d="m487.15 170.76h-22.91v-17.12h14.74c13.71 0 24.85-11.15 24.85-24.85v-3.96c0-13.7-11.14-24.85-24.85-24.85h-14.74v-11.67h14.74c13.71 0 24.85-11.15 24.85-24.85v-3.96c0-13.7-11.14-24.85-24.85-24.85h-14.74v-9.8c0-13.7-11.15-24.85-24.85-24.85h-61.38c-13.7 0-24.85 11.15-24.85 24.85v9.8h-14.75c-13.7 0-24.85 11.15-24.85 24.85v3.96c0 13.7 11.15 24.85 24.85 24.85h14.75v11.67h-14.75c-13.7 0-24.85 11.15-24.85 24.85v3.96c0 13.7 11.15 24.85 24.85 24.85h14.75v17.12h-22.91c-13.71 0-24.85 11.15-24.85 24.85v10.79h-35.94v-68.7c0-13.7-11.14-24.85-24.84-24.85h-29.6v-73.15c0-21.89-17.81-39.7-39.7-39.7h-135.62c-21.89 0-39.7 17.81-39.7 39.7v432.6c0 21.89 17.81 39.7 39.7 39.7h135.62c21.89 0 39.7-17.81 39.7-39.7v-74.14h29.6c13.7 0 24.84-11.15 24.84-24.85v-67.71h35.94v11.32c0 13.67 11.11 24.81 24.78 24.85l156.9.42h.07c13.7 0 24.85-11.15 24.85-24.85v-121.73c0-13.7-11.15-24.85-24.85-24.85zm-401.67-148.29h34.89l-34.89 31.62zm44.06 466.44h-35.3l35.3-31.99zm0-58.98-44.06 39.93v-32.4l44.06-39.93zm0-59.4-44.06 39.93v-32.4l44.06-39.93zm0-59.39-44.06 39.93v-32.41l44.06-39.93zm0-59.4-44.06 39.93v-32.4l44.06-39.93zm0-59.39-44.06 39.93v-32.41l44.06-39.93zm0-59.4-44.06 39.93v-33.4l44.06-39.93zm0-60.39-44.06 39.93v-31.41l44.06-39.93zm175.86 213.04h-35.44v-59.2h35.44zm67.76-115.33v-16.63h71.08v16.63zm0-145.42c0-2.67 2.18-4.85 4.85-4.85h61.38c2.67 0 4.85 2.18 4.85 4.85v9.8h-71.08zm-34.75 43.46c-2.67 0-4.85-2.18-4.85-4.85v-3.96c0-2.68 2.18-4.85 4.85-4.85h140.57c2.68 0 4.85 2.17 4.85 4.85v3.96c0 2.67-2.17 4.85-4.85 4.85zm105.83 20v11.67h-71.08v-11.67zm-105.83 45.33c-2.67 0-4.85-2.17-4.85-4.85v-3.96c0-2.67 2.18-4.85 4.85-4.85h140.57c2.68 0 4.85 2.18 4.85 4.85v3.96c0 2.68-2.17 4.85-4.85 4.85z" fill="rgb(0,0,0)" style="fill: rgb(75, 198, 88);"></path></g></svg>