<svg id="Layer_1" enable-background="new 0 0 70 70" viewBox="0 0 70 70" xmlns="http://www.w3.org/2000/svg"><g id="Auto_Suspension"><path d="m63.8558617 34.2862091c-2.3100586 0-4.1799316 1.8701172-4.1799316 4.1699219v.9199219h-5.0500488c.0400391-.0800781.079834-.1699219.1101074-.25.4299316-1.0996094-.1101074-2.3398438-1.2001953-2.7695313.0100098-.0102539.0100098-.0302734.0200195-.050293.1699219-.449707 0-.949707-.4099121-1.199707l-5.4001465-3.3203125 6.3200684 1.0302734c.4699707.0795898.9299316-.1904297 1.0900879-.6401367.1699219-.4501953 0-.9501953-.4101563-1.2001953l-5.3999023-3.3100586 6.3100586 1.0200195c.4799805.0800781.9299316-.1899414 1.1000977-.6401367.1699219-.449707-.0102539-.949707-.4101563-1.199707l-5.3999023-3.3100586 6.3100586 1.0302734c.4697266.0698242.9299316-.1904297 1.0998535-.6401367.1599121-.4501953-.0100098-.9501953-.4199219-1.2001953l-5.5500488-3.409668c.1015854.0149803 6.9460945 1.0242672 6.5100098.9599609.402317.0713654.8882332-.1579781 1.0900879-.6601563l.4199219-1.0800781c.7305489-1.9153423-.113369-4.0684624-1.9899902-4.9199209l.8400879-2.2001953c2.1810036-.8645334 3.3714142-3.3697853 2.3498535-5.679688-.4599609-1.0302734-1.3000488-1.8300779-2.3601074-2.2299802-2.2914162-.8646259-4.6634254.3399384-5.4599609 2.4296873-.4399417 1.1303711-.3598636 2.3803716.1699216 3.4399419l-.829834 2.1801758-.0500488-.0200195c-2-.7797852-4.2600098.2202148-5.0400391 2.2202148l-.4299316 1.1098633c-.1996765.5541124.0760117 1.0989656.5800781 1.2998037l2.1398926.8203125-2.4799805-.3603516c-.4699707-.0698242-.9199219.2001953-1.0800781.6503906-.1699219.4399414.0100098.9399414.4101563 1.1899414l5.3999023 3.3100586-6.3100586-1.0200195c-.4699707-.0800781-.9299316.1899414-1.0998535.6396484-.1599121.4501953.0100098.9501953.4199219 1.2001953l5.3898926 3.3100586-6.3098145-1.0302734c-.4699707-.0698242-.9299316.1904297-1.0900879.6401367-.1699219.4501953 0 .9501953.4101563 1.2001953l5.3898926 3.3100586-6.3100586-1.0200195c-.4699707-.0800781-.9299316.1899414-1.0900879.6396484-.1699219.4501953 0 .9501953.4101563 1.2001953l5.2399902 3.2202148-5.630127-2.1801758c-.5297852-.2099609-1.119873-.2001953-1.6499023.0400391-.5200195.2299805-.9299316.6499023-1.1401367 1.1899414-.7787094 2.0631294.276825 4.2384987 2.2001953 4.9799805l1.3500977.5200195c-.0200195.0200195-.0302734.0498047-.0400391.0800781l-.2602539.6796875h-7.4799805v-1.9399414c0-1.7397461-1.4099121-3.1499023-3.1499023-3.1499023h-2.9599609v-4.8398438c0-.0800781 0-.1699219-.0200195-.25-.1599121-3.6801758-3.1999512-6.6201172-6.9199219-6.6201172h-13.0100099c-3.7102051 0-6.7600098 2.9301758-6.9299316 6.6000977-.0407475.1591091-.009843-1.2482281-.0200195 30.659668 0 3.8300781 3.119873 6.9404297 6.9499512 6.9404297h13.0100096c3.8300781 0 6.9399414-3.1103516 6.9399414-6.9404297v-4.7597656h2.9599609c1.7399902 0 3.1499023-1.4199219 3.1499023-3.1601563v-1.9399414h24.7001954v.9199219c0 2.300293 1.869873 4.1801758 4.1799316 4.1801758 2.3000526 0 4.1799355-1.8798828 4.1799355-4.1801758v-12.4399413c0-2.2998047-1.8798828-4.1699219-4.1799354-4.1699219zm-6.0998536-28.6499019c.7797852 0 1.4099121.6298828 1.4099121 1.409668 0 .7802734-.630127 1.4204106-1.4099121 1.4204106-.7900391 0-1.420166-.6401372-1.420166-1.4204106 0-.7797851.630127-1.409668 1.420166-1.409668zm-7.920166 9.02002.0700684-.1801758c.3798828-.9697266 1.4699707-1.4599609 2.4499512-1.0800781l5.0998535 1.9702148c.9561386.3653774 1.4632149 1.4503031 1.0800781 2.4501944l-.0698242.1796875zm-29.2299804 9.919921h1.3200683c2.4299316 0 4.4599609 1.7700195 4.8598633 4.1000977l-6.1799316 2.0097656zm0 21.9599609 6.2600098-1.9501953v4.7802734l-6.2600098 1.9599609zm-10.5300293 18.2402344h-1.1599121c-2.7299805 0-4.9499512-2.2202148-4.9499512-4.9404297v-1.5498047l6.1098633 2.0200195zm0-6.5703125-6.1098633-2.0200195v-4.7797852l6.1098633 2.0200195zm0-6.8798828-6.1098633-2.0200195v-4.7700195l6.1098633 2.0200195zm0-6.8798828-6.1098633-2.0200195v-4.7802734l6.1098633 2.0200195zm0-6.8798829-6.1098633-2.0205078v-4.7895507l6.1098633 2.0200195zm0-6.8901367-6.0300293-2c.4001465-2.3300781 2.4299316-4.1000977 4.8701172-4.1000977h1.1599121zm16.790039 29.159668c0 2.7202148-2.2199707 4.9404297-4.9399414 4.9404297h-1.3200684v-4.4599609l6.2600098-2.0302734zm0-3.659668-6.2600098 2.0400391v-4.7900391l6.2600098-1.9501953c.0259037.507328.0231877 5.154335 0 4.7001953zm0-13.7700195v.0800781l-6.2600098 1.949707v-4.7700195l6.2600098-1.9599609v-.0698242zm0-6.7998047-6.2600098 1.949707v-4.7700195l6.2600098-2.0297852c-.0049762.1005707-.0218963 5.292614 0 4.8500977zm15.2600098.6298828c-.9695396-.362011-1.410881-1.4651337-1.0500488-2.4003906.0300293-.0698242.1298828-.1098633.1999512-.0898438 1.1773643.4552116-4.264164-1.6486816 11.5100098 4.4501953.0800781.0297852.1201172.1201172.0900879.199707-.170166.4399414-.4899902.7802734-.880127.9799805h-1.7299805zm-.6000977 5.5595703c-1.1098633.4204102-2 1.3105469-2.4299316 2.4301758-.5 1.2900391-.3200684 2.6699219.3701172 3.75h-4.4902344v-6.6000977h6.7102051zm1.6501465 5.3803711c-.7800293 0-1.4199219-.6303711-1.4199219-1.4101563s.6398926-1.4199219 1.4199219-1.4199219c.7797852 0 1.4099121.6401367 1.4099121 1.4199219s-.6301269 1.4101563-1.4099121 1.4101563zm16.5.7998047h-13.0300293c.1398926-.2197266.2600098-.4599609.3601074-.7197266.4199219-1.1201172.3598633-2.3701172-.170166-3.4204102l.9399414-2.4599609h2.1401367c.4099121.1401367.8200684.2099609 1.2299805.2099609.4299316 0 .8498535-.0698242 1.25-.2099609h7.2800293z" fill="#000000" style="fill: rgb(75, 198, 88);"></path></g></svg>