<svg id="Layer_1" enable-background="new 0 0 512 512" viewBox="0 0 512 512"
    xmlns="http://www.w3.org/2000/svg">
    <path d="m492.33 128.258c-5.698-10.306-20.299-11.161-27.11-1.45-17.83 25.41-49.21 41.19-81.89 41.19h-256c-31.49 0-63.12-16.16-80.58-41.16-6.351-9.076-19.625-9.028-26.01-.31-13.57 18.46-20.74 40.34-20.74 63.25v74.22c0 70.58 57.42 128 128 128h256c70.58 0 128-57.42 128-128v-59.44c0-26.62-6.8-53-19.67-76.3zm-420.33 95.74h32c22.079 0 40 17.919 40 40 0 8.84-7.16 16-16 16h-48c-17.679 0-32-14.319-32-32 0-13.25 10.75-24 24-24zm120 64c-8.84 0-16-7.16-16-16s7.16-16 16-16h128c8.84 0 16 7.16 16 16s-7.16 16-16 16zm120 32c0 8.84-7.16 16-16 16h-80c-8.84 0-16-7.16-16-16s7.16-16 16-16h80c8.84 0 16 7.16 16 16zm-192 8c0-8.84 7.16-16 16-16h8c8.84 0 16 7.16 16 16s-7.16 16-16 16h-8c-8.84 0-16-7.16-16-16zm248 16c-8.84 0-16-7.16-16-16s7.16-16 16-16h8c8.84 0 16 7.16 16 16s-7.16 16-16 16zm64-64h-48c-8.84 0-16-7.16-16-16 0-22.079 17.919-40 40-40h32c13.25 0 24 10.75 24 24 0 17.679-14.319 32-32 32z" fill="#000000" style="fill: rgb(75, 198, 88);"></path>
</svg>