<svg version="1.1" id="Capa_1" xmlns="http://www.w3.org/2000/svg" xmlns:xlink="http://www.w3.org/1999/xlink" x="0px" y="0px" viewBox="0 0 456 456" style="enable-background:new 0 0 456 456;" xml:space="preserve"><g><g><path d="M448,115.987h-32c-4.418,0-8,3.582-8,8v24h-16v-40c0-2.122-0.844-4.156-2.344-5.656l-24-24 c-1.5-1.5-3.534-2.344-5.656-2.344h-32v-16h8c4.418,0,8-3.582,8-8v-32c0-4.418-3.582-8-8-8H208c-4.418,0-8,3.582-8,8v32 c0,4.418,3.582,8,8,8h8v16h-40c-1.016-0.001-2.024,0.192-2.968,0.568l-38.576,15.432H96c-4.418,0-8,3.582-8,8v24H72v-24 c0-4.418-3.582-8-8-8H32c-4.418,0-8,3.582-8,8v136c0,4.418,3.582,8,8,8h32c4.418,0,8-3.582,8-8v-24h16v24c0,4.418,3.582,8,8,8 h37.784l38.096,22.856c1.244,0.748,2.668,1.144,4.12,1.144h208c4.418,0,8-3.582,8-8v-24h16v24c0,4.418,3.582,8,8,8h32 c4.418,0,8-3.582,8-8v-136C456,119.569,452.418,115.987,448,115.987z M56,227.987H40v-120h16V227.987z M88,195.987H72v-56h16 V195.987z M128,227.987h-24v-120h24V227.987z M168,245.859l-24-14.4V105.403l24-9.6V245.859z M216,27.987h112v16H216V27.987z M312,59.987v16h-80v-16H312z M376,251.987H184v-16h192V251.987z M376,219.987H184v-128h172.688L376,111.299V219.987z M408,219.987h-16v-56h16V219.987z M440,251.987h-16v-120h16V251.987z" fill="#000000" style="fill: rgb(75, 198, 88);"></path></g></g><g><g><rect x="200" y="107.987" width="16" height="16" fill="#000000" style="fill: rgb(75, 198, 88);"></rect></g></g><g><g><rect x="232" y="107.987" width="16" height="16" fill="#000000" style="fill: rgb(75, 198, 88);"></rect></g></g><g><g><rect x="264" y="107.987" width="16" height="16" fill="#000000" style="fill: rgb(75, 198, 88);"></rect></g></g><g><g><path d="M421.928,349.203c-2.869-7.385-8.619-13.285-15.928-16.344c-7.163-3.03-15.25-3.013-22.4,0.048l-51.872,22.024 c0.143-0.976,0.234-1.959,0.272-2.944c0-15.464-12.536-28-28-28h-62.056c-6.278-0.009-12.469-1.472-18.088-4.272 c-25.961-12.942-54.568-19.694-83.576-19.728H120c0-4.418-3.582-8-8-8H48c-4.418,0-8,3.582-8,8H0v16h40v80H0v16h40 c0,4.418,3.582,8,8,8h64c4.418,0,8-3.582,8-8v-3.048l59.728,24.8c32.56,13.298,68.961,13.702,101.808,1.128l123.584-47.128 c7.321-2.782,13.213-8.397,16.344-15.576C424.697,364.883,424.864,356.608,421.928,349.203z M104,403.987H56v-96h48V403.987z M406.792,365.715c-1.413,3.266-4.084,5.825-7.408,7.096L275.8,419.931c-29.039,11.124-61.223,10.778-90.016-0.968L120,391.611 v-75.624h20.28c26.526,0.031,52.684,6.206,76.424,18.04c7.839,3.913,16.479,5.953,25.24,5.96H304 c6.627,0.043,11.965,5.45,11.922,12.077c-0.036,5.551-3.875,10.354-9.282,11.611c-1.048,0.096-2.072,0.312-3.136,0.312H208v16 h95.504c0.168,0,0.328,0,0.496,0c0.16,0,0.312-0.048,0.48-0.048c6.349-0.102,12.619-1.431,18.464-3.912l66.888-28.392 c3.186-1.36,6.79-1.36,9.976,0c3.314,1.399,5.914,4.088,7.2,7.448C408.367,358.512,408.289,362.344,406.792,365.715z" fill="#000000" style="fill: rgb(75, 198, 88);"></path></g></g></svg>