<svg width="14" height="12" viewBox="0 0 14 12" fill="none" xmlns="http://www.w3.org/2000/svg">
<path fill-rule="evenodd" clip-rule="evenodd" d="M0 2.88744C0 1.36846 1.23138 0.137085 2.75035 0.137085H11.0014C12.5204 0.137085 13.7518 1.36846 13.7518 2.88744V8.38815C13.7518 9.90712 12.5204 11.1385 11.0014 11.1385H2.75035C1.23138 11.1385 0 9.90712 0 8.38815V2.88744ZM2.75035 1.51226C1.99086 1.51226 1.37518 2.12795 1.37518 2.88744V8.38815C1.37518 9.14763 1.99086 9.76332 2.75035 9.76332H11.0014C11.7609 9.76332 12.3766 9.14763 12.3766 8.38815V2.88744C12.3766 2.12795 11.7609 1.51226 11.0014 1.51226H2.75035Z" fill="#006BB8"/>
<path fill-rule="evenodd" clip-rule="evenodd" d="M2.90106 3.14541C3.13829 2.84888 3.57098 2.8008 3.86751 3.03803L6.87592 5.44475L9.88433 3.03803C10.1809 2.8008 10.6136 2.84888 10.8508 3.14541C11.088 3.44194 11.0399 3.87463 10.7434 4.11186L6.87592 7.20584L3.00845 4.11186C2.71192 3.87463 2.66384 3.44194 2.90106 3.14541Z" fill="#006BB8"/>
</svg>
