<svg width="28" height="17" viewBox="0 0 28 17" fill="none" xmlns="http://www.w3.org/2000/svg">
<rect x="0.991211" y="0.831421" width="25.8031" height="14.9931" fill="#D9D9D9" stroke="#8B8B8B"/>
<mask id="mask0_1_1279" style="mask-type:luminance" maskUnits="userSpaceOnUse" x="1" y="1" width="26" height="15">
<rect x="1.49121" y="1.33142" width="24.8031" height="13.9931" fill="white"/>
</mask>
<g mask="url(#mask0_1_1279)">
<path d="M1.49121 1.39429V8.40147V15.3245H9.81932V8.40147V1.39429H1.49121Z" fill="#0046AE"/>
<path d="M9.71619 1.39429V8.40147V15.3245H18.0443V8.40147V1.39429H9.71619Z" fill="#FEDF00"/>
<path d="M17.9402 1.39429V8.40147V15.3245H26.2683V8.40147V1.39429H17.9402Z" fill="#D0103A"/>
</g>
<path d="M13.1199 4.61292C13.0719 4.61292 13.0309 4.62491 13.0069 4.64391C13.0449 4.65491 13.0729 4.6909 13.0729 4.7339V4.84288H12.9639C12.9209 4.84288 12.8859 4.81489 12.8739 4.77689C12.8549 4.80089 12.8429 4.84288 12.8429 4.88988C12.8429 4.93687 12.8549 4.97886 12.8739 5.00286C12.8849 4.96486 12.9209 4.93687 12.9639 4.93687H13.0729V5.46279C13.0729 5.50379 13.0469 5.53878 13.0109 5.55078C13.0629 5.55778 13.1079 5.62777 13.1199 5.66676C13.1319 5.62877 13.1768 5.55878 13.2288 5.55078C13.1928 5.53878 13.1659 5.50379 13.1659 5.46279V4.93687H13.2748C13.3178 4.93687 13.3528 4.96486 13.3648 5.00286C13.3838 4.97886 13.3958 4.93687 13.3958 4.88988C13.3958 4.84288 13.3838 4.80089 13.3648 4.77689C13.3538 4.81489 13.3178 4.84288 13.2748 4.84288H13.1659V4.7339C13.1659 4.6909 13.1938 4.65591 13.2318 4.64391C13.2078 4.62491 13.1659 4.61292 13.1189 4.61292H13.1199Z" fill="black"/>
<path d="M13.1198 4.63489C13.0948 4.63489 13.0728 4.63989 13.0548 4.64589C13.0798 4.66688 13.0958 4.69788 13.0958 4.73387V4.84286C13.0958 4.84286 13.0958 4.84586 13.0958 4.84786V4.86485H13.0788C13.0788 4.86485 13.0758 4.86485 13.0738 4.86485H12.9648C12.9298 4.86485 12.8998 4.84886 12.8778 4.82486C12.8718 4.84386 12.8668 4.86485 12.8668 4.88985C12.8668 4.91485 12.8718 4.93684 12.8778 4.95484C12.8988 4.92985 12.9298 4.91385 12.9658 4.91385H13.0978C13.0978 4.91385 13.0978 4.91785 13.0978 4.92085V4.93185C13.0978 4.93185 13.0978 4.93484 13.0978 4.93684V5.46277C13.0978 5.49676 13.0798 5.52376 13.0568 5.54476C13.0738 5.55476 13.0878 5.56775 13.0998 5.58275C13.1108 5.59575 13.1148 5.60875 13.1228 5.62175C13.1298 5.60875 13.1348 5.59575 13.1458 5.58275C13.1578 5.56875 13.1718 5.55576 13.1878 5.54576C13.1648 5.52476 13.1468 5.49676 13.1468 5.46277V4.91485H13.1648C13.1648 4.91485 13.1678 4.91485 13.1698 4.91485H13.2788C13.3138 4.91485 13.3438 4.93085 13.3658 4.95484C13.3717 4.93584 13.3767 4.91485 13.3767 4.88985C13.3767 4.86485 13.3717 4.84286 13.3658 4.82486C13.3448 4.84986 13.3138 4.86585 13.2778 4.86585H13.1688C13.1688 4.86585 13.1658 4.86585 13.1638 4.86585H13.1468V4.84886C13.1468 4.84886 13.1468 4.84586 13.1468 4.84386V4.73487C13.1468 4.69988 13.1628 4.66988 13.1868 4.64789C13.1678 4.64189 13.1468 4.63689 13.1218 4.63689" fill="#F5D402"/>
<path d="M14.4896 6.5407C14.4227 6.49271 14.3677 6.43972 14.3287 6.37673C14.2347 6.22575 14.1947 6.04077 14.1947 5.8528C14.1947 5.77281 14.2837 5.68382 14.2837 5.61983C14.2837 5.52285 14.2747 5.46386 14.2747 5.46386C14.3067 5.46786 14.3617 5.52385 14.3617 5.52385C14.3617 5.52385 14.3597 5.36287 14.3087 5.33387C14.3087 5.33387 14.3297 5.31288 14.4037 5.31088C14.3827 5.25789 14.2787 5.19289 14.2787 5.19289C14.2837 5.1839 14.2937 5.1759 14.3057 5.1689C14.3317 5.1549 14.3687 5.1449 14.3967 5.1399C14.3667 5.1339 14.3327 5.1239 14.2947 5.11191C14.2087 5.08391 14.1067 5.04292 14.0127 4.99692C13.8397 4.91393 13.7078 4.90894 13.6358 4.90894C13.5828 4.90894 13.5058 4.90994 13.4598 4.94093C13.4178 4.96893 13.4218 5.00492 13.4068 5.01692C13.3728 5.04692 13.3138 5.04592 13.2848 5.04592C13.1018 5.04592 13.0948 5.24189 13.0948 5.24189C13.0948 5.24189 13.1418 5.1709 13.2248 5.1709C13.3628 5.1709 13.4668 5.24589 13.4668 5.27388C13.4668 5.28488 13.4528 5.28788 13.4518 5.28788C13.3618 5.28788 13.2258 5.23589 13.1538 5.23389V5.26888C13.3148 5.32488 13.4788 5.40386 13.4788 5.75381C13.4788 5.97378 13.4528 6.19875 13.3418 6.37573C13.3028 6.43872 13.2468 6.49171 13.1798 6.5397L13.8347 6.65769L14.4896 6.5397V6.5407Z" fill="black"/>
<path d="M13.8347 6.39267L13.1798 6.53965C13.1498 6.53065 13.0098 6.48666 12.9118 6.43267C12.7389 6.33668 12.6489 6.2407 12.4439 6.2307V6.07472C12.4439 5.99073 12.4739 5.91574 12.4739 5.83575C12.3869 5.81276 12.147 5.5188 11.925 5.38782C11.599 5.59879 11.3461 5.94574 11.3461 6.10571C11.3461 6.10571 11.3561 9.53422 11.3461 10.7291C11.3461 10.798 11.3041 10.895 11.3041 10.895C11.4231 10.845 11.642 10.5461 11.688 10.4321V10.4861C11.868 10.4041 12 10.1881 12.059 10.0771C12.06 10.0931 12.063 10.1341 12.063 10.1341C12.2239 9.99316 12.4279 9.16028 12.4279 9.16028L12.7689 9.49523C12.7689 9.49523 12.6459 9.74519 12.5979 9.79019C12.5979 9.79019 12.6299 9.79419 12.6669 9.79419C12.6449 9.82618 12.4729 10.0731 12.4189 10.1661C12.3689 10.2531 12.3329 10.2141 12.2559 10.2141C12.1919 10.2141 12.047 10.3161 12.023 10.3571C11.998 10.4001 11.979 10.4531 11.979 10.4971C11.979 10.5451 12.03 10.6101 12.03 10.6101C12.035 10.5871 12.045 10.5791 12.045 10.5791C12.045 10.5791 12.178 10.7451 12.1969 10.766C12.2119 10.783 12.2799 10.794 12.3039 10.772C12.3639 10.7171 12.4219 10.6791 12.4749 10.6011C12.5019 10.5601 12.5049 10.5141 12.5359 10.4701C12.6419 10.3241 12.8519 10.0452 12.8998 9.98216C12.9028 10.0002 12.9058 10.0152 12.9088 10.0332C12.9628 9.92317 13.2248 9.7132 13.2248 9.7132L13.4988 9.83918C13.4988 9.83918 12.9868 11.015 12.5329 11.196C12.5329 11.196 12.7309 11.28 12.9728 11.406C13.0078 11.424 13.0448 11.444 13.0818 11.4639C13.1128 11.427 13.1448 11.386 13.1758 11.344C13.3208 11.15 13.4628 10.925 13.4628 10.925C13.4728 10.983 13.3958 11.164 13.2668 11.386C13.2418 11.43 13.2148 11.4749 13.1848 11.5219C13.2178 11.5409 13.2498 11.5599 13.2828 11.5789C13.5228 11.7239 13.7487 11.8899 13.8327 12.0429L13.8917 11.8949L13.8327 11.7469V6.58665L13.8617 6.51266L13.8327 6.39067L13.8347 6.39267Z" fill="black"/>
<path d="M13.8346 11.749C13.7497 11.657 13.5727 11.545 13.3737 11.441C13.6147 11.0091 13.7337 10.3252 13.6777 10.1892C13.6777 10.1892 13.5787 10.5432 13.4577 10.7451C13.3457 10.9321 13.2077 11.1421 13.0748 11.2981C12.9648 11.2511 12.8588 11.2121 12.7678 11.1851C13.1667 10.8781 13.5747 9.86126 13.5747 9.86126L13.1527 9.66529C13.1527 9.66529 12.9948 9.84926 12.9438 9.88326C12.9438 9.88326 12.9218 9.79127 12.9088 9.75927C12.9088 9.75927 12.8488 9.80527 12.8148 9.80627C12.8148 9.80627 12.8048 9.74428 12.7978 9.70328C12.7558 9.73128 12.6868 9.72528 12.6868 9.72528C12.7478 9.69628 12.8198 9.52031 12.8198 9.52031L12.4168 8.98439C12.4168 8.98439 12.2749 9.66429 12.1139 9.80427V6.87569L12.2419 6.99467L12.4348 6.81469V6.67771L12.2639 6.83769V6.42375C12.2899 6.38476 12.3069 6.35576 12.3199 6.33276C12.3479 6.38076 12.4368 6.52974 12.5428 6.62072C12.5598 6.55073 12.6738 6.48374 12.6738 6.48374C12.6738 6.48374 12.7148 6.59473 12.7768 6.62172C12.7988 6.58273 12.9298 6.49674 12.9298 6.49674C12.9298 6.49674 12.8178 6.51374 12.7718 6.55673C12.7328 6.54773 12.7228 6.39376 12.7228 6.39376C12.7228 6.39376 12.5578 6.47474 12.5288 6.53174C12.4968 6.52274 12.4478 6.39875 12.4288 6.34876C12.4578 6.34576 12.4988 6.34176 12.5518 6.34176C12.5988 6.34176 12.6588 6.36376 12.7228 6.39376C12.7918 6.42675 12.8648 6.46774 12.9298 6.49674C13.0128 6.53473 13.1387 6.54173 13.1747 6.54373C13.1327 6.57373 13.0868 6.59973 13.0368 6.62572C13.0368 6.62572 13.2347 6.62372 13.3737 6.55473C13.4237 6.52274 13.4747 6.49074 13.5187 6.45375C13.4997 6.50674 13.4697 6.56973 13.4237 6.62272C13.6277 6.60572 13.7297 6.48874 13.7577 6.44975C13.7717 6.48474 13.7957 6.54073 13.8326 6.58973H13.9066V11.603L13.8326 11.75L13.8346 11.749Z" fill="#B07F55"/>
<path d="M12.3319 5.8518L12.3359 5.94578V6.22174C12.2619 6.19675 12.1689 6.07476 12.1239 6.01077V5.97278C12.1239 5.93678 12.1449 5.91179 12.1599 5.89779L12.1149 5.88179C12.0979 5.90079 12.0799 5.92979 12.0799 5.96678V5.98878L11.9469 6.13176L11.816 5.93379V5.88579C11.816 5.8528 11.841 5.8168 11.862 5.79181L11.818 5.77581C11.796 5.8048 11.773 5.8428 11.773 5.87879V5.91779C11.742 5.94978 11.623 6.07277 11.623 6.07277C11.623 6.07277 11.563 5.94378 11.547 5.90879C11.639 5.78181 11.787 5.63983 11.9269 5.53784C11.9269 5.53784 12.2299 5.8158 12.3319 5.8518Z" fill="#B07F55"/>
<path d="M11.563 6.11878V6.34575L11.457 6.44373V6.10678C11.457 6.07479 11.471 6.03579 11.493 5.9928L11.562 6.11878H11.563Z" fill="#B07F55"/>
<path d="M11.892 6.20682V6.3468L11.77 6.46079V6.02185L11.892 6.20682Z" fill="#B07F55"/>
<path d="M11.727 6.46075L11.605 6.34777V6.18279L11.727 6.05481V6.45975V6.46075Z" fill="#B07F55"/>
<path d="M12.2819 6.28971C12.254 6.3297 12.18 6.42669 12.1 6.46969V6.08374C12.118 6.11374 12.202 6.24972 12.2819 6.28871V6.28971Z" fill="#B07F55"/>
<path d="M12.0569 6.10376V6.45971L11.9349 6.34672V6.22074L12.0569 6.10376Z" fill="#B07F55"/>
<path d="M11.563 6.48376V6.83971L11.457 6.74073V6.58275L11.563 6.48376Z" fill="#B07F55"/>
<path d="M11.727 6.59772V6.72571L11.605 6.83869V6.48474L11.727 6.59772Z" fill="#B07F55"/>
<path d="M11.892 6.48474V6.83869L11.77 6.72471V6.59872L11.892 6.48474Z" fill="#B07F55"/>
<path d="M12.0569 6.59872V6.72471L11.9349 6.83869V6.48474L12.0569 6.59872Z" fill="#B07F55"/>
<path d="M12.222 6.83969L12.1 6.72571V6.60672C12.142 6.58073 12.184 6.53373 12.222 6.48474V6.83969Z" fill="#B07F55"/>
<path d="M11.914 6.99669L12.042 6.87771V9.80629C12.042 9.80629 12.051 9.95127 12.057 10.0463C12 10.1042 11.785 10.3212 11.785 10.3212V6.87671L11.913 6.99669H11.914Z" fill="#B07F55"/>
<path d="M11.712 10.2112C11.712 10.3052 11.54 10.5252 11.457 10.5752V6.87769L11.584 6.99667L11.712 6.87769V10.2122V10.2112Z" fill="#B07F55"/>
<path d="M12.7778 9.8933L12.8718 9.82931C12.8718 9.82931 12.8778 9.86031 12.8858 9.9023C12.8458 9.9573 12.6158 10.2712 12.5019 10.4242C12.4739 10.4622 12.4499 10.5592 12.4499 10.5592C12.4499 10.5592 12.4089 10.5392 12.4089 10.5042C12.4089 10.4692 12.4139 10.4282 12.4139 10.4282C12.4139 10.4282 12.3829 10.4632 12.3289 10.4632C12.3289 10.4202 12.4119 10.3742 12.4149 10.3132C12.3519 10.3602 12.2969 10.3362 12.2239 10.3582C12.1439 10.3822 12.1219 10.4162 12.0979 10.4152C12.0839 10.4152 12.0709 10.3892 12.0759 10.3742C12.0849 10.3482 12.1839 10.2752 12.2529 10.2623C12.2689 10.2593 12.3989 10.2902 12.4249 10.2503C12.5329 10.0843 12.7068 9.81532 12.7238 9.78932C12.7348 9.78632 12.7448 9.78432 12.7528 9.77832C12.7528 9.77832 12.7528 9.86331 12.7788 9.8933H12.7778Z" fill="#D10429"/>
<path d="M12.1758 10.4112C12.1808 10.4172 12.1808 10.4262 12.1758 10.4312L12.1339 10.4682C12.1279 10.4732 12.1199 10.4722 12.1139 10.4662C12.1089 10.4602 12.1089 10.4512 12.1139 10.4462L12.1559 10.4093C12.1559 10.4093 12.1618 10.4062 12.1658 10.4062C12.1688 10.4062 12.1728 10.4083 12.1758 10.4112Z" fill="#D10429"/>
<path d="M12.2399 10.4551C12.2529 10.4701 12.2519 10.4901 12.2379 10.5021L12.1349 10.5921C12.1219 10.6041 12.0999 10.6011 12.0869 10.5871C12.0739 10.5721 12.0749 10.5511 12.0889 10.5391L12.1919 10.4501C12.1919 10.4501 12.2039 10.4431 12.2099 10.4421C12.2209 10.4421 12.2319 10.4461 12.2389 10.4551H12.2399Z" fill="#D10429"/>
<path d="M12.2988 10.5252C12.3118 10.5402 12.3108 10.5602 12.2968 10.5722L12.1938 10.6622C12.1808 10.6742 12.1598 10.6712 12.1469 10.6572C12.1339 10.6422 12.1349 10.6212 12.1488 10.6092L12.2518 10.5202C12.2518 10.5202 12.2628 10.5132 12.2688 10.5122C12.2788 10.5122 12.2908 10.5162 12.2988 10.5252Z" fill="#D10429"/>
<path d="M12.3349 10.5801C12.3459 10.5801 12.3569 10.5831 12.3639 10.5921C12.3769 10.6071 12.3759 10.6281 12.3619 10.6401L12.2589 10.7291C12.2459 10.7411 12.2249 10.7381 12.2119 10.7241C12.1989 10.7091 12.1989 10.6891 12.2119 10.6771L12.3149 10.5871C12.3149 10.5871 12.3259 10.5811 12.3319 10.5801H12.3349Z" fill="#D10429"/>
<path d="M13.8348 6.39267L14.4898 6.53965C14.5197 6.53065 14.6597 6.48666 14.7577 6.43267C14.9307 6.33668 15.0207 6.2407 15.2256 6.2307V6.07472C15.2256 5.99073 15.1957 5.91574 15.1957 5.83575C15.2826 5.81276 15.5226 5.5188 15.7446 5.38782C16.0705 5.59879 16.3235 5.94574 16.3235 6.10571C16.3235 6.10571 16.3135 9.53422 16.3235 10.7291C16.3235 10.798 16.3655 10.895 16.3655 10.895C16.2465 10.845 16.0275 10.5461 15.9815 10.4321V10.4861C15.8016 10.4041 15.6696 10.1881 15.6106 10.0771C15.6096 10.0931 15.6066 10.1341 15.6066 10.1341C15.4456 9.99316 15.2416 9.16028 15.2416 9.16028L14.9007 9.49523C14.9007 9.49523 15.0237 9.74519 15.0717 9.79019C15.0717 9.79019 15.0397 9.79419 15.0027 9.79419C15.0247 9.82618 15.1967 10.0731 15.2506 10.1661C15.3006 10.2531 15.3366 10.2141 15.4136 10.2141C15.4776 10.2141 15.6226 10.3161 15.6466 10.3571C15.6716 10.4001 15.6906 10.4531 15.6906 10.4971C15.6906 10.5451 15.6396 10.6101 15.6396 10.6101C15.6346 10.5871 15.6246 10.5791 15.6246 10.5791C15.6246 10.5791 15.4916 10.7451 15.4716 10.766C15.4566 10.783 15.3886 10.794 15.3646 10.772C15.3046 10.7171 15.2466 10.6791 15.1937 10.6011C15.1667 10.5601 15.1637 10.5141 15.1327 10.4701C15.0267 10.3241 14.8167 10.0452 14.7687 9.98216C14.7657 10.0002 14.7627 10.0152 14.7597 10.0332C14.7057 9.92317 14.4438 9.7132 14.4438 9.7132L14.1698 9.83918C14.1698 9.83918 14.6817 11.015 15.1357 11.196C15.1357 11.196 14.9377 11.28 14.6957 11.406C14.6607 11.424 14.6237 11.444 14.5867 11.4639C14.5557 11.427 14.5237 11.386 14.4928 11.344C14.3478 11.15 14.2058 10.925 14.2058 10.925C14.1958 10.983 14.2728 11.164 14.4018 11.386C14.4268 11.43 14.4538 11.4749 14.4838 11.5219C14.4508 11.5409 14.4188 11.5599 14.3858 11.5789C14.1458 11.7239 13.9198 11.8899 13.8358 12.0429L13.7769 11.8949L13.8358 11.7469V6.58665L13.8068 6.51266L13.8358 6.39067L13.8348 6.39267Z" fill="black"/>
<path d="M13.8348 11.749C13.9198 11.657 14.0968 11.545 14.2957 11.441C14.0548 11.0091 13.9358 10.3252 13.9918 10.1892C13.9918 10.1892 14.0908 10.5432 14.2118 10.7451C14.3237 10.9321 14.4617 11.1421 14.5947 11.2981C14.7047 11.2511 14.8107 11.2121 14.9017 11.1851C14.5027 10.8781 14.0948 9.86126 14.0948 9.86126L14.5167 9.66529C14.5167 9.66529 14.6747 9.84926 14.7257 9.88326C14.7257 9.88326 14.7477 9.79127 14.7607 9.75927C14.7607 9.75927 14.8207 9.80527 14.8547 9.80627C14.8547 9.80627 14.8647 9.74428 14.8717 9.70328C14.9137 9.73128 14.9826 9.72528 14.9826 9.72528C14.9217 9.69628 14.8497 9.52031 14.8497 9.52031L15.2526 8.98439C15.2526 8.98439 15.3946 9.66429 15.5556 9.80427V6.87569L15.4276 6.99467L15.2346 6.81469V6.67771L15.4056 6.83769V6.42375C15.3796 6.38476 15.3626 6.35576 15.3496 6.33276C15.3216 6.38076 15.2326 6.52974 15.1266 6.62072C15.1096 6.55073 14.9956 6.48374 14.9956 6.48374C14.9956 6.48374 14.9546 6.59473 14.8927 6.62172C14.8707 6.58273 14.7397 6.49674 14.7397 6.49674C14.7397 6.49674 14.8517 6.51374 14.8977 6.55673C14.9366 6.54773 14.9466 6.39376 14.9466 6.39376C14.9466 6.39376 15.1116 6.47474 15.1406 6.53174C15.1726 6.52274 15.2216 6.39875 15.2406 6.34876C15.2116 6.34576 15.1706 6.34176 15.1176 6.34176C15.0706 6.34176 15.0106 6.36376 14.9466 6.39376C14.8777 6.42675 14.8047 6.46774 14.7397 6.49674C14.6567 6.53473 14.5307 6.54173 14.4947 6.54373C14.5367 6.57373 14.5827 6.59973 14.6327 6.62572C14.6327 6.62572 14.4347 6.62372 14.2957 6.55473C14.2457 6.52274 14.1948 6.49074 14.1508 6.45375C14.1698 6.50674 14.1998 6.56973 14.2457 6.62272C14.0418 6.60572 13.9398 6.48874 13.9118 6.44975C13.8978 6.48474 13.8738 6.54073 13.8368 6.58973H13.7628V11.603L13.8368 11.75L13.8348 11.749Z" fill="#B07F55"/>
<path d="M15.3386 5.8518L15.3346 5.94578V6.22174C15.4086 6.19675 15.5016 6.07476 15.5466 6.01077V5.97278C15.5466 5.93678 15.5256 5.91179 15.5106 5.89779L15.5556 5.88179C15.5726 5.90079 15.5906 5.92979 15.5906 5.96678V5.98878L15.7235 6.13176L15.8545 5.93379V5.88579C15.8545 5.8528 15.8295 5.8168 15.8085 5.79181L15.8525 5.77581C15.8745 5.8048 15.8975 5.8428 15.8975 5.87879V5.91779C15.9285 5.94978 16.0475 6.07277 16.0475 6.07277C16.0475 6.07277 16.1075 5.94378 16.1235 5.90879C16.0315 5.78181 15.8835 5.63983 15.7435 5.53784C15.7435 5.53784 15.4406 5.8158 15.3386 5.8518Z" fill="#B07F55"/>
<path d="M16.1064 6.11878V6.34575L16.2124 6.44373V6.10678C16.2124 6.07479 16.1984 6.03579 16.1764 5.9928L16.1074 6.11878H16.1064Z" fill="#B07F55"/>
<path d="M15.7776 6.20682V6.3468L15.8996 6.46079V6.02185L15.7776 6.20682Z" fill="#B07F55"/>
<path d="M15.9425 6.46075L16.0645 6.34777V6.18279L15.9425 6.05481V6.45975V6.46075Z" fill="#B07F55"/>
<path d="M15.3876 6.28971C15.4156 6.3297 15.4896 6.42669 15.5695 6.46969V6.08374C15.5515 6.11374 15.4676 6.24972 15.3876 6.28871V6.28971Z" fill="#B07F55"/>
<path d="M15.6125 6.10376V6.45971L15.7345 6.34672V6.22074L15.6125 6.10376Z" fill="#B07F55"/>
<path d="M16.1064 6.48376V6.83971L16.2124 6.74073V6.58275L16.1064 6.48376Z" fill="#B07F55"/>
<path d="M15.9425 6.59772V6.72571L16.0645 6.83869V6.48474L15.9425 6.59772Z" fill="#B07F55"/>
<path d="M15.7776 6.48474V6.83869L15.8996 6.72471V6.59872L15.7776 6.48474Z" fill="#B07F55"/>
<path d="M15.6125 6.59872V6.72471L15.7345 6.83869V6.48474L15.6125 6.59872Z" fill="#B07F55"/>
<path d="M15.4476 6.83969L15.5696 6.72571V6.60672C15.5276 6.58073 15.4856 6.53373 15.4476 6.48474V6.83969Z" fill="#B07F55"/>
<path d="M15.7555 6.99669L15.6275 6.87771V9.80629C15.6275 9.80629 15.6185 9.95127 15.6125 10.0463C15.6695 10.1042 15.8845 10.3212 15.8845 10.3212V6.87671L15.7565 6.99669H15.7555Z" fill="#B07F55"/>
<path d="M15.9575 10.2112C15.9575 10.3052 16.1295 10.5252 16.2125 10.5752V6.87769L16.0855 6.99667L15.9575 6.87769V10.2122V10.2112Z" fill="#B07F55"/>
<path d="M14.8917 9.89318L14.7977 9.82919C14.7977 9.82919 14.7917 9.86019 14.7837 9.90218C14.8237 9.95717 15.0537 10.2711 15.1676 10.4241C15.1956 10.4621 15.2196 10.5591 15.2196 10.5591C15.2196 10.5591 15.2606 10.5391 15.2606 10.5041C15.2606 10.4691 15.2556 10.4281 15.2556 10.4281C15.2556 10.4281 15.2866 10.4631 15.3406 10.4631C15.3406 10.4201 15.2576 10.3741 15.2546 10.3131C15.3176 10.3601 15.3726 10.3361 15.4456 10.3581C15.5256 10.3821 15.5476 10.4161 15.5716 10.4151C15.5856 10.4151 15.5986 10.3891 15.5936 10.3741C15.5846 10.3481 15.4856 10.2751 15.4166 10.2621C15.4006 10.2591 15.2706 10.2901 15.2446 10.2501C15.1366 10.0842 14.9627 9.81519 14.9457 9.7892C14.9347 9.7862 14.9247 9.7842 14.9167 9.7782C14.9167 9.7782 14.9167 9.86319 14.8907 9.89318H14.8917Z" fill="#D10429"/>
<path d="M15.4936 10.4111C15.4886 10.4171 15.4886 10.4261 15.4936 10.4311L15.5356 10.4681C15.5416 10.4731 15.5496 10.4721 15.5556 10.4661C15.5606 10.4601 15.5606 10.4511 15.5556 10.4461L15.5136 10.4091C15.5136 10.4091 15.5076 10.4061 15.5036 10.4061C15.4996 10.4061 15.4966 10.4081 15.4936 10.4111Z" fill="#D10429"/>
<path d="M15.4297 10.455C15.4167 10.47 15.4177 10.49 15.4317 10.502L15.5347 10.592C15.5477 10.604 15.5697 10.601 15.5827 10.587C15.5957 10.572 15.5947 10.551 15.5807 10.539L15.4777 10.45C15.4777 10.45 15.4657 10.443 15.4597 10.442C15.4497 10.442 15.4377 10.446 15.4307 10.455H15.4297Z" fill="#D10429"/>
<path d="M15.3706 10.5251C15.3576 10.5401 15.3586 10.5601 15.3726 10.5721L15.4756 10.6621C15.4886 10.6741 15.5096 10.6711 15.5226 10.6571C15.5356 10.6421 15.5346 10.6211 15.5206 10.6091L15.4176 10.5201C15.4176 10.5201 15.4066 10.5131 15.4006 10.5121C15.3906 10.5121 15.3786 10.5161 15.3706 10.5251Z" fill="#D10429"/>
<path d="M15.3356 10.58C15.3246 10.58 15.3136 10.583 15.3066 10.592C15.2936 10.607 15.2946 10.6279 15.3076 10.6399L15.4106 10.7289C15.4236 10.7409 15.4446 10.7379 15.4576 10.7239C15.4706 10.7089 15.4706 10.6889 15.4576 10.6769L15.3546 10.587C15.3546 10.587 15.3436 10.581 15.3376 10.58H15.3356Z" fill="#D10429"/>
<path d="M13.6838 4.95789C13.8527 4.95789 13.9717 5.03487 14.1317 5.10586C14.1737 5.12486 14.2117 5.13986 14.2467 5.15086C14.2247 5.16986 14.2087 5.18885 14.2037 5.20485C14.2037 5.20485 14.2757 5.21785 14.3077 5.27784C14.3077 5.27784 14.2397 5.28584 14.2287 5.32583C14.2667 5.32883 14.3047 5.37683 14.3047 5.42282L14.2077 5.39282C14.2077 5.39282 14.2307 5.50181 14.2307 5.61879C14.2307 5.67878 14.1437 5.74977 14.1437 5.85176C14.1437 6.17271 14.2247 6.29569 14.2817 6.39468C14.3037 6.43368 14.3227 6.47767 14.3607 6.51166C14.1957 6.42368 14.0727 6.31369 14.0727 6.21171V5.82476H14.0297V6.21171C14.0297 6.2857 14.0477 6.32069 14.0477 6.32069C14.0737 6.40268 14.1257 6.52966 14.1587 6.58065C14.0067 6.49867 13.9287 6.39568 13.9287 6.35769V5.82576H13.8857V6.36568L13.8937 6.40268C13.8757 6.43068 13.8517 6.46367 13.8347 6.47467C13.8187 6.46367 13.7947 6.43068 13.7767 6.40268L13.7847 6.36568V5.82576H13.7418V6.35769C13.7418 6.39568 13.6648 6.49867 13.5118 6.58065C13.5448 6.52966 13.5968 6.40268 13.6228 6.32069C13.6228 6.32069 13.6408 6.2857 13.6408 6.21171V5.82476H13.5978V6.21171C13.5978 6.31369 13.4748 6.42368 13.3098 6.51166C13.3468 6.47767 13.3648 6.43368 13.3878 6.39468C13.4508 6.2867 13.5278 6.14872 13.5278 5.75677C13.5278 5.60979 13.5058 5.50981 13.4678 5.43982C13.4558 5.41682 13.4408 5.35483 13.5288 5.35483C13.5748 5.35483 13.6788 5.43582 13.6788 5.43582C13.6788 5.43582 13.6748 5.37183 13.6218 5.33483C13.6128 5.32883 13.5988 5.30984 13.5988 5.29184C13.5988 5.27884 13.6218 5.24584 13.6398 5.23785C13.6518 5.23185 13.4598 5.19885 13.4598 5.11186C13.4598 5.09387 13.4708 5.08187 13.5108 5.08187C13.5628 5.08187 13.6478 5.14486 13.7238 5.14486C13.7797 5.14486 13.8017 5.13086 13.8587 5.13086C13.9287 5.13086 14.0747 5.26284 14.1247 5.25884C14.0687 5.22385 13.9787 5.09087 13.8427 5.09087C13.7957 5.09087 13.7528 5.10187 13.7088 5.10187C13.6518 5.10187 13.5968 5.04987 13.5348 5.04987C13.4938 5.04987 13.4478 5.05187 13.4408 5.04187C13.4288 5.02288 13.4398 5.01288 13.4508 4.99688C13.4718 4.96788 13.5298 4.95989 13.5878 4.95789C13.6048 4.95789 13.6218 4.95789 13.6388 4.95789C13.6548 4.95789 13.6698 4.95789 13.6828 4.95789H13.6838Z" fill="#B07F55"/>
<path d="M13.1349 5.16486C13.1349 5.16486 13.1709 5.09687 13.2609 5.09687C13.2989 5.09687 13.4228 5.09387 13.4228 5.09387C13.4398 5.13687 13.5148 5.20886 13.5148 5.28385C13.5148 5.28385 13.4378 5.14586 13.2239 5.14586C13.1699 5.14586 13.1349 5.16486 13.1349 5.16486Z" fill="#CC092F"/>
<path d="M13.4828 5.31086C13.4828 5.31086 13.4368 5.35885 13.4268 5.38485C13.3818 5.36785 13.3029 5.28687 13.3029 5.28687C13.3029 5.28687 13.3698 5.32586 13.4818 5.31186L13.4828 5.31086Z" fill="#D10429"/>
<path d="M13.4108 5.18391C13.4108 5.18391 13.3578 5.16691 13.3578 5.14891C13.3578 5.12591 13.3838 5.12591 13.3988 5.14391C13.4098 5.15591 13.4108 5.18391 13.4108 5.18391Z" fill="black"/>
<path d="M13.6368 5.12476C13.6788 5.12476 13.7117 5.15175 13.7117 5.18475C13.7117 5.21774 13.6778 5.24474 13.6368 5.24474C13.5958 5.24474 13.5618 5.21774 13.5618 5.18475C13.5618 5.15175 13.5958 5.12476 13.6368 5.12476Z" fill="black"/>
<path d="M13.6367 5.13281C13.6657 5.13281 13.6887 5.15681 13.6887 5.18581C13.6887 5.2148 13.6647 5.2388 13.6367 5.2388C13.6087 5.2388 13.5837 5.2148 13.5837 5.18581C13.5837 5.15681 13.6077 5.13281 13.6367 5.13281Z" fill="#F5D402"/>
<path d="M13.6367 5.16284C13.6487 5.16284 13.6587 5.17284 13.6587 5.18484C13.6587 5.19684 13.6487 5.20684 13.6367 5.20684C13.6247 5.20684 13.6147 5.19684 13.6147 5.18484C13.6147 5.17284 13.6247 5.16284 13.6367 5.16284Z" fill="black"/>
<path d="M12.437 10.639L12.676 10.769L12.618 11.035L12.379 10.905L12.437 10.639Z" fill="black"/>
<path d="M11.3241 8.08435L11.2382 8.12334L12.21 10.253H12.313L11.3231 8.08435H11.3241ZM12.471 10.596L12.401 10.668L12.445 10.765L12.53 10.726L12.471 10.596Z" fill="black"/>
<path d="M11.6261 9.76416C11.6261 9.76416 11.7081 9.93314 11.7701 9.95613C11.7381 9.94713 11.6331 9.98613 11.6331 9.98613C11.6331 9.98613 11.8171 10.1511 11.9741 10.1611C12.1071 10.1701 12.171 10.1041 12.171 10.1041L12.144 9.96413C12.144 9.96413 12.0631 9.86615 11.9331 9.82115C11.8021 9.77516 11.6251 9.76416 11.6251 9.76416H11.6261Z" fill="black"/>
<path d="M12.243 9.46118C12.243 9.46118 12.13 9.55817 12.099 9.67015C12.068 9.78214 12.119 9.91012 12.119 9.91012L12.214 10.0871C12.214 10.0871 12.3459 10.0171 12.4019 9.91212C12.4579 9.80713 12.4369 9.66615 12.4369 9.66615C12.4369 9.66615 12.333 9.70515 12.319 9.72214C12.3409 9.60616 12.242 9.46118 12.242 9.46118H12.243Z" fill="black"/>
<path d="M11.88 9.41528C11.88 9.41528 11.751 9.45828 11.626 9.45128C11.5071 9.44428 11.4081 9.34429 11.4081 9.34429C11.4081 9.34429 11.5071 9.2773 11.5551 9.2863C11.5011 9.2663 11.4241 9.13232 11.4241 9.13232C11.4241 9.13232 11.5341 9.09933 11.632 9.13632C11.73 9.17332 11.815 9.2803 11.815 9.2803L11.879 9.41528H11.88Z" fill="black"/>
<path d="M11.9241 8.78735C11.9241 8.78735 11.9881 8.92033 11.9731 8.96733C11.9931 8.93633 12.0681 8.88834 12.0681 8.88834C12.0681 8.88834 12.114 9.10431 12.0701 9.23729C12.0261 9.37027 11.8931 9.42126 11.8931 9.42126L11.7461 9.1363C11.7461 9.1363 11.7241 9.03032 11.7701 8.94733C11.8161 8.86334 11.9231 8.78835 11.9231 8.78835L11.9241 8.78735Z" fill="black"/>
<path d="M11.0872 8.43543C11.0872 8.43543 11.2261 8.42043 11.3531 8.47343C11.4591 8.51742 11.4921 8.59741 11.4921 8.59741L11.5441 8.73739C11.5441 8.73739 11.3931 8.79438 11.2731 8.75039C11.1531 8.70739 11.0662 8.56341 11.0662 8.56341C11.0662 8.56341 11.1502 8.53142 11.1811 8.54342C11.1352 8.52342 11.0862 8.43443 11.0862 8.43443L11.0872 8.43543Z" fill="black"/>
<path d="M11.5241 8.17434C11.5241 8.17434 11.5851 8.25233 11.5871 8.34232C11.6031 8.29432 11.6791 8.24133 11.6791 8.24133C11.6791 8.24133 11.7571 8.4313 11.7401 8.56528C11.7231 8.70026 11.6101 8.77925 11.6101 8.77925L11.4691 8.51229C11.4691 8.51229 11.4231 8.40331 11.4371 8.31832C11.4511 8.23333 11.5231 8.17334 11.5231 8.17334L11.5241 8.17434Z" fill="black"/>
<path d="M11.0432 7.66455C11.0432 7.66455 11.0182 7.80953 11.0612 7.89352C11.0992 7.96851 11.1242 7.98451 11.1242 7.98451C11.0512 7.93651 10.9402 7.93251 10.9402 7.93251C10.9402 7.93251 10.9792 8.09049 11.0732 8.16248C11.1672 8.23447 11.3121 8.21747 11.3121 8.21747C11.3121 8.21747 11.4071 8.09049 11.4011 7.95451C11.3951 7.81853 11.2861 7.67155 11.2861 7.67155C11.2861 7.67155 11.2431 7.76054 11.2391 7.82653C11.2111 7.75854 11.0432 7.66455 11.0432 7.66455Z" fill="black"/>
<path d="M12.178 10.0981L12.182 10.1501C12.269 10.1501 12.282 10.1421 12.304 10.1701C12.319 10.1881 12.354 10.2041 12.389 10.1881C12.424 10.1721 12.44 10.1291 12.424 10.0941C12.408 10.0591 12.375 10.0511 12.343 10.0571C12.324 10.0611 12.311 10.0761 12.294 10.0851C12.263 10.1011 12.177 10.0981 12.177 10.0981H12.178Z" fill="black"/>
<path d="M12.171 10.0581L12.213 10.0891C12.168 10.1631 12.154 10.1691 12.165 10.2031C12.173 10.2251 12.167 10.2631 12.135 10.2851C12.103 10.3061 12.058 10.2971 12.037 10.2651C12.016 10.2331 12.026 10.2011 12.049 10.1771C12.063 10.1631 12.082 10.1601 12.098 10.1501C12.128 10.1321 12.171 10.0581 12.171 10.0581Z" fill="black"/>
<path d="M11.8771 9.4392L11.8811 9.49119C11.9681 9.49119 11.9811 9.48319 12.0031 9.51019C12.0181 9.52818 12.0531 9.54418 12.0881 9.52818C12.1231 9.51219 12.1391 9.46919 12.1231 9.4342C12.1071 9.3992 12.0741 9.3912 12.0421 9.3972C12.0231 9.4012 12.0101 9.4162 11.9931 9.4252C11.9621 9.4412 11.8761 9.4382 11.8761 9.4382L11.8771 9.4392Z" fill="black"/>
<path d="M11.895 9.45715L11.932 9.49415C11.876 9.56014 11.861 9.56414 11.867 9.59913C11.871 9.62213 11.86 9.65912 11.825 9.67512C11.79 9.69112 11.747 9.67512 11.731 9.64013C11.715 9.60513 11.731 9.57514 11.756 9.55514C11.772 9.54314 11.792 9.54314 11.809 9.53614C11.842 9.52314 11.896 9.45715 11.896 9.45715H11.895Z" fill="black"/>
<path d="M11.5861 8.82235L11.5901 8.87434C11.6771 8.87434 11.6901 8.86635 11.7121 8.89434C11.7271 8.91234 11.7621 8.92834 11.7971 8.91234C11.832 8.89634 11.848 8.85335 11.832 8.81835C11.8161 8.78336 11.7831 8.77536 11.7511 8.78136C11.7321 8.78536 11.7191 8.80036 11.7021 8.80935C11.6711 8.82535 11.5851 8.82235 11.5851 8.82235H11.5861Z" fill="black"/>
<path d="M11.6101 8.81128L11.6471 8.84827C11.5911 8.91426 11.5761 8.91826 11.5821 8.95326C11.5861 8.97626 11.5751 9.01325 11.5401 9.02925C11.5051 9.04525 11.4621 9.02925 11.4461 8.99425C11.4301 8.95926 11.4461 8.92926 11.4711 8.90927C11.4871 8.89727 11.5071 8.89727 11.5241 8.89027C11.5571 8.87727 11.6111 8.81128 11.6111 8.81128H11.6101Z" fill="black"/>
<path d="M11.2752 8.17028L11.2792 8.22227C11.3662 8.22227 11.3792 8.21427 11.4012 8.24127C11.4162 8.25926 11.4511 8.27526 11.4861 8.25926C11.5211 8.24327 11.5371 8.20027 11.5211 8.16528C11.5051 8.13028 11.4721 8.12228 11.4401 8.12828C11.4211 8.13228 11.4082 8.14728 11.3912 8.15628C11.3602 8.17227 11.2742 8.16928 11.2742 8.16928L11.2752 8.17028Z" fill="black"/>
<path d="M11.2992 8.15942L11.3362 8.19642C11.2802 8.26241 11.2652 8.26641 11.2712 8.3014C11.2752 8.3244 11.2642 8.3614 11.2292 8.37739C11.1942 8.39339 11.1512 8.37739 11.1352 8.3424C11.1192 8.3074 11.1352 8.27741 11.1602 8.25741C11.1762 8.24541 11.1962 8.24541 11.2132 8.23841C11.2462 8.22541 11.3002 8.15942 11.3002 8.15942H11.2992Z" fill="black"/>
<path d="M12.4711 10.7141L12.619 10.7951L12.583 10.9601L12.4351 10.8791L12.4711 10.7141Z" fill="#F5D402"/>
<path d="M11.8222 9.28426C11.7912 9.29726 11.7452 9.16228 11.7112 9.08829C11.6762 9.0123 11.6062 8.89531 11.6262 8.88632C11.6482 8.87632 11.6772 8.93831 11.7122 9.0153C11.7482 9.09329 11.8512 9.27226 11.8222 9.28426Z" fill="#F5D402"/>
<path d="M11.5032 8.57243C11.4722 8.58543 11.4382 8.49644 11.4042 8.42245C11.3692 8.34646 11.3352 8.29247 11.3562 8.28347C11.3782 8.27347 11.4102 8.34046 11.4392 8.40245C11.4672 8.46244 11.5332 8.56043 11.5042 8.57243H11.5032Z" fill="#F5D402"/>
<path d="M12.241 10.1871C12.217 10.1941 12.11 9.97109 12.024 9.78211C11.9381 9.59414 11.8741 9.44116 11.8941 9.43216C11.9161 9.42217 11.9861 9.60014 12.072 9.78811C12.158 9.97609 12.259 10.1811 12.241 10.1861V10.1871Z" fill="#F5D402"/>
<path d="M11.0862 7.75244C11.0862 7.75244 11.0822 7.85843 11.1172 7.91842C11.1522 7.97841 11.2312 8.00241 11.2312 8.00241C11.2312 8.00241 11.2352 7.89642 11.2002 7.83643C11.1652 7.77644 11.0862 7.75244 11.0862 7.75244Z" fill="#097754"/>
<path d="M11.0122 7.99245C11.0122 7.99245 11.1042 7.99745 11.1582 8.03845C11.2112 8.07944 11.2322 8.16443 11.2322 8.16443C11.2322 8.16443 11.1712 8.17043 11.1182 8.12944C11.0652 8.08844 11.0132 7.99146 11.0132 7.99146L11.0122 7.99245Z" fill="#097754"/>
<path d="M11.3021 7.77834C11.3021 7.77834 11.2711 7.84833 11.2751 7.92432C11.2791 8.00031 11.3231 8.0853 11.3231 8.0853C11.3231 8.0853 11.3631 7.99431 11.3591 7.91832C11.3551 7.84233 11.3131 7.79934 11.3021 7.77734V7.77834Z" fill="#097754"/>
<path d="M11.1462 8.4623C11.1462 8.4623 11.1912 8.52529 11.2612 8.56029C11.3312 8.59428 11.4352 8.59628 11.4352 8.59628C11.4352 8.59628 11.3832 8.52929 11.3132 8.4943C11.2432 8.4603 11.1462 8.4623 11.1462 8.4623Z" fill="#097754"/>
<path d="M11.1692 8.60828C11.1692 8.60828 11.2022 8.67327 11.2632 8.70126C11.3242 8.72926 11.4482 8.72726 11.4482 8.72726C11.4482 8.72726 11.4002 8.66627 11.3392 8.63827C11.2782 8.61028 11.1682 8.60828 11.1682 8.60828H11.1692Z" fill="#097754"/>
<path d="M11.5191 8.26135C11.5191 8.26135 11.4821 8.32234 11.4861 8.38933C11.4901 8.45632 11.5341 8.52931 11.5341 8.52931C11.5341 8.52931 11.5651 8.44533 11.5611 8.37834C11.5571 8.31135 11.5191 8.26135 11.5191 8.26135Z" fill="#097754"/>
<path d="M11.6551 8.34741C11.6551 8.34741 11.5921 8.4314 11.5831 8.51839C11.5741 8.60538 11.6191 8.69436 11.6191 8.69436C11.6191 8.69436 11.6951 8.61837 11.7041 8.53139C11.7131 8.4444 11.6551 8.34741 11.6551 8.34741Z" fill="#097754"/>
<path d="M11.4812 9.14925C11.4812 9.14925 11.4892 9.18025 11.5152 9.21324C11.5412 9.24624 11.5862 9.28123 11.5862 9.28123C11.5862 9.28123 11.6292 9.26723 11.6842 9.27923C11.7382 9.29123 11.8102 9.33922 11.8102 9.33922C11.8102 9.33922 11.7332 9.22424 11.6522 9.17925C11.5722 9.13425 11.4812 9.14925 11.4812 9.14925Z" fill="#097754"/>
<path d="M11.4731 9.34715C11.4731 9.34715 11.5731 9.30416 11.6561 9.31515C11.7391 9.32615 11.8131 9.39114 11.8131 9.39114C11.8131 9.39114 11.7011 9.43014 11.6191 9.41914C11.5361 9.40814 11.4731 9.34715 11.4731 9.34715Z" fill="#097754"/>
<path d="M11.8971 8.88223C11.8971 8.88223 11.8081 8.97621 11.8011 9.0572C11.7941 9.13819 11.8731 9.21418 11.8731 9.21418C11.8731 9.21418 11.8691 9.16219 11.8831 9.12719C11.8971 9.0932 11.9261 9.0562 11.9261 9.0562C11.9261 9.0562 11.9381 9.01421 11.9341 8.98021C11.9271 8.93322 11.8981 8.88123 11.8981 8.88123L11.8971 8.88223Z" fill="#097754"/>
<path d="M12.0241 8.99023C12.0241 8.99023 11.9411 9.07422 11.9181 9.16521C11.8961 9.2552 11.9351 9.35218 11.9351 9.35218C11.9351 9.35218 12.0111 9.29219 12.0331 9.2022C12.0551 9.11222 12.0231 8.99023 12.0231 8.99023H12.0241Z" fill="#097754"/>
<path d="M12.2331 9.53613C12.2331 9.53613 12.2711 9.61512 12.2801 9.68111C12.2901 9.7471 12.2801 9.7701 12.2801 9.7701C12.2801 9.7701 12.2411 9.80809 12.2231 9.83109C12.2001 9.86009 12.1971 9.91308 12.1971 9.91308C12.1971 9.91308 12.1181 9.7961 12.1311 9.71111C12.1431 9.62612 12.2321 9.53613 12.2321 9.53613H12.2331Z" fill="#097754"/>
<path d="M12.398 9.71912C12.398 9.71912 12.297 9.78511 12.258 9.8541C12.218 9.92209 12.239 9.99208 12.239 9.99208C12.239 9.99208 12.311 9.98608 12.351 9.91809C12.391 9.8501 12.399 9.72012 12.399 9.72012L12.398 9.71912Z" fill="#097754"/>
<path d="M11.7382 9.99906C11.7382 9.99906 11.8831 9.99506 11.9711 10.0171C12.0601 10.0391 12.0921 10.0861 12.0921 10.0861C12.0921 10.0861 11.9921 10.133 11.9041 10.111C11.8151 10.0891 11.7382 9.99906 11.7382 9.99906Z" fill="#097754"/>
<path d="M11.7131 9.82723C11.7131 9.82723 11.7781 9.92821 11.8631 9.96521C11.9791 10.0162 12.1141 9.9912 12.1141 9.9912C12.1141 9.9912 12.0411 9.90122 11.9401 9.86222C11.8391 9.82223 11.7131 9.82723 11.7131 9.82723Z" fill="#097754"/>
<path d="M16.6744 7.83741L16.6934 7.87741C16.6934 7.87741 16.6624 7.88841 16.6484 7.9154C16.6344 7.9424 16.6574 7.98139 16.6574 7.98139C16.6574 7.98139 16.4984 7.96739 16.4734 7.98339C16.4504 7.99839 16.4834 8.10837 16.4684 8.20136C16.4474 8.33134 16.3964 8.32034 16.3944 8.34534C16.3924 8.36934 16.4144 8.40833 16.4144 8.40833C16.4144 8.40833 16.3844 8.41733 16.3784 8.43033C16.3684 8.45033 16.3854 8.48732 16.3734 8.51232C16.3044 8.6483 16.2015 8.84927 16.1345 8.98225C16.1255 9.00125 16.0995 9.00825 16.0865 9.03324C16.0745 9.05624 16.0845 9.09023 16.0845 9.09023C16.0845 9.09023 16.0395 9.09323 16.0245 9.12323C16.0075 9.15522 16.0175 9.19922 16.0175 9.19922C16.0175 9.19922 15.9895 9.20322 15.9755 9.23021C15.9605 9.25921 15.9855 9.27521 15.9795 9.28721C15.8885 9.46518 15.7815 9.67615 15.7165 9.80413C15.6925 9.85113 15.6085 9.86112 15.5595 9.95711C15.5126 10.0501 15.5795 10.1191 15.5795 10.1191C15.5795 10.1191 15.5096 10.1251 15.4906 10.1621C15.4716 10.1991 15.4866 10.2561 15.5375 10.2821C15.5885 10.3081 15.6435 10.2871 15.6625 10.2501C15.6815 10.2131 15.6435 10.1531 15.6435 10.1531C15.6435 10.1531 15.7385 10.1671 15.7865 10.0741C15.8355 9.97811 15.7945 9.90512 15.8185 9.85812C15.8835 9.73014 15.9915 9.51917 16.0815 9.3412C16.0885 9.3282 16.1145 9.3392 16.1295 9.3102C16.1435 9.28321 16.1295 9.25821 16.1295 9.25821C16.1295 9.25821 16.1715 9.24021 16.1875 9.20722C16.2035 9.17622 16.1795 9.13823 16.1795 9.13823C16.1795 9.13823 16.2125 9.12623 16.2245 9.10323C16.2374 9.07824 16.2275 9.05424 16.2374 9.03524C16.3054 8.90226 16.4074 8.70129 16.4764 8.56531C16.4884 8.54131 16.5284 8.53231 16.5394 8.51232C16.5454 8.50032 16.5354 8.47032 16.5354 8.47032C16.5354 8.47032 16.5794 8.46632 16.5984 8.45033C16.6174 8.43433 16.5784 8.39833 16.6714 8.30535C16.7384 8.23836 16.8454 8.19936 16.8444 8.17237C16.8424 8.14237 16.7384 8.02239 16.7384 8.02239C16.7384 8.02239 16.7824 8.01839 16.7964 7.99139C16.8104 7.9644 16.8014 7.9324 16.8014 7.9324L16.8454 7.9244V7.71643L16.6774 7.83841L16.6744 7.83741ZM15.2276 10.729C15.2206 10.742 15.2196 10.76 15.2276 10.775C15.2276 10.775 15.1746 10.758 15.1566 10.767C15.1396 10.775 15.1566 11.024 15.1566 11.024C15.1566 11.024 15.3676 10.891 15.3646 10.872C15.3616 10.852 15.3166 10.818 15.3166 10.818C15.3336 10.815 15.3466 10.805 15.3536 10.792C15.3606 10.778 15.3616 10.739 15.3136 10.715C15.2956 10.706 15.2796 10.703 15.2666 10.704C15.2456 10.706 15.2316 10.719 15.2276 10.727V10.729Z" fill="black"/>
<path d="M16.7124 7.84548L16.8124 7.89647V7.77649L16.7124 7.84548Z" fill="#F5D402"/>
<path d="M16.6734 7.91842C16.6604 7.94342 16.6734 7.97541 16.7014 7.99041C16.7294 8.00441 16.7624 7.99641 16.7754 7.97042C16.7884 7.94542 16.7754 7.91342 16.7474 7.89843C16.7364 7.89343 16.7254 7.89043 16.7154 7.89143C16.6974 7.89243 16.6814 7.90242 16.6734 7.91742V7.91842Z" fill="#F5D402"/>
<path d="M16.5024 8.00932C16.4924 8.01632 16.5064 8.10631 16.5024 8.1823C16.4994 8.25429 16.4764 8.27429 16.4634 8.29928C16.4514 8.32228 16.4094 8.34928 16.4094 8.34928L16.4444 8.38427C16.4444 8.38427 16.4674 8.34928 16.5024 8.27929C16.5444 8.1973 16.5434 8.04832 16.5554 8.04032C16.5664 8.03332 16.6534 8.01132 16.6534 8.01132C16.6534 8.01132 16.5734 8.00732 16.5284 8.00732C16.5134 8.00732 16.5024 8.00732 16.5004 8.00932H16.5024Z" fill="#F5D402"/>
<path d="M16.5114 8.42441C16.5114 8.42441 16.5234 8.39241 16.5634 8.31242C16.6124 8.21644 16.7164 8.14745 16.7184 8.12945C16.7214 8.11145 16.6824 8.02747 16.6824 8.02747C16.6824 8.02747 16.5904 8.04546 16.5774 8.05746C16.5644 8.06946 16.5704 8.19444 16.5214 8.29043C16.4814 8.36942 16.4614 8.39941 16.4614 8.39941L16.5114 8.42441Z" fill="#F5D402"/>
<path d="M16.7463 8.13639C16.7463 8.15139 16.6263 8.23738 16.5843 8.31937C16.5483 8.38936 16.5333 8.42835 16.5333 8.42835L16.5813 8.43635C16.5813 8.43635 16.5783 8.38636 16.5893 8.36436C16.6023 8.33936 16.6053 8.30937 16.6613 8.26437C16.7213 8.21738 16.8023 8.17539 16.8013 8.16339C16.8013 8.15139 16.7103 8.04041 16.7103 8.04041C16.7103 8.04041 16.7433 8.12439 16.7443 8.13739L16.7463 8.13639Z" fill="#F5D402"/>
<path d="M16.3914 8.67429C16.4644 8.53131 16.4864 8.52131 16.4954 8.50332C16.5054 8.48432 16.5034 8.45832 16.4704 8.44133C16.4584 8.43533 16.4474 8.43333 16.4384 8.43433C16.4234 8.43633 16.4124 8.44533 16.4064 8.45732C16.3974 8.47532 16.4024 8.49932 16.3294 8.6423L16.1644 8.96625C16.1644 8.96625 16.1474 8.99825 16.1794 9.01424C16.2114 9.03024 16.2264 8.99725 16.2264 8.99725L16.3914 8.67229V8.67429Z" fill="#F5D402"/>
<path d="M16.0994 9.04631C16.0904 9.06431 16.1054 9.09031 16.1344 9.10431C16.1624 9.1183 16.1934 9.1163 16.2024 9.09831C16.2114 9.08031 16.1954 9.05431 16.1674 9.04031C16.1534 9.03332 16.1384 9.03032 16.1264 9.03132C16.1144 9.03232 16.1044 9.03731 16.1004 9.04631H16.0994Z" fill="#F5D402"/>
<path d="M16.0385 9.13831C16.0265 9.1613 16.0455 9.1943 16.0795 9.2113C16.1135 9.22829 16.1505 9.22429 16.1625 9.2013C16.1745 9.1783 16.1555 9.14531 16.1215 9.12831C16.1085 9.12131 16.0955 9.11831 16.0835 9.11731C16.0635 9.11731 16.0455 9.12331 16.0385 9.13731V9.13831Z" fill="#F5D402"/>
<path d="M15.9994 9.24126C15.9904 9.25926 16.0054 9.28525 16.0344 9.29925C16.0624 9.31325 16.0934 9.31125 16.1024 9.29325C16.1114 9.27525 16.0964 9.24926 16.0674 9.23526C16.0534 9.22826 16.0384 9.22526 16.0254 9.22626C16.0134 9.22726 16.0034 9.23226 15.9994 9.24126Z" fill="#F5D402"/>
<path d="M15.9745 9.33921C15.9745 9.33921 15.7905 9.70015 15.7265 9.82714C15.7055 9.86813 15.6185 9.89313 15.5845 9.96012C15.5505 10.0271 15.5745 10.0901 15.6195 10.1131C15.6645 10.1361 15.7305 10.1191 15.7645 10.0521C15.7985 9.98511 15.7675 9.89913 15.7885 9.85913C15.8535 9.73215 16.0365 9.3712 16.0365 9.3712C16.0365 9.3712 16.0545 9.33921 16.0225 9.32321C16.0145 9.31921 16.0075 9.31821 16.0015 9.31921C15.9835 9.32121 15.9755 9.33921 15.9755 9.33921H15.9745Z" fill="#F5D402"/>
<path d="M15.5106 10.1771C15.4966 10.2041 15.5126 10.2401 15.5456 10.2571C15.5796 10.2741 15.6176 10.2661 15.6316 10.2391C15.6456 10.2121 15.6286 10.1761 15.5956 10.1591C15.5826 10.1531 15.5706 10.1501 15.5576 10.1501C15.5366 10.1501 15.5186 10.1601 15.5096 10.1771H15.5106Z" fill="#F5D402"/>
<path d="M15.2656 10.729C15.2556 10.729 15.2466 10.733 15.2426 10.74C15.2356 10.754 15.2496 10.776 15.2746 10.788C15.2996 10.801 15.3256 10.8 15.3326 10.786C15.3396 10.772 15.3246 10.75 15.3006 10.738C15.2886 10.732 15.2756 10.729 15.2656 10.73V10.729Z" fill="#F5D402"/>
<path d="M15.1796 10.7971V10.9751L15.3245 10.8711C15.3245 10.8711 15.3045 10.8361 15.2616 10.8141C15.2186 10.7921 15.1796 10.7971 15.1796 10.7971Z" fill="#F5D402"/>
<path d="M15.2716 6.82959C15.2716 6.73161 15.3996 6.63562 15.3996 6.63562H12.27C12.27 6.63562 12.398 6.73161 12.398 6.82959V9.15926C12.398 9.22025 12.417 9.26024 12.447 9.29924C12.477 9.34123 12.541 9.39922 12.608 9.44222C12.8139 9.5762 13.1569 9.71618 13.4169 9.83516C13.6338 9.93415 13.7218 9.97314 13.8338 10.1131C13.9468 9.97414 14.0358 9.93415 14.2517 9.83516C14.5117 9.71718 14.8557 9.5762 15.0606 9.44222C15.1276 9.39922 15.1916 9.34123 15.2216 9.29924C15.2516 9.26024 15.2696 9.22025 15.2696 9.15926V6.82959H15.2716Z" fill="#F5D402"/>
<path d="M12.4731 8.14751V6.8297C12.4731 6.75471 12.4351 6.70972 12.4351 6.70972H15.2357C15.2357 6.70972 15.1977 6.75471 15.1977 6.8297V8.14751L13.8359 8.56045L12.4731 8.14751Z" fill="#D10429"/>
<path d="M15.1986 8.14759L14.3548 8.13159H13.3169L12.473 8.14759V9.15945C12.473 9.21044 12.526 9.32942 12.83 9.4814C13.3329 9.73236 13.7198 9.84935 13.8358 9.99133C13.9518 9.84835 14.3388 9.73136 14.8417 9.4814C15.1456 9.32942 15.1986 9.21044 15.1986 9.15945V8.14759Z" fill="#0B45BB"/>
<path d="M14.3338 8.09451C14.3338 8.09451 14.8207 7.97153 14.8207 7.4516C14.8207 7.04566 14.3328 6.84369 14.3188 6.7467C14.2708 6.91468 14.4817 7.14665 14.4817 7.42061C14.4817 7.77556 14.2198 7.79255 14.2198 7.79255C14.1588 7.79255 14.1338 7.83655 14.1098 7.83655C14.0578 7.83155 14.0338 7.76556 13.9828 7.76556C13.9348 7.76556 13.8978 7.83955 13.8348 7.83955C13.7718 7.83955 13.7358 7.76556 13.6879 7.76556C13.6369 7.76556 13.6129 7.83155 13.5609 7.83655C13.5369 7.83655 13.5119 7.79255 13.4509 7.79255C13.4509 7.79255 13.1889 7.77556 13.1889 7.42061C13.1889 7.14565 13.3999 6.91468 13.3519 6.7467C13.3379 6.84369 12.85 7.04566 12.85 7.4516C12.85 7.97153 13.3369 8.09451 13.3369 8.09451L13.1979 8.34748C13.1979 8.34748 13.3989 8.35747 13.5059 8.44846C13.6349 8.55845 13.6219 8.79141 13.6219 8.96039C13.6219 9.09337 13.6049 9.23435 13.5369 9.29234C13.4449 9.37033 13.3829 9.37633 13.3829 9.46731C13.3829 9.5433 13.4419 9.5593 13.5369 9.6093C13.6589 9.67329 13.6539 9.76027 13.8348 9.76027C14.0158 9.76027 14.0118 9.67429 14.1338 9.6093C14.2288 9.5593 14.2878 9.5433 14.2878 9.46731C14.2878 9.37633 14.2258 9.37033 14.1338 9.29234C14.0658 9.23435 14.0488 9.09337 14.0488 8.96039C14.0488 8.79141 14.0358 8.55845 14.1648 8.44846C14.2718 8.35747 14.4727 8.34748 14.4727 8.34748L14.3338 8.09451Z" fill="black"/>
<path d="M13.8349 6.78271L13.7499 7.02268L13.5199 6.9137L13.6289 7.14366L13.3889 7.22865L13.6289 7.31364L13.5199 7.54361L13.7499 7.43462L13.8349 7.67459L13.9198 7.43462L14.1498 7.54361L14.0408 7.31364L14.2808 7.22865L14.0408 7.14366L14.1498 6.9137L13.9198 7.02268L13.8349 6.78271Z" fill="black"/>
<path d="M13.3169 8.13151C13.3169 8.13151 13.0159 8.05752 12.904 7.90955C12.708 8.08652 12.473 8.14751 12.473 8.14751C12.473 8.14751 12.718 8.2585 12.904 8.39848C12.9899 8.27549 13.3169 8.13151 13.3169 8.13151Z" fill="black"/>
<path d="M14.3547 8.13151C14.3547 8.13151 14.6817 8.27549 14.7677 8.39848C14.9536 8.2575 15.1986 8.14751 15.1986 8.14751C15.1986 8.14751 14.9636 8.08652 14.7677 7.90955C14.6557 8.05752 14.3547 8.13151 14.3547 8.13151Z" fill="black"/>
<path d="M13.4399 8.45142L13.3229 8.5684L13.4399 8.68538L13.5568 8.5684L13.4399 8.45142Z" fill="black"/>
<path d="M14.2317 8.45142L14.1147 8.5684L14.2317 8.68538L14.3487 8.5684L14.2317 8.45142Z" fill="black"/>
<path d="M13.4099 9.13534C13.4099 9.28332 13.3959 9.3613 13.3959 9.3613C13.3959 9.3613 13.5609 9.31231 13.5939 9.14534C13.6089 9.06735 13.6269 8.77839 13.5469 8.7284L13.3319 8.6864C13.3549 8.74439 13.4099 8.92237 13.4099 9.13534Z" fill="black"/>
<path d="M14.1248 8.7284C14.0458 8.77739 14.0628 9.06635 14.0778 9.14534C14.1108 9.31231 14.2757 9.3613 14.2757 9.3613C14.2757 9.3613 14.2617 9.28332 14.2617 9.13534C14.2617 8.92137 14.3167 8.74339 14.3407 8.6864L14.1258 8.7284H14.1248Z" fill="black"/>
<path d="M12.9029 8.73635C12.8289 8.75535 12.7839 8.83033 12.8029 8.90432C12.8059 8.91532 12.8109 8.92632 12.8159 8.93632C12.8049 8.93232 12.7939 8.93032 12.7819 8.92932C12.7769 8.92932 12.7719 8.92932 12.7679 8.92932C12.698 8.93132 12.639 8.98731 12.634 9.0583C12.629 9.13429 12.687 9.20028 12.7629 9.20528C12.7739 9.20528 12.7849 9.20528 12.7959 9.20328C12.7889 9.21228 12.7839 9.22228 12.7789 9.23228C12.75 9.30327 12.7849 9.38526 12.8559 9.41325C12.9269 9.44225 13.0079 9.40625 13.0359 9.33526C13.0399 9.32426 13.0429 9.31427 13.0439 9.30327C13.0509 9.31227 13.0579 9.32026 13.0669 9.32826C13.1259 9.37726 13.2129 9.36926 13.2629 9.31127C13.3119 9.25227 13.3039 9.16529 13.2459 9.11629C13.2369 9.1093 13.2269 9.1033 13.2169 9.0983C13.2279 9.0953 13.2379 9.0903 13.2479 9.0843C13.3129 9.0433 13.3319 8.95732 13.2919 8.89233C13.2639 8.84733 13.2149 8.82534 13.1659 8.82833C13.1439 8.82933 13.1209 8.83633 13.1009 8.84933C13.0909 8.85533 13.0819 8.86233 13.0749 8.87033C13.0749 8.85933 13.0749 8.84733 13.0709 8.83633C13.0549 8.77134 12.9949 8.72835 12.9309 8.73135C12.9219 8.73135 12.9119 8.73235 12.9029 8.73535V8.73635Z" fill="black"/>
<path d="M14.3747 9.13931C14.3897 9.28029 14.5047 9.39927 14.6467 9.43326C14.6227 9.39327 14.6067 9.34928 14.6017 9.30228C14.5837 9.13431 14.7136 8.99833 14.8906 8.99833C14.9186 8.99833 14.9456 9.00133 14.9726 9.00833C14.9106 8.90634 14.7926 8.83435 14.6646 8.83435C14.4877 8.83435 14.3577 8.97133 14.3757 9.13831L14.3747 9.13931Z" fill="black"/>
<path d="M13.118 7.42048C13.118 7.68744 13.261 7.84542 13.451 7.84542C13.487 7.84542 13.527 7.89441 13.561 7.89441C13.617 7.89441 13.654 7.83242 13.688 7.83242C13.731 7.83242 13.76 7.90041 13.8349 7.90041C13.9099 7.90041 13.9399 7.83242 13.9829 7.83242C14.0169 7.83242 14.0539 7.89441 14.1099 7.89441C14.1439 7.89441 14.1839 7.84542 14.2199 7.84542C14.4099 7.84542 14.5528 7.68744 14.5528 7.42048C14.5528 7.20251 14.3699 6.93655 14.3899 6.89355C14.3899 6.89355 14.7468 7.14952 14.7468 7.45148C14.7468 7.93741 14.2539 8.05739 14.2539 8.05739L14.3649 8.30735C14.3649 8.30735 14.2119 8.33035 14.1189 8.40534C13.9949 8.50532 13.9929 8.77729 13.9929 8.96026C13.9929 9.17623 14.0009 9.26822 14.0789 9.32621C14.1609 9.3882 14.2229 9.4012 14.2229 9.46419C14.2229 9.51918 14.1589 9.54118 14.0759 9.57817C13.9809 9.62016 13.9719 9.69215 13.8349 9.69215C13.698 9.69215 13.689 9.62016 13.595 9.57817C13.512 9.54118 13.448 9.51918 13.448 9.46419C13.448 9.4012 13.51 9.3882 13.592 9.32621C13.67 9.26722 13.678 9.17623 13.678 8.96026C13.678 8.77729 13.676 8.50532 13.552 8.40534C13.459 8.33035 13.306 8.30735 13.306 8.30735L13.417 8.05739C13.417 8.05739 12.9241 7.93741 12.9241 7.45148C12.9241 7.14952 13.281 6.89355 13.281 6.89355C13.301 6.93655 13.118 7.20251 13.118 7.42048ZM13.649 9.42819C13.552 9.42819 13.49 9.44819 13.49 9.47818C13.49 9.50818 13.552 9.52718 13.649 9.52718C13.675 9.52718 13.704 9.51218 13.704 9.47818C13.704 9.44419 13.675 9.42819 13.649 9.42819ZM14.0229 9.42819C13.9969 9.42819 13.9679 9.44419 13.9679 9.47818C13.9679 9.51218 13.9969 9.52718 14.0229 9.52718C14.1199 9.52718 14.1819 9.50718 14.1819 9.47818C14.1819 9.44919 14.1199 9.42819 14.0229 9.42819Z" fill="#FFD200"/>
<path d="M13.8359 6.94458L13.8899 7.09756L14.0358 7.02757L13.9668 7.17455L14.1198 7.22854L13.9668 7.28253L14.0358 7.42851L13.8899 7.35952L13.8349 7.5125L13.7809 7.35952L13.6349 7.42851L13.7039 7.28253L13.5509 7.22854L13.7039 7.17455L13.6349 7.02757L13.7809 7.09756L13.8359 6.94458Z" fill="#FFD200"/>
<path d="M13.156 8.14038L12.904 8.32735L12.901 8.33135L12.896 8.32635L12.6171 8.15137C12.6171 8.15137 12.795 8.09038 12.9 7.9834C12.999 8.09738 13.157 8.14038 13.157 8.14038H13.156Z" fill="#FFD200"/>
<path d="M15.0547 8.15235C15.0547 8.15235 14.8687 8.24534 14.7757 8.32733L14.7707 8.33232L14.7677 8.32833C14.6797 8.22734 14.5157 8.14135 14.5157 8.14135C14.5157 8.14135 14.6727 8.09836 14.7727 7.98438C14.8777 8.09136 15.0557 8.15235 15.0557 8.15235H15.0547Z" fill="#FFD200"/>
<path d="M13.4399 8.50732L13.5009 8.56832L13.4399 8.63031L13.3779 8.56832L13.4399 8.50732Z" fill="#FFD200"/>
<path d="M14.2319 8.50732L14.2939 8.56832L14.2319 8.63031L14.1709 8.56832L14.2319 8.50732Z" fill="#FFD200"/>
<path d="M13.523 8.77534C13.566 8.83433 13.558 8.92932 13.558 9.0623C13.558 9.19528 13.458 9.24727 13.458 9.24727C13.458 8.92632 13.425 8.84833 13.407 8.75134L13.523 8.77534Z" fill="#FFD200"/>
<path d="M14.2638 8.75024C14.2468 8.84723 14.2129 8.92522 14.2129 9.24617C14.2129 9.24617 14.1129 9.19518 14.1129 9.0612C14.1129 8.92722 14.1059 8.83323 14.1479 8.77424L14.2638 8.75024Z" fill="#FFD200"/>
<path d="M13.048 8.87236C13.051 8.88436 13.051 8.89635 13.05 8.90835C13.05 8.91835 13.047 8.92635 13.043 8.93535C13.026 8.92935 13.008 8.92635 12.989 8.92635C12.942 8.92635 12.901 8.94635 12.872 8.97934C12.864 8.97234 12.858 8.96534 12.852 8.95635C12.846 8.94635 12.841 8.93635 12.838 8.92435C12.824 8.86636 12.859 8.80837 12.917 8.79337C12.924 8.79137 12.932 8.79037 12.939 8.79037C12.989 8.78837 13.035 8.82136 13.048 8.87236Z" fill="#FFD200"/>
<path d="M13.2089 9.07331C13.1979 9.08031 13.1869 9.08431 13.1759 9.08631C13.1669 9.08831 13.1569 9.08831 13.1479 9.08831C13.1479 9.07031 13.1459 9.05231 13.1399 9.03432C13.1259 8.99032 13.0929 8.95633 13.054 8.93933C13.058 8.93033 13.063 8.92133 13.069 8.91333C13.076 8.90434 13.085 8.89634 13.0949 8.89034C13.1449 8.85834 13.2119 8.87434 13.2429 8.92433C13.2469 8.93033 13.2499 8.93733 13.2529 8.94433C13.2699 8.99132 13.2529 9.04532 13.2089 9.07331Z" fill="#FFD200"/>
<path d="M13.0671 9.28931C13.0571 9.28132 13.0501 9.27232 13.0441 9.26232C13.0391 9.25432 13.0361 9.24532 13.0341 9.23632C13.0511 9.23132 13.0671 9.22332 13.0831 9.21233C13.121 9.18533 13.142 9.14434 13.147 9.10034C13.157 9.10034 13.167 9.10334 13.176 9.10734C13.187 9.11134 13.197 9.11734 13.206 9.12434C13.252 9.16233 13.257 9.23032 13.219 9.27632C13.214 9.28232 13.209 9.28732 13.203 9.29131C13.164 9.32231 13.107 9.32231 13.0671 9.28931Z" fill="#FFD200"/>
<path d="M12.819 9.22023C12.824 9.20824 12.83 9.19924 12.838 9.19024C12.844 9.18324 12.852 9.17724 12.859 9.17224C12.869 9.18724 12.882 9.20024 12.897 9.21124C12.935 9.23823 12.98 9.24623 13.023 9.23723C13.025 9.24723 13.026 9.25723 13.026 9.26723C13.026 9.27823 13.023 9.29022 13.019 9.30122C12.997 9.35622 12.934 9.38321 12.879 9.36121C12.872 9.35821 12.865 9.35522 12.86 9.35122C12.818 9.32322 12.801 9.26923 12.82 9.22123L12.819 9.22023Z" fill="#FFD200"/>
<path d="M12.807 8.96326C12.819 8.96326 12.831 8.96726 12.841 8.97226C12.85 8.97626 12.857 8.98125 12.865 8.98725C12.854 9.00125 12.846 9.01725 12.84 9.03525C12.826 9.07924 12.832 9.12523 12.854 9.16323C12.845 9.16823 12.836 9.17223 12.826 9.17523C12.815 9.17823 12.803 9.18023 12.791 9.17923C12.732 9.17523 12.687 9.12323 12.691 9.06424C12.691 9.05724 12.693 9.04924 12.695 9.04225C12.708 8.99425 12.754 8.96026 12.806 8.96426L12.807 8.96326Z" fill="#FFD200"/>
<path d="M12.99 8.97925C13.048 8.97925 13.094 9.02624 13.094 9.08323C13.094 9.14023 13.047 9.18722 12.99 9.18722C12.933 9.18722 12.886 9.14023 12.886 9.08323C12.886 9.02624 12.933 8.97925 12.99 8.97925Z" fill="#FFD200"/>
<path d="M14.8187 8.94331C14.6457 8.9763 14.5218 9.12928 14.5398 9.30826C14.4848 9.26226 14.4448 9.20127 14.4368 9.13328C14.4228 9.0013 14.5188 8.89832 14.6637 8.89832C14.7187 8.89832 14.7727 8.91531 14.8187 8.94331Z" fill="#FFD200"/>
</svg>
