<svg viewBox="0 0 512 512" xmlns="http://www.w3.org/2000/svg"><g id="OUTLINE"><path d="m135.80469 239.48438 7.93359 1.03124a70.98292 70.98292 0 0 0 -12.04785-49.64453l-28.291-40.86328-6.57812 4.55371 28.291 40.86328a62.98933 62.98933 0 0 1 10.69238 44.05958z" fill="#000000" style="fill: rgb(75, 196, 88);"></path><path d="m22.15723 241.61914a71.10005 71.10005 0 0 0 139.90625 0l1.01074-5.55762a70.63526 70.63526 0 0 0 -11.49512-53.18945l-56.17969-81.14844a3.99994 3.99994 0 0 0 -6.57812 0l-56.17871 81.14746a70.63714 70.63714 0 0 0 -11.49512 53.18946zm17.06347-54.19434 52.88965-76.39746 52.89065 76.39844a62.68682 62.68682 0 0 1 10.20214 47.2041l-1.01074 5.55762a63.09988 63.09988 0 0 1 -124.16406.001l-1.00977-5.5586a62.69019 62.69019 0 0 1 10.20213-47.2051z" fill="#000000" style="fill: rgb(75, 196, 88);"></path><path d="m492.57031 458.05762 6.85938-4.11524-95.10645-158.51269 12.51758-43.8125a36.17725 36.17725 0 0 0 -1.18945-23.25977l-5.06641-12.665a36.09212 36.09212 0 0 0 -28.334-22.26855l-21.08789-3.0127a28.0056 28.0056 0 0 1 -21.083-15.19629l-20.08007-40.15922a19.88991 19.88991 0 0 0 -17.88867-11.05566h-3.79l-30.84867-53.98438a3.99966 3.99966 0 0 0 -6.03321-1.08886l-6.15674 5.13037-60.64892-53.06787a3.98235 3.98235 0 0 0 -3.418-.91114l-120 24a3.99856 3.99856 0 0 0 -3.1377 4.70606l6.78421 33.91894a3.99847 3.99847 0 0 0 4.59375 3.15918l103.36524-17.60449 39.15063 33.5586-8.53247 7.11035a3.99945 3.99945 0 0 0 -.91211 5.05762l33.39356 58.43847-17.209 17.209a36.21442 36.21442 0 0 0 -7.4414 40.07617l43.6289 98.165a36.06893 36.06893 0 0 0 43.2422 19.86038l50.07129-15.02149 102.38574 165.39356 6.80274-4.21094-57.71851-93.23779 32.73462-26.18726zm-229.67578-379.92969 28.11719 49.2041-8.3335 8.3335-28.65478-50.145zm13.9209 63.40039-9.11865 9.11865-29.62158-51.83597 9.70727-8.08936zm-194.87109-64.20508-5.23734-26.18554 65.36109-13.07178 3.304 28.45508zm71.32592-12.14746-3.33056-28.68432 16.47778-3.29546.70166 29.6211zm28.12036-4.78906-6.301 1.073-.7073-29.85672 16.46827-3.29346 5.17407 4.52734zm7.64429 2.66016 13.17309-24.79957 14.55444 12.73511-16.35744 21.81058zm17.45777 14.96386 16.3081-21.74463 26.25928 22.97681-20.85474 17.37891zm14.644 34.916 10.69726-8.91455 30 52.49756-10.05 10.05zm136.9705 211.46535-52.26441 15.6792a28.05288 28.05288 0 0 1 -33.63277-15.44824l-43.62895-98.16405a28.16879 28.16879 0 0 1 5.78711-31.17089l63.28809-63.28811h4.45508a11.93192 11.93192 0 0 1 10.73242 6.63379l20.08008 40.15921a36.00869 36.00869 0 0 0 27.1084 19.53808l21.08789 3.0127a28.07053 28.07053 0 0 1 22.03711 17.31934l5.0664 12.665a28.14109 28.14109 0 0 1 .92578 18.0918l-12.64428 44.25366zm7.15991 4.51636 33.658-26.92627 10.33716 17.22876-33.43848 26.75073zm14.7981 23.90454 33.35034-26.68018 10.3584 17.26416-33.13038 26.50415zm25.37622 40.99243-10.55641-17.05273 33.04224-26.4336 10.33691 17.22827z" fill="#000000" style="fill: rgb(75, 196, 88);"></path><path d="m291.28906 173.72363a4.00011 4.00011 0 0 0 -6.11718-.55175l-23.16407 23.16406a35.77607 35.77607 0 0 0 -6.24121 42.52344l27.49219 51.05762a36.00018 36.00018 0 0 0 52.62109 12.22754l26.44532-18.88965a4.0003 4.0003 0 0 0 .96386-5.53125zm-3.82422 28.91114c.02344-.09668.04395-.19434.06153-.292l2.75634-16.01806 52.51368 75.85278-2.6294.65747a27.84181 27.84181 0 0 1 -29.57617-10.88965l-18.74707-26.24609a27.95487 27.95487 0 0 1 -4.37891-23.06445zm43.76465 93a28.001 28.001 0 0 1 -40.92773-9.51075l-27.49219-51.05761a27.82849 27.82849 0 0 1 4.85449-33.07422l14.25782-14.25733-2.25488 13.10791a35.9408 35.9408 0 0 0 5.667 29.50684l18.74707 26.24609a35.77159 35.77159 0 0 0 29.18555 15.09473 36.4449 36.4449 0 0 0 8.84082-1.09375l5.55591-1.38916 6.80444 9.82861z" fill="#000000" style="fill: rgb(75, 196, 88);"></path><path d="m160 293.65723 29.17188 29.17089a3.99853 3.99853 0 0 0 5.65624 0l40-40-5.65624-5.65624-37.17188 37.17089-29.17188-29.17089a3.99853 3.99853 0 0 0 -5.65624 0l-144 144 5.65624 5.65624z" fill="#000000" style="fill: rgb(75, 196, 88);"></path><path d="m349.34961 168.30664 53.47851-53.47852a3.99853 3.99853 0 0 0 0-5.65624l-19.19238-19.19336 98.54-28.1543-28.1543 98.54-19.19336-19.19238a3.99853 3.99853 0 0 0 -5.65624 0l-42.7793 42.77929 5.65625 5.65625 39.95121-39.95015 21.17188 21.17089a3.99926 3.99926 0 0 0 6.67382-1.72949l32-112a3.99953 3.99953 0 0 0 -4.94433-4.94433l-112 32a3.99926 3.99926 0 0 0 -1.72949 6.67382l21.17089 21.17188-50.64941 50.65039z" fill="#000000" style="fill: rgb(75, 196, 88);"></path><path d="m194.82812 386.82812 59.39747-59.39746-5.65625-5.65625-56.56934 56.56836-29.17188-29.17089a3.99853 3.99853 0 0 0 -5.65624 0l-144 144 5.65624 5.65624 141.17188-141.17089 29.17188 29.17089a3.99853 3.99853 0 0 0 5.65624 0z" fill="#000000" style="fill: rgb(75, 196, 88);"></path><path d="m198.059 388h67.882v7.999h-67.882z" transform="matrix(.707 -.707 .707 .707 -209.235 278.863)" fill="#000000" style="fill: rgb(75, 196, 88);"></path><path d="m180.686 428h22.627v7.999h-22.627z" transform="matrix(.707 -.707 .707 .707 -249.235 262.294)" fill="#000000" style="fill: rgb(75, 196, 88);"></path><path d="m94.059 428h67.882v7.999h-67.882z" transform="matrix(.707 -.707 .707 .707 -267.98 217.04)" fill="#000000" style="fill: rgb(75, 196, 88);"></path><path d="m76.686 468h22.627v7.999h-22.627z" transform="matrix(.707 -.707 .707 .707 -307.98 200.471)" fill="#000000" style="fill: rgb(75, 196, 88);"></path></g></svg>