<svg id="Layer_1" enable-background="new 0 0 256 256" viewBox="0 0 256 256" xmlns="http://www.w3.org/2000/svg"><g><path d="m149.979 239.55v-27.28c0-16.62-13.46-30.08-30.1-30.08h-19.9v-16.857h-33.44v16.857h-19.89c-16.64 0-30.13 13.46-30.13 30.08v27.28z" fill="#f6e2c6" style="fill: rgb(75, 198, 88);"></path><path d="m149.979 241.05h-133.46c-.829 0-1.5-.671-1.5-1.5v-27.28c0-17.413 14.189-31.58 31.63-31.58h18.39v-15.356c0-.829.671-1.5 1.5-1.5h33.44c.829 0 1.5.671 1.5 1.5v15.356h18.4c17.424 0 31.6 14.167 31.6 31.58v27.28c0 .828-.672 1.5-1.5 1.5zm-131.96-3h130.46v-25.78c0-15.759-12.83-28.58-28.6-28.58h-19.9c-.829 0-1.5-.671-1.5-1.5v-15.356h-30.44v15.356c0 .829-.671 1.5-1.5 1.5h-19.89c-15.787 0-28.63 12.821-28.63 28.58v25.78z" fill="#3a312a" style="fill: rgb(75, 198, 88);"></path><path d="m88.226 16.572c-17.783-1.111-33.516 7.112-41.21 14.545-11.611 9.539-17.582 26.813-17.582 42.598 0 2.885.509 19.296 1.43 23.356.15-1.753.596-3.669 1.264-5.685 6.065-18.305 24.44-29.74 43.6-27.556 2.664.304 5.426.463 8.257.463 22.09 0 39.997-9.712 39.997-21.693s-16.363-24.816-35.756-26.028z" fill="#87796f" style="fill: rgb(75, 198, 88);"></path><path d="m30.863 98.571c-.695 0-1.306-.481-1.462-1.168-.975-4.297-1.467-20.78-1.467-23.688 0-17.778 6.929-34.523 18.085-43.719 8.534-8.217 24.912-16.011 42.302-14.921 19.449 1.215 37.161 14.335 37.161 27.525 0 13.006-18.228 23.193-41.498 23.193-2.838 0-5.673-.159-8.427-.473-18.546-2.118-36.211 9.047-42.006 26.538-.658 1.987-1.06 3.784-1.193 5.341-.063.736-.654 1.317-1.392 1.368-.034.003-.069.004-.103.004zm54.152-80.599c-15.328 0-29.416 6.939-36.956 14.223-.029.028-.059.055-.09.081-10.349 8.501-17.036 24.767-17.036 41.439 0 2.112.211 9.109.577 14.978 6.951-17.546 25.234-28.539 44.387-26.353 2.641.301 5.362.454 8.087.454 21.228 0 38.498-9.059 38.498-20.193 0-10.566-14.689-23.303-34.349-24.531-1.043-.066-2.085-.098-3.118-.098z" fill="#3a312a" style="fill: rgb(75, 198, 88);"></path><path d="m136.269 97.071c-.24.09-.159.118-.614.267-1.1-13.62-7.39-25.78-16.91-34.48-1.9-1.74-3.52-3.72-4.82-5.88 6.26-3.82 10.06-8.86 10.06-14.38 0-1.63-.3-3.28-.87-4.91 9.39 9.36 15.16 22.05 15.16 36.03 0 1.8.244 22.533-2.006 23.353z" fill="#87796f" style="fill: rgb(75, 198, 88);"></path><path d="m135.655 98.838c-.293 0-.582-.085-.831-.251-.382-.254-.627-.67-.664-1.128-1.04-12.868-6.873-24.763-16.427-33.493-2.002-1.834-3.715-3.924-5.093-6.214-.425-.707-.2-1.624.504-2.054 6.024-3.676 9.341-8.328 9.341-13.1 0-1.438-.265-2.923-.786-4.415-.231-.66.025-1.392.617-1.765s1.362-.287 1.858.207c10.061 10.029 15.601 23.202 15.601 37.093l.002.501c.114 23.048-1.744 23.805-2.982 24.256-.138.085-.32.172-.674.288-.152.05-.31.075-.466.075zm.694-1.556.449 1.193zm-20.35-39.852c1.075 1.568 2.335 3.017 3.759 4.322 8.557 7.819 14.296 18.039 16.527 29.252.293-3.167.534-8.341.492-16.77l-.002-.516c0-11.415-3.976-22.32-11.29-31.199v.079c0 5.484-3.354 10.708-9.486 14.832z" fill="#3a312a" style="fill: rgb(75, 198, 88);"></path><path clip-rule="evenodd" d="m43.349 107.381c0 6.55-5.31 11.86-11.86 11.86s-11.861-5.31-11.861-11.86 5.31-11.861 11.861-11.861 11.86 5.311 11.86 11.861z" fill="#f5e1c5" fill-rule="evenodd" style="fill: rgb(75, 198, 88);"></path><path d="m31.488 120.742c-7.367 0-13.36-5.994-13.36-13.361s5.994-13.36 13.36-13.36c7.367 0 13.361 5.994 13.361 13.36 0 7.367-5.994 13.361-13.361 13.361zm0-23.721c-5.713 0-10.36 4.647-10.36 10.36s4.648 10.361 10.36 10.361 10.361-4.648 10.361-10.361-4.648-10.36-10.361-10.36z" fill="#3a312a" style="fill: rgb(75, 198, 88);"></path><path clip-rule="evenodd" d="m146.869 107.381c0 6.55-5.31 11.86-11.86 11.86s-11.861-5.31-11.861-11.86 5.31-11.861 11.861-11.861c6.55.001 11.86 5.311 11.86 11.861z" fill="#f5e1c5" fill-rule="evenodd" style="fill: rgb(75, 198, 88);"></path><path d="m135.009 120.742c-7.367 0-13.361-5.994-13.361-13.361s5.994-13.36 13.361-13.36 13.36 5.994 13.36 13.36c.001 7.367-5.993 13.361-13.36 13.361zm0-23.721c-5.713 0-10.361 4.647-10.361 10.36s4.648 10.361 10.361 10.361 10.36-4.648 10.36-10.361c.001-5.713-4.647-10.36-10.36-10.36z" fill="#3a312a" style="fill: rgb(75, 198, 88);"></path><path d="m135.824 101.628c0 29.03-27.96 73.61-52.57 73.61-23.5 0-52.58-44.58-52.58-73.61 0-1.54.07-3.06.19-4.56.02-.22.04-.44.07-.66.19-1.57.6-3.26 1.19-5.02 6.07-18.31 24.44-29.74 43.6-27.56 2.67.31 5.43.47 8.26.47 11.92 0 22.62-2.83 29.94-7.31 1.3 2.15 2.92 4.13 4.82 5.86 10.5 9.61 17.08 23.42 17.08 38.78z" fill="#f5e1c5" style="fill: rgb(75, 198, 88);"></path><g fill="#3a312a"><path d="m83.254 176.738c-11.259 0-24.843-9.931-36.336-26.566-10.945-15.841-17.744-34.441-17.744-48.544 0-1.513.064-3.044.195-4.68.023-.258.046-.499.079-.741.194-1.605.617-3.394 1.254-5.295 6.241-18.824 25.241-30.849 45.192-28.574 2.633.306 5.354.461 8.091.461 11.168 0 21.795-2.584 29.157-7.089.34-.208.75-.271 1.138-.178.388.095.722.34.929.682 1.238 2.048 2.768 3.907 4.546 5.527 11.167 10.221 17.57 24.759 17.57 39.889 0 14.262-6.635 32.859-17.316 48.536-11.508 16.886-24.905 26.572-36.755 26.572zm-12.195-111.675c-16.837 0-32.184 10.728-37.511 26.797-.574 1.714-.952 3.303-1.125 4.728-.03.219-.047.418-.065.616-.123 1.54-.184 2.992-.184 4.424 0 13.525 6.595 31.473 17.211 46.838 10.934 15.824 23.595 25.271 33.869 25.271 10.683 0 23.496-9.444 34.274-25.263 10.36-15.205 16.796-33.156 16.796-46.847 0-14.29-6.048-28.022-16.593-37.674-1.624-1.478-3.063-3.137-4.292-4.945-7.737 4.327-18.369 6.789-29.455 6.789-2.852 0-5.689-.162-8.433-.48-1.505-.171-3.004-.254-4.492-.254z" fill="#3a312a" style="fill: rgb(75, 198, 88);"></path><path d="m69.82 101.03c0 2.834-2.298 5.132-5.132 5.132s-5.132-2.298-5.132-5.132 2.298-5.132 5.132-5.132 5.132 2.298 5.132 5.132z" fill="#3a312a" style="fill: rgb(75, 198, 88);"></path><path d="m106.946 101.03c0 2.834-2.298 5.132-5.132 5.132s-5.132-2.298-5.132-5.132 2.298-5.132 5.132-5.132c2.835 0 5.132 2.298 5.132 5.132z" fill="#3a312a" style="fill: rgb(75, 198, 88);"></path></g><path d="m63.269 116.287c0 3.65-3.958 6.609-8.84 6.609s-8.84-2.959-8.84-6.609 3.958-6.608 8.84-6.608 8.84 2.959 8.84 6.608z" fill="#f59689" style="fill: rgb(75, 198, 88);"></path><path d="m120.909 116.287c0 3.65-3.958 6.609-8.84 6.609s-8.84-2.959-8.84-6.609 3.958-6.608 8.84-6.608 8.84 2.959 8.84 6.608z" fill="#f59689" style="fill: rgb(75, 198, 88);"></path><path d="m83.249 145.772c-7.412 0-12.756-3.33-15.883-9.898-.356-.748-.038-1.643.71-1.999.75-.355 1.644-.038 1.999.71 2.623 5.509 6.932 8.188 13.174 8.188 7.989 0 12.078-5.278 13.124-8.069.291-.775 1.158-1.169 1.931-.878.776.291 1.169 1.155.878 1.931-1.807 4.823-7.564 10.015-15.933 10.015z" fill="#3a312a" style="fill: rgb(75, 198, 88);"></path><path d="m149.979 212.27v27.28h-133.46v-27.28c0-16.62 13.49-30.08 30.13-30.08h22l14.59 19.37 14.6-19.37h22.04c16.64 0 30.1 13.46 30.1 30.08z" fill="#8bc0d7" style="fill: rgb(75, 198, 88);"></path><path d="m149.979 241.05h-133.46c-.829 0-1.5-.671-1.5-1.5v-27.28c0-17.413 14.189-31.58 31.63-31.58h22c.471 0 .915.221 1.198.598l13.392 17.78 13.402-17.78c.283-.376.727-.597 1.198-.597h22.04c17.424 0 31.6 14.167 31.6 31.58v27.28c0 .827-.672 1.499-1.5 1.499zm-131.96-3h130.46v-25.78c0-15.759-12.83-28.58-28.6-28.58h-21.293l-14.15 18.773c-.283.376-.727.597-1.198.597 0 0 0 0-.001 0-.471 0-.914-.221-1.198-.598l-14.14-18.773h-21.25c-15.787 0-28.63 12.821-28.63 28.58z" fill="#3a312a" style="fill: rgb(75, 198, 88);"></path><path d="m61.294 209.593-9.445-27.403h-5.2c-16.64 0-30.13 13.46-30.13 30.08v27.28h55.1l-5.704-16.549z" fill="#87796f" style="fill: rgb(75, 198, 88);"></path><path d="m71.619 241.05h-55.1c-.829 0-1.5-.671-1.5-1.5v-27.28c0-17.413 14.189-31.58 31.63-31.58h5.2c.64 0 1.21.406 1.418 1.011l9.445 27.403c.27.783-.146 1.637-.929 1.907-.783.271-1.637-.145-1.907-.929l-9.097-26.392h-4.13c-15.787 0-28.63 12.821-28.63 28.58v25.78h51.496l-5.018-14.56c-.27-.783.146-1.637.929-1.907.784-.272 1.637.146 1.907.929l5.704 16.549c.158.458.085.965-.197 1.36-.281.394-.736.629-1.221.629z" fill="#3a312a" style="fill: rgb(75, 198, 88);"></path><path d="m149.979 212.27v27.28h-55.1l19.77-57.36h5.23c16.64 0 30.1 13.46 30.1 30.08z" fill="#87796f" style="fill: rgb(75, 198, 88);"></path><path d="m149.979 241.05h-55.1c-.485 0-.94-.234-1.221-.629-.282-.395-.355-.901-.197-1.36l19.77-57.36c.208-.605.778-1.011 1.418-1.011h5.23c17.424 0 31.6 14.167 31.6 31.58v27.28c0 .828-.672 1.5-1.5 1.5zm-52.997-3h51.496v-25.78c0-15.759-12.83-28.58-28.6-28.58h-4.16z" fill="#3a312a" style="fill: rgb(75, 198, 88);"></path><path d="m88.389 219.375 3.483-17.794h-17.247l3.483 17.794z" fill="#d4d853" style="fill: rgb(75, 198, 88);"></path><path d="m88.389 220.875h-10.28c-.717 0-1.334-.508-1.472-1.212l-3.483-17.794c-.086-.44.029-.896.314-1.241.285-.346.71-.547 1.158-.547h17.247c.448 0 .873.201 1.158.547s.4.801.314 1.241l-3.483 17.794c-.139.704-.756 1.212-1.473 1.212zm-9.046-3h7.811l2.896-14.794h-13.603z" fill="#3a312a" style="fill: rgb(75, 198, 88);"></path><path d="m91.7 239.55h-16.9l3.31-20.17h10.28z" fill="#d4d853" style="fill: rgb(75, 198, 88);"></path><path d="m91.7 241.05h-16.9c-.44 0-.858-.193-1.144-.529-.285-.336-.408-.78-.336-1.214l3.31-20.17c.119-.725.745-1.257 1.48-1.257h10.28c.735 0 1.361.532 1.48 1.257l3.31 20.17c.071.434-.052.878-.337 1.214-.284.335-.702.529-1.143.529zm-15.134-3h13.368l-2.818-17.17h-7.732z" fill="#3a312a" style="fill: rgb(75, 198, 88);"></path><path d="m83.239 201.565-10.72 8.064-20.673-27.439 10.72-8.084z" fill="#8bc0d7" style="fill: rgb(75, 198, 88);"></path><path d="m72.52 211.129c-.455 0-.904-.206-1.199-.597l-20.673-27.439c-.498-.662-.366-1.602.295-2.101l10.72-8.085c.317-.24.715-.344 1.112-.288.394.055.75.265.989.583l20.673 27.46c.239.318.343.718.287 1.112s-.266.75-.583.989l-10.72 8.064c-.27.204-.587.302-.901.302zm-18.574-28.644 18.869 25.045 8.323-6.261-18.867-25.062z" fill="#3a312a" style="fill: rgb(75, 198, 88);"></path><path d="m114.652 182.19-20.673 27.439-10.74-8.064 20.693-27.459z" fill="#8bc0d7" style="fill: rgb(75, 198, 88);"></path><path d="m93.978 211.129c-.313 0-.63-.098-.9-.3l-10.74-8.064c-.318-.239-.529-.595-.584-.99-.056-.395.048-.794.288-1.113l20.693-27.459c.239-.318.595-.527.989-.583.393-.057.794.048 1.112.288l10.72 8.085c.661.499.793 1.439.295 2.101l-20.673 27.439c-.296.39-.746.596-1.2.596zm-8.637-9.861 8.341 6.263 18.87-25.046-8.325-6.278z" fill="#3a312a" style="fill: rgb(75, 198, 88);"></path><path d="m40.909 241.057c-.829 0-1.5-.671-1.5-1.5v-21.557c0-.829.671-1.5 1.5-1.5s1.5.671 1.5 1.5v21.557c0 .828-.672 1.5-1.5 1.5z" fill="#3a312a" style="fill: rgb(75, 198, 88);"></path><path d="m125.589 241.057c-.829 0-1.5-.671-1.5-1.5v-21.557c0-.829.671-1.5 1.5-1.5s1.5.671 1.5 1.5v21.557c0 .828-.672 1.5-1.5 1.5z" fill="#3a312a" style="fill: rgb(75, 198, 88);"></path><path d="m181.76 26.04s3.408 12.659 13.222 13.247c0 0-13.1 4.525-13.321 14.202 0 0-2.579-13.572-12.925-14.059-.001-.001 12.05-1.826 13.024-13.39z" fill="#d5de58" style="fill: rgb(75, 198, 88);"></path><path d="m181.659 54.987c-.713 0-1.335-.506-1.472-1.217-.024-.124-2.495-12.417-11.523-12.842-.77-.037-1.387-.651-1.427-1.421-.04-.771.511-1.445 1.273-1.561.441-.069 10.895-1.817 11.755-12.032.061-.725.634-1.301 1.359-1.367.721-.061 1.393.398 1.584 1.101.032.116 3.259 11.626 11.864 12.141.714.043 1.297.584 1.395 1.292s-.319 1.388-.994 1.623c-.121.042-12.118 4.31-12.313 12.818-.018.767-.61 1.396-1.374 1.459-.043.005-.085.006-.127.006zm-7.741-15.729c3.878 1.969 6.23 5.746 7.587 8.876 2.026-4.021 5.942-6.787 8.949-8.427-4.135-1.843-6.783-5.651-8.334-8.723-1.793 4.361-5.271 6.87-8.202 8.274z" fill="#3a312a" style="fill: rgb(75, 198, 88);"></path><path d="m160.061 43.02s2.411 8.954 9.352 9.369c0 0-9.266 3.201-9.422 10.045 0 0-1.824-9.6-9.142-9.944-.001.001 8.523-1.29 9.212-9.47z" fill="#d5de58" style="fill: rgb(75, 198, 88);"></path><path d="m159.99 63.935c-.714 0-1.337-.507-1.473-1.22-.016-.082-1.704-8.442-7.739-8.726-.771-.037-1.388-.651-1.428-1.421-.04-.771.511-1.445 1.273-1.561.296-.047 7.364-1.243 7.942-8.114.061-.726.635-1.303 1.36-1.368.726-.067 1.392.399 1.582 1.101.021.079 2.227 7.92 7.994 8.264.714.043 1.299.584 1.396 1.293.098.709-.319 1.388-.996 1.622-.081.028-8.282 2.953-8.412 8.662-.018.767-.611 1.397-1.376 1.461-.041.006-.082.007-.123.007zm-4.519-11.527c2.107 1.333 3.523 3.394 4.447 5.28 1.376-2.232 3.515-3.872 5.364-4.973-2.287-1.269-3.884-3.35-4.941-5.223-1.174 2.286-3.015 3.875-4.87 4.916z" fill="#3a312a" style="fill: rgb(75, 198, 88);"></path><path d="m160.061 16.363s2.411 8.954 9.352 9.369c0 0-9.266 3.201-9.422 10.046 0 0-1.824-9.6-9.142-9.944-.001-.001 8.523-1.292 9.212-9.471z" fill="#d5de58" style="fill: rgb(75, 198, 88);"></path><path d="m159.989 37.278c-.713 0-1.337-.507-1.472-1.22-.016-.082-1.704-8.442-7.74-8.726-.77-.037-1.387-.651-1.427-1.421-.04-.771.511-1.445 1.273-1.561.296-.047 7.364-1.243 7.942-8.114.061-.726.635-1.303 1.36-1.368.724-.066 1.393.4 1.583 1.104.041.15 2.254 7.92 7.993 8.263.715.043 1.299.584 1.396 1.293.098.709-.32 1.388-.996 1.622-.081.028-8.282 2.952-8.412 8.662-.018.767-.611 1.397-1.376 1.461-.041.003-.082.005-.124.005zm-4.518-11.528c2.107 1.333 3.523 3.394 4.447 5.28 1.376-2.233 3.515-3.872 5.364-4.973-2.287-1.269-3.884-3.35-4.941-5.224-1.174 2.288-3.015 3.876-4.87 4.917z" fill="#3a312a" style="fill: rgb(75, 198, 88);"></path><path d="m217.409 171.761h-35.773c-11.914 0-21.573 9.66-21.573 21.573v35.72c0 5.815 4.719 10.534 10.534 10.534h57.852c5.815 0 10.534-4.719 10.534-10.534v-35.72c0-11.913-9.66-21.573-21.574-21.573zm-1.748 54.197h-32.276c-2.454 0-4.445-1.991-4.445-4.456 0-5.109 4.14-9.249 9.249-9.249h22.669c2.549 0 4.867 1.032 6.542 2.707s2.707 3.982 2.707 6.542c-.001 2.465-1.992 4.456-4.446 4.456z" fill="#eb6e7a" style="fill: rgb(75, 198, 88);"></path><path d="m228.449 241.089h-57.852c-6.635 0-12.034-5.398-12.034-12.034v-35.721c0-12.723 10.351-23.073 23.073-23.073h35.773c12.723 0 23.074 10.351 23.074 23.073v35.721c0 6.635-5.398 12.034-12.034 12.034zm-46.813-67.828c-11.068 0-20.073 9.005-20.073 20.073v35.721c0 4.981 4.053 9.034 9.034 9.034h57.852c4.981 0 9.034-4.053 9.034-9.034v-35.721c0-11.068-9.005-20.073-20.074-20.073zm34.025 54.197h-32.276c-3.278 0-5.945-2.672-5.945-5.956 0-5.927 4.822-10.749 10.749-10.749h22.669c2.874 0 5.574 1.118 7.603 3.147s3.146 4.729 3.146 7.602c-.001 3.284-2.668 5.956-5.946 5.956zm-27.472-13.705c-4.273 0-7.749 3.476-7.749 7.749 0 1.63 1.321 2.956 2.945 2.956h32.276c1.624 0 2.945-1.326 2.945-2.956 0-2.072-.805-4.018-2.268-5.481-1.462-1.462-3.409-2.268-5.481-2.268z" fill="#3a312a" style="fill: rgb(75, 198, 88);"></path><path d="m181.709 171.764h35.627v-4.561c0-4.496-3.645-8.141-8.141-8.141h-19.345c-4.496 0-8.141 3.645-8.141 8.141z" fill="#87796f" style="fill: rgb(75, 198, 88);"></path><path d="m217.335 173.264h-35.627c-.829 0-1.5-.671-1.5-1.5v-4.561c0-5.316 4.325-9.641 9.641-9.641h19.345c5.316 0 9.641 4.325 9.641 9.641v4.561c0 .828-.671 1.5-1.5 1.5zm-34.127-3h32.627v-3.061c0-3.662-2.979-6.641-6.641-6.641h-19.344c-3.662 0-6.641 2.979-6.641 6.641v3.061z" fill="#3a312a" style="fill: rgb(75, 198, 88);"></path><path d="m191.001 72.116 6.285-10.538 10.757 10.538v86.946h-17.042z" fill="#f5e1c5" style="fill: rgb(75, 198, 88);"></path><path d="m208.043 160.562h-17.042c-.829 0-1.5-.671-1.5-1.5v-86.946c0-.271.073-.536.212-.769l6.285-10.538c.235-.395.639-.66 1.095-.719.457-.064.913.095 1.243.416l10.757 10.538c.288.282.45.668.45 1.071v86.946c0 .83-.671 1.501-1.5 1.501zm-15.542-3h14.042v-84.815l-8.945-8.763-5.097 8.546z" fill="#3a312a" style="fill: rgb(75, 198, 88);"></path><path d="m197.637 114.366v44.696h10.406v-86.946l-10.406-10.194v38.39z" fill="#f5e1c5" style="fill: rgb(75, 198, 88);"></path><path d="m208.043 160.562h-10.406c-.829 0-1.5-.671-1.5-1.5v-44.696c0-.829.671-1.5 1.5-1.5s1.5.671 1.5 1.5v43.196h7.406v-84.815l-7.406-7.255v34.821c0 .829-.671 1.5-1.5 1.5s-1.5-.671-1.5-1.5v-38.39c0-.604.362-1.149.919-1.383.556-.235 1.199-.111 1.631.312l10.406 10.194c.288.282.45.668.45 1.071v86.946c0 .828-.671 1.499-1.5 1.499z" fill="#3a312a" style="fill: rgb(75, 198, 88);"></path><path d="m217.413 173.259h-15c11.07 0 20.07 9.01 20.07 20.08v35.72c0 4.98-4.05 9.03-9.03 9.03h15c4.98 0 9.03-4.05 9.03-9.03v-35.72c0-11.07-9-20.08-20.07-20.08z" fill="#d34e5c" style="fill: rgb(75, 198, 88);"></path></g></svg>