<svg width="24" height="24" viewBox="0 0 24 24" xmlns="http://www.w3.org/2000/svg"><title>icon/menu/wallet</title><g fill="none" fill-rule="evenodd"><path d="M0 0h24v24H0z"/><path d="M6.037 4H16.95c.56 0 1.012.45 1.012 1.007a1.01 1.01 0 0 1-1.012 1.006H7.444a.9.9 0 0 0-.9.9v.101a.9.9 0 0 0 .9.9h9a3.029 3.029 0 0 1 3.037 3.02v.526c0 .264.213.478.477.478h.032A1.01 1.01 0 0 1 21 12.945v3.028a1.01 1.01 0 0 1-1.007 1.006h-.017a.497.497 0 0 0-.495.498v.503c0 1.668-1.36 3.02-3.037 3.02H6.038A3.029 3.029 0 0 1 3 17.98V7.02C3 5.352 4.36 4 6.037 4zm11.41 11.57c.654 0 1.185-.53 1.185-1.181 0-.652-.53-1.18-1.185-1.18-.654 0-1.184.528-1.184 1.18 0 .652.53 1.18 1.184 1.18z" stroke="#ff6ea7" stroke-width="1.4" fill-rule="nonzero"/></g></svg>