<svg xmlns="http://www.w3.org/2000/svg">
    <symbol id="calendar" fill="#4bc658" viewBox="0 0 24 24" data-name="Line Color"
        xmlns="http://www.w3.org/2000/svg">
        <g stroke-width="0"/>
        <g stroke-linecap="round" stroke-linejoin="round"/>
        <g>
            <path id="primary" d="M20,21H4a1,1,0,0,1-1-1V9H21V20A1,1,0,0,1,20,21ZM21,5a1,1,0,0,0-1-1H4A1,1,0,0,0,3,5V9H21Z" style="fill: none; stroke: #4bc658; stroke-linecap: round; stroke-linejoin: round; stroke-width: 2;"/>
            <path id="secondary" d="M16,3V6M8,3V6" style="fill: none; stroke: #4bc658; stroke-linecap: round; stroke-linejoin: round; stroke-width: 2;"/>
            <polyline id="secondary-2" data-name="secondary" points="9 15 11 17 15 13" style="fill: none; stroke: #4bc658; stroke-linecap: round; stroke-linejoin: round; stroke-width: 2;"/>
        </g>
    </symbol>

    <symbol id="car" fill="#4bc658" viewBox="0 -15.43 122.88 122.88" version="1.1"
        xmlns="http://www.w3.org/2000/svg"
        xmlns:xlink="http://www.w3.org/1999/xlink" style="enable-background:new 0 0 122.88 92.02" xml:space="preserve">

        <g stroke-width="0"/>

        <g stroke-linecap="round" stroke-linejoin="round"/>

        <g>
            <style type="text/css">  .st0{fill-rule:evenodd;clip-rule:evenodd;}  </style>
            <g>
                <path class="st0" d="M10.17,34.23c-10.98-5.58-9.72-11.8,1.31-11.15l2.47,4.63l5.09-15.83C21.04,5.65,24.37,0,30.9,0H96 c6.53,0,10.29,5.54,11.87,11.87l3.82,15.35l2.2-4.14c11.34-0.66,12.35,5.93,0.35,11.62l1.95,2.99c7.89,8.11,7.15,22.45,5.92,42.48 v8.14c0,2.04-1.67,3.71-3.71,3.71h-15.83c-2.04,0-3.71-1.67-3.71-3.71v-4.54H24.04v4.54c0,2.04-1.67,3.71-3.71,3.71H4.5 c-2.04,0-3.71-1.67-3.71-3.71V78.2c0-0.2,0.02-0.39,0.04-0.58C-0.37,62.25-2.06,42.15,10.17,34.23L10.17,34.23z M30.38,58.7 l-14.06-1.77c-3.32-0.37-4.21,1.03-3.08,3.89l1.52,3.69c0.49,0.95,1.14,1.64,1.9,2.12c0.89,0.55,1.96,0.82,3.15,0.87l12.54,0.1 c3.03-0.01,4.34-1.22,3.39-4C34.96,60.99,33.18,59.35,30.38,58.7L30.38,58.7z M54.38,52.79h14.4c0.85,0,1.55,0.7,1.55,1.55l0,0 c0,0.85-0.7,1.55-1.55,1.55h-14.4c-0.85,0-1.55-0.7-1.55-1.55l0,0C52.82,53.49,53.52,52.79,54.38,52.79L54.38,52.79z M89.96,73.15 h14.4c0.85,0,1.55,0.7,1.55,1.55l0,0c0,0.85-0.7,1.55-1.55,1.55h-14.4c-0.85,0-1.55-0.7-1.55-1.55l0,0 C88.41,73.85,89.1,73.15,89.96,73.15L89.96,73.15z M92.5,58.7l14.06-1.77c3.32-0.37,4.21,1.03,3.08,3.89l-1.52,3.69 c-0.49,0.95-1.14,1.64-1.9,2.12c-0.89,0.55-1.96,0.82-3.15,0.87l-12.54,0.1c-3.03-0.01-4.34-1.22-3.39-4 C87.92,60.99,89.7,59.35,92.5,58.7L92.5,58.7z M18.41,73.15h14.4c0.85,0,1.55,0.7,1.55,1.55l0,0c0,0.85-0.7,1.55-1.55,1.55h-14.4 c-0.85,0-1.55-0.7-1.55-1.55l0,0C16.86,73.85,17.56,73.15,18.41,73.15L18.41,73.15z M19.23,31.2h86.82l-3.83-15.92 c-1.05-4.85-4.07-9.05-9.05-9.05H33.06c-4.97,0-7.52,4.31-9.05,9.05L19.23,31.2v0.75V31.2L19.23,31.2z"/>
            </g>
        </g>

    </symbol>


    <symbol id="number" fill="#4bc658" version="1.1"
        xmlns="http://www.w3.org/2000/svg"
        xmlns:xlink="http://www.w3.org/1999/xlink" viewBox="0 0 26.125 26.125" xml:space="preserve">

        <g stroke-width="0"/>

        <g stroke-linecap="round" stroke-linejoin="round"/>

        <g>
            <g>
                <g>
                    <path d="M3.499,14.993L0,24.493h2.94l0.425-1.356h3.021l0.398,1.356h3.034l-3.46-9.5H3.499z M4.006,21.101l0.916-2.927h0.027 l0.852,2.927H4.006z"/>
                    <path d="M25.982,15.134c-0.092-0.266-0.215-0.495-0.364-0.686c-0.151-0.189-0.326-0.347-0.525-0.472 c-0.198-0.124-0.405-0.221-0.618-0.292c0.354-0.194,0.639-0.435,0.853-0.719c0.212-0.283,0.317-0.665,0.317-1.144 c0-0.238-0.039-0.498-0.119-0.777c-0.08-0.279-0.232-0.539-0.459-0.779c-0.227-0.239-0.537-0.437-0.932-0.592 c-0.395-0.155-0.902-0.233-1.523-0.233H17.41v9.5h5.388c0.418,0,0.825-0.062,1.224-0.187c0.399-0.124,0.756-0.306,1.065-0.546 c0.312-0.239,0.562-0.538,0.751-0.896c0.191-0.361,0.287-0.779,0.287-1.26C26.124,15.707,26.078,15.401,25.982,15.134z M20.337,11.702h1.542c0.303,0,0.543,0.049,0.727,0.147c0.182,0.098,0.271,0.266,0.271,0.505c0,0.31-0.089,0.519-0.266,0.625 c-0.178,0.107-0.422,0.16-0.732,0.16h-1.542V11.702z M23.104,16.226c-0.062,0.115-0.146,0.206-0.252,0.272 c-0.106,0.067-0.229,0.114-0.367,0.14c-0.137,0.026-0.28,0.04-0.432,0.04h-1.716v-1.771h1.836c0.683,0,1.022,0.289,1.022,0.865 C23.195,15.96,23.166,16.11,23.104,16.226z"/>
                    <path d="M9.036,2.622C8.867,2.89,8.651,3.104,8.389,3.263C8.124,3.422,7.828,3.535,7.501,3.604 c-0.327,0.069-0.664,0.097-1.01,0.088v1.965h2.224v5.471h2.838V1.632H9.315C9.297,2.024,9.204,2.354,9.036,2.622z"/>
                </g>
            </g>
        </g>

    </symbol>


    <symbol id="petrol"
        xmlns:dc="http://purl.org/dc/elements/1.1/"
        xmlns:cc="http://creativecommons.org/ns#"
        xmlns:rdf="http://www.w3.org/1999/02/22-rdf-syntax-ns#"
        xmlns:svg="http://www.w3.org/2000/svg"
        xmlns="http://www.w3.org/2000/svg" version="1.1" viewBox="0 0 14 14" fill="#4bc658">

        <g stroke-width="0"/>

        <g stroke-linecap="round" stroke-linejoin="round"/>

        <g>
            <metadata>
                <rdf:rdf>
                    <cc:work rdf:about="">
                        <dc:format>image/svg+xml</dc:format>
                        <dc:type rdf:resource="http://purl.org/dc/dcmitype/StillImage"/>
                        <dc:title/>
                    </cc:work>
                </rdf:rdf>
            </metadata>
            <defs id="defs6"/>
            <rect width="14" height="14" x="0" y="0" id="canvas" style="fill:none;stroke:none;visibility:hidden"/>
            <path d="m 10.78125,0 -0.625,0.71875 1.1875,1.09375 c 0.03621,0.036212 0.0856,0.084693 0.125,0.125 l -0.25,0.28125 C 10.818532,2.6189681 11.105689,3.1369332 11.25,3.28125 L 12,4.03125 12,10 c 0,1 -0.392136,1 -0.5,1 C 11.392136,11 11,11 11,10 L 11,6 C 11,4.7190916 10,4 9,4 L 9,2 C 9,1.4486964 8.575273,1 8,1 L 2,1 C 1.400757,1 1,1.4247267 1,2 l 0,12 8,0 0,-9 c 0,0 1,0 1,1 l 0,4 c 0,2 1.239698,2 1.5,2 0.275652,0 1.5,0 1.5,-2 L 13,3 C 13,2 12.713983,1.7907839 12.375,1.46875 L 10.78125,0 z M 2,3 8,3 8,6 2,6 2,3 z" id="fuel" style="fill:#4bc658;fill-opacity:1;stroke:none"/>
        </g>

    </symbol>

    <symbol id="engine" fill="#4bc658" height="800px" width="18px" version="11"
        xmlns="http://www.w3.org/2000/svg"
        xmlns:xlink="http://www.w3.org/1999/xlink" viewBox="0 0 512 512" xml:space="preserve">

        <g stroke-width="0"/>

        <g stroke-linecap="round" stroke-linejoin="round"/>

        <g>
            <g>
                <g>
                    <path d="M490.667,170.667h-33.685c-9.451,0-17.771,6.229-20.459,15.275L415.787,256h-2.304l-9.216-27.989 c-2.901-8.768-11.051-14.677-20.267-14.677h-42.667V192c0-11.776-9.536-21.333-21.333-21.333h-42.667v-21.333h21.333 c11.797,0,21.333-9.557,21.333-21.333V64c0-11.776-9.536-21.333-21.333-21.333H128c-11.797,0-21.333,9.557-21.333,21.333v64 c0,11.776,9.536,21.333,21.333,21.333h21.333v21.333h-64C73.536,170.667,64,180.224,64,192v85.333H42.667V256 c0-11.776-9.536-21.333-21.333-21.333C9.536,234.667,0,244.224,0,256v85.333c0,11.776,9.536,21.333,21.333,21.333 c11.797,0,21.333-9.557,21.333-21.333V320H64v42.667c0,3.157,0.704,6.272,2.069,9.131l30.315,64 c3.52,7.445,11.008,12.203,19.264,12.203h257.131c7.531,0,14.507-3.989,18.347-10.453l19.093-32.213h6.997l19.904,50.496 c3.243,8.149,11.115,13.504,19.861,13.504h33.685c11.797,0,21.333-9.557,21.333-21.333V192 C512,180.224,502.464,170.667,490.667,170.667z"/>
                </g>
            </g>
        </g>

    </symbol>

    <symbol id="color" viewBox="0 0 24 24"
        xmlns="http://www.w3.org/2000/svg" fill="#4bc658">

        <g stroke-width="0"/>

        <g stroke-linecap="round" stroke-linejoin="round"/>

        <g>
            <defs>
                <style>.cls-1{fill:none;stroke:#4bc658;stroke-miterlimit:10;stroke-width:1.92px;}</style>
            </defs>
            <g id="roll_brush" data-name="roll brush">
                <circle class="cls-1" cx="5.73" cy="13.45" r="0.48"/>
                <circle class="cls-1" cx="7.65" cy="18.24" r="0.48"/>
                <circle class="cls-1" cx="6.69" cy="8.65" r="0.48"/>
                <circle class="cls-1" cx="10.52" cy="5.78" r="0.48"/>
                <circle class="cls-1" cx="15.32" cy="6.74" r="0.48"/>
                <circle class="cls-1" cx="18.2" cy="10.57" r="0.48"/>
                <path class="cls-1" d="M22.51,11.86a4.87,4.87,0,0,1-4.86,4.95H16.18a4.28,4.28,0,0,0-3.57,1.91l-1.15,1.72a4.74,4.74,0,0,1-4,2.12h0a4.61,4.61,0,0,1-3.87-2A13.07,13.07,0,0,1,1.41,13.3V12a10.55,10.55,0,0,1,21.1-.15Z"/>
            </g>
        </g>

    </symbol>

    <symbol id="weight" viewBox="0 0 512 512"
        xmlns="http://www.w3.org/2000/svg" fill="#4bc658">

        <g stroke-width="0"/>

        <g stroke-linecap="round" stroke-linejoin="round"/>

        <g>

            <path fill="#4bc658" d="M256 46c-45.074 0-82 36.926-82 82 0 25.812 12.123 48.936 30.938 64H128L32 480h448l-96-288h-76.938C325.877 176.936 338 153.812 338 128c0-45.074-36.926-82-82-82zm0 36c25.618 0 46 20.382 46 46s-20.382 46-46 46-46-20.382-46-46 20.382-46 46-46zm-82.215 202.95h23.5v33.263l33.873-33.264h27.283l-43.883 43.15 48.4 47.974H233.54l-36.255-35.888v35.888h-23.5V284.95zm119.934 21.24c4.76 0 8.952.934 12.573 2.806 3.62 1.872 6.938 4.82 9.95 8.85v-10.13h21.972v61.462c0 10.986-3.48 19.368-10.438 25.146-6.917 5.82-16.968 8.727-30.152 8.727-4.272 0-8.4-.325-12.39-.976-3.986-.65-7.996-1.647-12.024-2.99v-17.03c3.826 2.198 7.57 3.826 11.23 4.884 3.664 1.098 7.347 1.648 11.05 1.648 7.162 0 12.41-1.566 15.746-4.7 3.337-3.132 5.006-8.035 5.006-14.708v-4.7c-3.01 3.986-6.328 6.916-9.95 8.788-3.62 1.87-7.813 2.808-12.573 2.808-8.343 0-15.238-3.275-20.69-9.826-5.453-6.592-8.18-14.974-8.18-25.146 0-10.214 2.727-18.576 8.18-25.086 5.452-6.55 12.347-9.827 20.69-9.827zm8.118 15.746c-4.517 0-8.038 1.67-10.56 5.005-2.523 3.338-3.784 8.058-3.784 14.162 0 6.266 1.22 11.026 3.662 14.28 2.442 3.215 6.003 4.823 10.682 4.823 4.557 0 8.096-1.67 10.62-5.006 2.522-3.337 3.784-8.036 3.784-14.098 0-6.104-1.262-10.824-3.785-14.16-2.523-3.337-6.062-5.006-10.62-5.006z"/>

        </g>

    </symbol>

    <symbol id="weight-alt" fill="#4bc658" height="800px" width="18px" version="11"
        xmlns="http://www.w3.org/2000/svg"
        xmlns:xlink="http://www.w3.org/1999/xlink" viewBox="0 0 297 297" xml:space="preserve">

        <g stroke-width="0"/>

        <g stroke-linecap="round" stroke-linejoin="round"/>

        <g>
            <g>
                <path d="M225.982,119.09C237.179,106.511,244,89.955,244,71.83v-0.66C244,31.927,212.407,0,173.164,0h-49.662 C84.259,0,52,31.927,52,71.17v0.66c0,18.373,6.999,35.142,18.47,47.781C59.117,130.206,52,145.284,52,162v77 c0,31.981,26.352,58,58.333,58h77C219.314,297,245,270.981,245,239v-77C245,145.012,237.659,129.707,225.982,119.09z M196,221.069 c-2,2.281-4.784,4.29-8.438,6.026s-8.282,2.604-13.802,2.604c-6.998,0-12.762-2.151-17.129-6.454 c-4.368-4.302-6.632-9.888-6.632-16.756v-11.819c0-6.816,2.193-12.389,6.456-16.718c4.264-4.328,9.782-6.492,16.494-6.492 c7.283,0,12.755,1.685,16.383,5.054c3.629,3.37,5.698,8.194,6.19,14.026L195.453,191h-12.324c-0.44-3-1.406-5.447-2.896-6.951 c-1.49-1.502-3.765-2.367-6.823-2.367c-3.059,0-5.632,1.156-7.499,3.579c-1.866,2.424-2.911,5.497-2.911,9.332v11.897 c0,3.939,1.032,7.108,2.872,9.506c1.841,2.398,4.475,3.596,7.793,3.596c2.41,0,3.998-0.194,5.373-0.583 c1.373-0.389,2.962-0.907,2.962-1.556V209h-9v-9h23V221.069z M100,172h14v22h4.475l12.44-22h16.329l-17.534,25.816L148.761,229 h-16.018l-12.675-23H114v23h-14V172z M68,71.83v-0.66C68,40.749,93.082,16,123.502,16h49.662C203.584,16,228,40.749,228,71.17v0.66 c0,14.795-5.698,28.237-15.211,38.154c-7.732-3.824-16.261-5.984-25.456-5.984h-77c-9.463,0-18.562,2.293-26.46,6.329 C74.164,100.38,68,86.796,68,71.83z"/>
            </g>
        </g>

    </symbol>


    <symbol id="places" viewBox="-0.98 0 20.001 20.001"
        xmlns="http://www.w3.org/2000/svg" fill="#4bc658" stroke="#4bc658">

        <g stroke-width="0"/>

        <g stroke-linecap="round" stroke-linejoin="round"/>

        <g>
            <g id="seat-car" transform="translate(-2.983 -1.999)">
                <path id="secondary" fill="#4bc658" d="M7.38,15a1,1,0,0,1,.9.55A2.61,2.61,0,0,0,10.62,17h2.94a2.61,2.61,0,0,0,2.34-1.45,1,1,0,0,1,.9-.55h1.62L19,8.68a1,1,0,0,0-.55-1L17.06,7l-.81-3.24a1,1,0,0,0-1-.76H8.72a1,1,0,0,0-1,.76L6.94,7l-1.39.69a1,1,0,0,0-.55,1L5.58,15Z"/>
                <path id="primary" d="M5.58,15,5,8.68a1,1,0,0,1,.55-1L6.94,7l.81-3.24a1,1,0,0,1,1-.76h6.56a1,1,0,0,1,1,.76L17.06,7l1.39.69a1,1,0,0,1,.55,1L18.42,15H16.8a1,1,0,0,0-.9.55A2.61,2.61,0,0,1,13.56,17H10.62a2.61,2.61,0,0,1-2.34-1.45,1,1,0,0,0-.9-.55Zm10.32.55h0A2.61,2.61,0,0,1,13.56,17H10.62a2.61,2.61,0,0,1-2.34-1.45h0a1,1,0,0,0-.9-.55H5a1,1,0,0,0-1,1.16l.53,3.17a2,2,0,0,0,2,1.67h11a2,2,0,0,0,2-1.67L20,16.16A1,1,0,0,0,19,15H16.8a1,1,0,0,0-.9.55Z" fill="none" stroke="#4bc658" stroke-linecap="round" stroke-linejoin="round" stroke-width="2"/>
            </g>
        </g>

    </symbol>


    <symbol id="humans" fill="#4bc658" viewBox="0 0 32 32" version="1.1"
        xmlns="http://www.w3.org/2000/svg">

        <g stroke-width="0"/>

        <g stroke-linecap="round" stroke-linejoin="round"/>

        <g>
            <path d="M23.313 26.102l-6.296-3.488c2.34-1.841 2.976-5.459 2.976-7.488v-4.223c0-2.796-3.715-5.91-7.447-5.91-3.73 0-7.544 3.114-7.544 5.91v4.223c0 1.845 0.78 5.576 3.144 7.472l-6.458 3.503s-1.688 0.752-1.688 1.689v2.534c0 0.933 0.757 1.689 1.688 1.689h21.625c0.931 0 1.688-0.757 1.688-1.689v-2.534c0-0.994-1.689-1.689-1.689-1.689zM23.001 30.015h-21.001v-1.788c0.143-0.105 0.344-0.226 0.502-0.298 0.047-0.021 0.094-0.044 0.139-0.070l6.459-3.503c0.589-0.32 0.979-0.912 1.039-1.579s-0.219-1.32-0.741-1.739c-1.677-1.345-2.396-4.322-2.396-5.911v-4.223c0-1.437 2.708-3.91 5.544-3.91 2.889 0 5.447 2.44 5.447 3.91v4.223c0 1.566-0.486 4.557-2.212 5.915-0.528 0.416-0.813 1.070-0.757 1.739s0.446 1.267 1.035 1.589l6.296 3.488c0.055 0.030 0.126 0.063 0.184 0.089 0.148 0.063 0.329 0.167 0.462 0.259v1.809zM30.312 21.123l-6.39-3.488c2.34-1.841 3.070-5.459 3.070-7.488v-4.223c0-2.796-3.808-5.941-7.54-5.941-2.425 0-4.904 1.319-6.347 3.007 0.823 0.051 1.73 0.052 2.514 0.302 1.054-0.821 2.386-1.308 3.833-1.308 2.889 0 5.54 2.47 5.54 3.941v4.223c0 1.566-0.58 4.557-2.305 5.915-0.529 0.416-0.813 1.070-0.757 1.739 0.056 0.67 0.445 1.267 1.035 1.589l6.39 3.488c0.055 0.030 0.126 0.063 0.184 0.089 0.148 0.063 0.329 0.167 0.462 0.259v1.779h-4.037c0.61 0.46 0.794 1.118 1.031 2h3.319c0.931 0 1.688-0.757 1.688-1.689v-2.503c-0.001-0.995-1.689-1.691-1.689-1.691z"/>
        </g>

    </symbol>

    <symbol id="human-key" enable-background="new 0 0 256 256" viewBox="0 0 256 256"
        xmlns="http://www.w3.org/2000/svg">
        <g>
            <path d="m149.979 239.55v-27.28c0-16.62-13.46-30.08-30.1-30.08h-19.9v-16.857h-33.44v16.857h-19.89c-16.64 0-30.13 13.46-30.13 30.08v27.28z" fill="#f6e2c6" style="fill: rgb(75, 198, 88);"></path>
            <path d="m149.979 241.05h-133.46c-.829 0-1.5-.671-1.5-1.5v-27.28c0-17.413 14.189-31.58 31.63-31.58h18.39v-15.356c0-.829.671-1.5 1.5-1.5h33.44c.829 0 1.5.671 1.5 1.5v15.356h18.4c17.424 0 31.6 14.167 31.6 31.58v27.28c0 .828-.672 1.5-1.5 1.5zm-131.96-3h130.46v-25.78c0-15.759-12.83-28.58-28.6-28.58h-19.9c-.829 0-1.5-.671-1.5-1.5v-15.356h-30.44v15.356c0 .829-.671 1.5-1.5 1.5h-19.89c-15.787 0-28.63 12.821-28.63 28.58v25.78z" fill="#3a312a" style="fill: rgb(75, 198, 88);"></path>
            <path d="m88.226 16.572c-17.783-1.111-33.516 7.112-41.21 14.545-11.611 9.539-17.582 26.813-17.582 42.598 0 2.885.509 19.296 1.43 23.356.15-1.753.596-3.669 1.264-5.685 6.065-18.305 24.44-29.74 43.6-27.556 2.664.304 5.426.463 8.257.463 22.09 0 39.997-9.712 39.997-21.693s-16.363-24.816-35.756-26.028z" fill="#87796f" style="fill: rgb(75, 198, 88);"></path>
            <path d="m30.863 98.571c-.695 0-1.306-.481-1.462-1.168-.975-4.297-1.467-20.78-1.467-23.688 0-17.778 6.929-34.523 18.085-43.719 8.534-8.217 24.912-16.011 42.302-14.921 19.449 1.215 37.161 14.335 37.161 27.525 0 13.006-18.228 23.193-41.498 23.193-2.838 0-5.673-.159-8.427-.473-18.546-2.118-36.211 9.047-42.006 26.538-.658 1.987-1.06 3.784-1.193 5.341-.063.736-.654 1.317-1.392 1.368-.034.003-.069.004-.103.004zm54.152-80.599c-15.328 0-29.416 6.939-36.956 14.223-.029.028-.059.055-.09.081-10.349 8.501-17.036 24.767-17.036 41.439 0 2.112.211 9.109.577 14.978 6.951-17.546 25.234-28.539 44.387-26.353 2.641.301 5.362.454 8.087.454 21.228 0 38.498-9.059 38.498-20.193 0-10.566-14.689-23.303-34.349-24.531-1.043-.066-2.085-.098-3.118-.098z" fill="#3a312a" style="fill: rgb(75, 198, 88);"></path>
            <path d="m136.269 97.071c-.24.09-.159.118-.614.267-1.1-13.62-7.39-25.78-16.91-34.48-1.9-1.74-3.52-3.72-4.82-5.88 6.26-3.82 10.06-8.86 10.06-14.38 0-1.63-.3-3.28-.87-4.91 9.39 9.36 15.16 22.05 15.16 36.03 0 1.8.244 22.533-2.006 23.353z" fill="#87796f" style="fill: rgb(75, 198, 88);"></path>
            <path d="m135.655 98.838c-.293 0-.582-.085-.831-.251-.382-.254-.627-.67-.664-1.128-1.04-12.868-6.873-24.763-16.427-33.493-2.002-1.834-3.715-3.924-5.093-6.214-.425-.707-.2-1.624.504-2.054 6.024-3.676 9.341-8.328 9.341-13.1 0-1.438-.265-2.923-.786-4.415-.231-.66.025-1.392.617-1.765s1.362-.287 1.858.207c10.061 10.029 15.601 23.202 15.601 37.093l.002.501c.114 23.048-1.744 23.805-2.982 24.256-.138.085-.32.172-.674.288-.152.05-.31.075-.466.075zm.694-1.556.449 1.193zm-20.35-39.852c1.075 1.568 2.335 3.017 3.759 4.322 8.557 7.819 14.296 18.039 16.527 29.252.293-3.167.534-8.341.492-16.77l-.002-.516c0-11.415-3.976-22.32-11.29-31.199v.079c0 5.484-3.354 10.708-9.486 14.832z" fill="#3a312a" style="fill: rgb(75, 198, 88);"></path>
            <path clip-rule="evenodd" d="m43.349 107.381c0 6.55-5.31 11.86-11.86 11.86s-11.861-5.31-11.861-11.86 5.31-11.861 11.861-11.861 11.86 5.311 11.86 11.861z" fill="#f5e1c5" fill-rule="evenodd" style="fill: rgb(75, 198, 88);"></path>
            <path d="m31.488 120.742c-7.367 0-13.36-5.994-13.36-13.361s5.994-13.36 13.36-13.36c7.367 0 13.361 5.994 13.361 13.36 0 7.367-5.994 13.361-13.361 13.361zm0-23.721c-5.713 0-10.36 4.647-10.36 10.36s4.648 10.361 10.36 10.361 10.361-4.648 10.361-10.361-4.648-10.36-10.361-10.36z" fill="#3a312a" style="fill: rgb(75, 198, 88);"></path>
            <path clip-rule="evenodd" d="m146.869 107.381c0 6.55-5.31 11.86-11.86 11.86s-11.861-5.31-11.861-11.86 5.31-11.861 11.861-11.861c6.55.001 11.86 5.311 11.86 11.861z" fill="#f5e1c5" fill-rule="evenodd" style="fill: rgb(75, 198, 88);"></path>
            <path d="m135.009 120.742c-7.367 0-13.361-5.994-13.361-13.361s5.994-13.36 13.361-13.36 13.36 5.994 13.36 13.36c.001 7.367-5.993 13.361-13.36 13.361zm0-23.721c-5.713 0-10.361 4.647-10.361 10.36s4.648 10.361 10.361 10.361 10.36-4.648 10.36-10.361c.001-5.713-4.647-10.36-10.36-10.36z" fill="#3a312a" style="fill: rgb(75, 198, 88);"></path>
            <path d="m135.824 101.628c0 29.03-27.96 73.61-52.57 73.61-23.5 0-52.58-44.58-52.58-73.61 0-1.54.07-3.06.19-4.56.02-.22.04-.44.07-.66.19-1.57.6-3.26 1.19-5.02 6.07-18.31 24.44-29.74 43.6-27.56 2.67.31 5.43.47 8.26.47 11.92 0 22.62-2.83 29.94-7.31 1.3 2.15 2.92 4.13 4.82 5.86 10.5 9.61 17.08 23.42 17.08 38.78z" fill="#f5e1c5" style="fill: rgb(75, 198, 88);"></path>
            <g fill="#3a312a">
                <path d="m83.254 176.738c-11.259 0-24.843-9.931-36.336-26.566-10.945-15.841-17.744-34.441-17.744-48.544 0-1.513.064-3.044.195-4.68.023-.258.046-.499.079-.741.194-1.605.617-3.394 1.254-5.295 6.241-18.824 25.241-30.849 45.192-28.574 2.633.306 5.354.461 8.091.461 11.168 0 21.795-2.584 29.157-7.089.34-.208.75-.271 1.138-.178.388.095.722.34.929.682 1.238 2.048 2.768 3.907 4.546 5.527 11.167 10.221 17.57 24.759 17.57 39.889 0 14.262-6.635 32.859-17.316 48.536-11.508 16.886-24.905 26.572-36.755 26.572zm-12.195-111.675c-16.837 0-32.184 10.728-37.511 26.797-.574 1.714-.952 3.303-1.125 4.728-.03.219-.047.418-.065.616-.123 1.54-.184 2.992-.184 4.424 0 13.525 6.595 31.473 17.211 46.838 10.934 15.824 23.595 25.271 33.869 25.271 10.683 0 23.496-9.444 34.274-25.263 10.36-15.205 16.796-33.156 16.796-46.847 0-14.29-6.048-28.022-16.593-37.674-1.624-1.478-3.063-3.137-4.292-4.945-7.737 4.327-18.369 6.789-29.455 6.789-2.852 0-5.689-.162-8.433-.48-1.505-.171-3.004-.254-4.492-.254z" fill="#3a312a" style="fill: rgb(75, 198, 88);"></path>
                <path d="m69.82 101.03c0 2.834-2.298 5.132-5.132 5.132s-5.132-2.298-5.132-5.132 2.298-5.132 5.132-5.132 5.132 2.298 5.132 5.132z" fill="#3a312a" style="fill: rgb(75, 198, 88);"></path>
                <path d="m106.946 101.03c0 2.834-2.298 5.132-5.132 5.132s-5.132-2.298-5.132-5.132 2.298-5.132 5.132-5.132c2.835 0 5.132 2.298 5.132 5.132z" fill="#3a312a" style="fill: rgb(75, 198, 88);"></path>
            </g>
            <path d="m63.269 116.287c0 3.65-3.958 6.609-8.84 6.609s-8.84-2.959-8.84-6.609 3.958-6.608 8.84-6.608 8.84 2.959 8.84 6.608z" fill="#f59689" style="fill: rgb(75, 198, 88);"></path>
            <path d="m120.909 116.287c0 3.65-3.958 6.609-8.84 6.609s-8.84-2.959-8.84-6.609 3.958-6.608 8.84-6.608 8.84 2.959 8.84 6.608z" fill="#f59689" style="fill: rgb(75, 198, 88);"></path>
            <path d="m83.249 145.772c-7.412 0-12.756-3.33-15.883-9.898-.356-.748-.038-1.643.71-1.999.75-.355 1.644-.038 1.999.71 2.623 5.509 6.932 8.188 13.174 8.188 7.989 0 12.078-5.278 13.124-8.069.291-.775 1.158-1.169 1.931-.878.776.291 1.169 1.155.878 1.931-1.807 4.823-7.564 10.015-15.933 10.015z" fill="#3a312a" style="fill: rgb(75, 198, 88);"></path>
            <path d="m149.979 212.27v27.28h-133.46v-27.28c0-16.62 13.49-30.08 30.13-30.08h22l14.59 19.37 14.6-19.37h22.04c16.64 0 30.1 13.46 30.1 30.08z" fill="#8bc0d7" style="fill: rgb(75, 198, 88);"></path>
            <path d="m149.979 241.05h-133.46c-.829 0-1.5-.671-1.5-1.5v-27.28c0-17.413 14.189-31.58 31.63-31.58h22c.471 0 .915.221 1.198.598l13.392 17.78 13.402-17.78c.283-.376.727-.597 1.198-.597h22.04c17.424 0 31.6 14.167 31.6 31.58v27.28c0 .827-.672 1.499-1.5 1.499zm-131.96-3h130.46v-25.78c0-15.759-12.83-28.58-28.6-28.58h-21.293l-14.15 18.773c-.283.376-.727.597-1.198.597 0 0 0 0-.001 0-.471 0-.914-.221-1.198-.598l-14.14-18.773h-21.25c-15.787 0-28.63 12.821-28.63 28.58z" fill="#3a312a" style="fill: rgb(75, 198, 88);"></path>
            <path d="m61.294 209.593-9.445-27.403h-5.2c-16.64 0-30.13 13.46-30.13 30.08v27.28h55.1l-5.704-16.549z" fill="#87796f" style="fill: rgb(75, 198, 88);"></path>
            <path d="m71.619 241.05h-55.1c-.829 0-1.5-.671-1.5-1.5v-27.28c0-17.413 14.189-31.58 31.63-31.58h5.2c.64 0 1.21.406 1.418 1.011l9.445 27.403c.27.783-.146 1.637-.929 1.907-.783.271-1.637-.145-1.907-.929l-9.097-26.392h-4.13c-15.787 0-28.63 12.821-28.63 28.58v25.78h51.496l-5.018-14.56c-.27-.783.146-1.637.929-1.907.784-.272 1.637.146 1.907.929l5.704 16.549c.158.458.085.965-.197 1.36-.281.394-.736.629-1.221.629z" fill="#3a312a" style="fill: rgb(75, 198, 88);"></path>
            <path d="m149.979 212.27v27.28h-55.1l19.77-57.36h5.23c16.64 0 30.1 13.46 30.1 30.08z" fill="#87796f" style="fill: rgb(75, 198, 88);"></path>
            <path d="m149.979 241.05h-55.1c-.485 0-.94-.234-1.221-.629-.282-.395-.355-.901-.197-1.36l19.77-57.36c.208-.605.778-1.011 1.418-1.011h5.23c17.424 0 31.6 14.167 31.6 31.58v27.28c0 .828-.672 1.5-1.5 1.5zm-52.997-3h51.496v-25.78c0-15.759-12.83-28.58-28.6-28.58h-4.16z" fill="#3a312a" style="fill: rgb(75, 198, 88);"></path>
            <path d="m88.389 219.375 3.483-17.794h-17.247l3.483 17.794z" fill="#d4d853" style="fill: rgb(75, 198, 88);"></path>
            <path d="m88.389 220.875h-10.28c-.717 0-1.334-.508-1.472-1.212l-3.483-17.794c-.086-.44.029-.896.314-1.241.285-.346.71-.547 1.158-.547h17.247c.448 0 .873.201 1.158.547s.4.801.314 1.241l-3.483 17.794c-.139.704-.756 1.212-1.473 1.212zm-9.046-3h7.811l2.896-14.794h-13.603z" fill="#3a312a" style="fill: rgb(75, 198, 88);"></path>
            <path d="m91.7 239.55h-16.9l3.31-20.17h10.28z" fill="#d4d853" style="fill: rgb(75, 198, 88);"></path>
            <path d="m91.7 241.05h-16.9c-.44 0-.858-.193-1.144-.529-.285-.336-.408-.78-.336-1.214l3.31-20.17c.119-.725.745-1.257 1.48-1.257h10.28c.735 0 1.361.532 1.48 1.257l3.31 20.17c.071.434-.052.878-.337 1.214-.284.335-.702.529-1.143.529zm-15.134-3h13.368l-2.818-17.17h-7.732z" fill="#3a312a" style="fill: rgb(75, 198, 88);"></path>
            <path d="m83.239 201.565-10.72 8.064-20.673-27.439 10.72-8.084z" fill="#8bc0d7" style="fill: rgb(75, 198, 88);"></path>
            <path d="m72.52 211.129c-.455 0-.904-.206-1.199-.597l-20.673-27.439c-.498-.662-.366-1.602.295-2.101l10.72-8.085c.317-.24.715-.344 1.112-.288.394.055.75.265.989.583l20.673 27.46c.239.318.343.718.287 1.112s-.266.75-.583.989l-10.72 8.064c-.27.204-.587.302-.901.302zm-18.574-28.644 18.869 25.045 8.323-6.261-18.867-25.062z" fill="#3a312a" style="fill: rgb(75, 198, 88);"></path>
            <path d="m114.652 182.19-20.673 27.439-10.74-8.064 20.693-27.459z" fill="#8bc0d7" style="fill: rgb(75, 198, 88);"></path>
            <path d="m93.978 211.129c-.313 0-.63-.098-.9-.3l-10.74-8.064c-.318-.239-.529-.595-.584-.99-.056-.395.048-.794.288-1.113l20.693-27.459c.239-.318.595-.527.989-.583.393-.057.794.048 1.112.288l10.72 8.085c.661.499.793 1.439.295 2.101l-20.673 27.439c-.296.39-.746.596-1.2.596zm-8.637-9.861 8.341 6.263 18.87-25.046-8.325-6.278z" fill="#3a312a" style="fill: rgb(75, 198, 88);"></path>
            <path d="m40.909 241.057c-.829 0-1.5-.671-1.5-1.5v-21.557c0-.829.671-1.5 1.5-1.5s1.5.671 1.5 1.5v21.557c0 .828-.672 1.5-1.5 1.5z" fill="#3a312a" style="fill: rgb(75, 198, 88);"></path>
            <path d="m125.589 241.057c-.829 0-1.5-.671-1.5-1.5v-21.557c0-.829.671-1.5 1.5-1.5s1.5.671 1.5 1.5v21.557c0 .828-.672 1.5-1.5 1.5z" fill="#3a312a" style="fill: rgb(75, 198, 88);"></path>
            <path d="m181.76 26.04s3.408 12.659 13.222 13.247c0 0-13.1 4.525-13.321 14.202 0 0-2.579-13.572-12.925-14.059-.001-.001 12.05-1.826 13.024-13.39z" fill="#d5de58" style="fill: rgb(75, 198, 88);"></path>
            <path d="m181.659 54.987c-.713 0-1.335-.506-1.472-1.217-.024-.124-2.495-12.417-11.523-12.842-.77-.037-1.387-.651-1.427-1.421-.04-.771.511-1.445 1.273-1.561.441-.069 10.895-1.817 11.755-12.032.061-.725.634-1.301 1.359-1.367.721-.061 1.393.398 1.584 1.101.032.116 3.259 11.626 11.864 12.141.714.043 1.297.584 1.395 1.292s-.319 1.388-.994 1.623c-.121.042-12.118 4.31-12.313 12.818-.018.767-.61 1.396-1.374 1.459-.043.005-.085.006-.127.006zm-7.741-15.729c3.878 1.969 6.23 5.746 7.587 8.876 2.026-4.021 5.942-6.787 8.949-8.427-4.135-1.843-6.783-5.651-8.334-8.723-1.793 4.361-5.271 6.87-8.202 8.274z" fill="#3a312a" style="fill: rgb(75, 198, 88);"></path>
            <path d="m160.061 43.02s2.411 8.954 9.352 9.369c0 0-9.266 3.201-9.422 10.045 0 0-1.824-9.6-9.142-9.944-.001.001 8.523-1.29 9.212-9.47z" fill="#d5de58" style="fill: rgb(75, 198, 88);"></path>
            <path d="m159.99 63.935c-.714 0-1.337-.507-1.473-1.22-.016-.082-1.704-8.442-7.739-8.726-.771-.037-1.388-.651-1.428-1.421-.04-.771.511-1.445 1.273-1.561.296-.047 7.364-1.243 7.942-8.114.061-.726.635-1.303 1.36-1.368.726-.067 1.392.399 1.582 1.101.021.079 2.227 7.92 7.994 8.264.714.043 1.299.584 1.396 1.293.098.709-.319 1.388-.996 1.622-.081.028-8.282 2.953-8.412 8.662-.018.767-.611 1.397-1.376 1.461-.041.006-.082.007-.123.007zm-4.519-11.527c2.107 1.333 3.523 3.394 4.447 5.28 1.376-2.232 3.515-3.872 5.364-4.973-2.287-1.269-3.884-3.35-4.941-5.223-1.174 2.286-3.015 3.875-4.87 4.916z" fill="#3a312a" style="fill: rgb(75, 198, 88);"></path>
            <path d="m160.061 16.363s2.411 8.954 9.352 9.369c0 0-9.266 3.201-9.422 10.046 0 0-1.824-9.6-9.142-9.944-.001-.001 8.523-1.292 9.212-9.471z" fill="#d5de58" style="fill: rgb(75, 198, 88);"></path>
            <path d="m159.989 37.278c-.713 0-1.337-.507-1.472-1.22-.016-.082-1.704-8.442-7.74-8.726-.77-.037-1.387-.651-1.427-1.421-.04-.771.511-1.445 1.273-1.561.296-.047 7.364-1.243 7.942-8.114.061-.726.635-1.303 1.36-1.368.724-.066 1.393.4 1.583 1.104.041.15 2.254 7.92 7.993 8.263.715.043 1.299.584 1.396 1.293.098.709-.32 1.388-.996 1.622-.081.028-8.282 2.952-8.412 8.662-.018.767-.611 1.397-1.376 1.461-.041.003-.082.005-.124.005zm-4.518-11.528c2.107 1.333 3.523 3.394 4.447 5.28 1.376-2.233 3.515-3.872 5.364-4.973-2.287-1.269-3.884-3.35-4.941-5.224-1.174 2.288-3.015 3.876-4.87 4.917z" fill="#3a312a" style="fill: rgb(75, 198, 88);"></path>
            <path d="m217.409 171.761h-35.773c-11.914 0-21.573 9.66-21.573 21.573v35.72c0 5.815 4.719 10.534 10.534 10.534h57.852c5.815 0 10.534-4.719 10.534-10.534v-35.72c0-11.913-9.66-21.573-21.574-21.573zm-1.748 54.197h-32.276c-2.454 0-4.445-1.991-4.445-4.456 0-5.109 4.14-9.249 9.249-9.249h22.669c2.549 0 4.867 1.032 6.542 2.707s2.707 3.982 2.707 6.542c-.001 2.465-1.992 4.456-4.446 4.456z" fill="#eb6e7a" style="fill: rgb(75, 198, 88);"></path>
            <path d="m228.449 241.089h-57.852c-6.635 0-12.034-5.398-12.034-12.034v-35.721c0-12.723 10.351-23.073 23.073-23.073h35.773c12.723 0 23.074 10.351 23.074 23.073v35.721c0 6.635-5.398 12.034-12.034 12.034zm-46.813-67.828c-11.068 0-20.073 9.005-20.073 20.073v35.721c0 4.981 4.053 9.034 9.034 9.034h57.852c4.981 0 9.034-4.053 9.034-9.034v-35.721c0-11.068-9.005-20.073-20.074-20.073zm34.025 54.197h-32.276c-3.278 0-5.945-2.672-5.945-5.956 0-5.927 4.822-10.749 10.749-10.749h22.669c2.874 0 5.574 1.118 7.603 3.147s3.146 4.729 3.146 7.602c-.001 3.284-2.668 5.956-5.946 5.956zm-27.472-13.705c-4.273 0-7.749 3.476-7.749 7.749 0 1.63 1.321 2.956 2.945 2.956h32.276c1.624 0 2.945-1.326 2.945-2.956 0-2.072-.805-4.018-2.268-5.481-1.462-1.462-3.409-2.268-5.481-2.268z" fill="#3a312a" style="fill: rgb(75, 198, 88);"></path>
            <path d="m181.709 171.764h35.627v-4.561c0-4.496-3.645-8.141-8.141-8.141h-19.345c-4.496 0-8.141 3.645-8.141 8.141z" fill="#87796f" style="fill: rgb(75, 198, 88);"></path>
            <path d="m217.335 173.264h-35.627c-.829 0-1.5-.671-1.5-1.5v-4.561c0-5.316 4.325-9.641 9.641-9.641h19.345c5.316 0 9.641 4.325 9.641 9.641v4.561c0 .828-.671 1.5-1.5 1.5zm-34.127-3h32.627v-3.061c0-3.662-2.979-6.641-6.641-6.641h-19.344c-3.662 0-6.641 2.979-6.641 6.641v3.061z" fill="#3a312a" style="fill: rgb(75, 198, 88);"></path>
            <path d="m191.001 72.116 6.285-10.538 10.757 10.538v86.946h-17.042z" fill="#f5e1c5" style="fill: rgb(75, 198, 88);"></path>
            <path d="m208.043 160.562h-17.042c-.829 0-1.5-.671-1.5-1.5v-86.946c0-.271.073-.536.212-.769l6.285-10.538c.235-.395.639-.66 1.095-.719.457-.064.913.095 1.243.416l10.757 10.538c.288.282.45.668.45 1.071v86.946c0 .83-.671 1.501-1.5 1.501zm-15.542-3h14.042v-84.815l-8.945-8.763-5.097 8.546z" fill="#3a312a" style="fill: rgb(75, 198, 88);"></path>
            <path d="m197.637 114.366v44.696h10.406v-86.946l-10.406-10.194v38.39z" fill="#f5e1c5" style="fill: rgb(75, 198, 88);"></path>
            <path d="m208.043 160.562h-10.406c-.829 0-1.5-.671-1.5-1.5v-44.696c0-.829.671-1.5 1.5-1.5s1.5.671 1.5 1.5v43.196h7.406v-84.815l-7.406-7.255v34.821c0 .829-.671 1.5-1.5 1.5s-1.5-.671-1.5-1.5v-38.39c0-.604.362-1.149.919-1.383.556-.235 1.199-.111 1.631.312l10.406 10.194c.288.282.45.668.45 1.071v86.946c0 .828-.671 1.499-1.5 1.499z" fill="#3a312a" style="fill: rgb(75, 198, 88);"></path>
            <path d="m217.413 173.259h-15c11.07 0 20.07 9.01 20.07 20.08v35.72c0 4.98-4.05 9.03-9.03 9.03h15c4.98 0 9.03-4.05 9.03-9.03v-35.72c0-11.07-9-20.08-20.07-20.08z" fill="#d34e5c" style="fill: rgb(75, 198, 88);"></path>
        </g>
    </symbol>


    <symbol id="flag-us" fill="#4bc658" viewBox="0 0 512 512" version="1.1" xml:space="preserve"
        xmlns="http://www.w3.org/2000/svg"
        xmlns:xlink="http://www.w3.org/1999/xlink">

        <g stroke-width="0"/>

        <g stroke-linecap="round" stroke-linejoin="round"/>

        <g>
            <g id="_x36_44_x2C__Country_x2C__flag_x2C__states_x2C__united_x2C__us_x2C__usa">
                <g>
                    <g>
                        <g>
                            <g>
                                <polygon points="46.347,108.824 48.665,113.52 53.847,114.272 50.097,117.928 50.982,123.089 46.347,120.652 41.712,123.089 42.597,117.928 38.847,114.272 44.03,113.52 "/>
                                <polygon points="66.347,108.824 68.665,113.52 73.847,114.272 70.097,117.928 70.982,123.089 66.347,120.652 61.712,123.089 62.597,117.928 58.847,114.272 64.03,113.52 "/>
                                <polygon points="86.347,108.824 88.665,113.52 93.847,114.272 90.097,117.928 90.982,123.089 86.347,120.652 81.712,123.089 82.597,117.928 78.847,114.272 84.03,113.52 "/>
                                <polygon points="106.347,108.824 108.665,113.52 113.847,114.272 110.097,117.928 110.982,123.089 106.347,120.652 101.712,123.089 102.597,117.928 98.847,114.272 104.03,113.52 "/>
                                <polygon points="126.347,108.824 128.665,113.52 133.847,114.272 130.097,117.928 130.982,123.089 126.347,120.652 121.712,123.089 122.597,117.928 118.847,114.272 124.03,113.52 "/>
                                <polygon points="146.347,108.824 148.665,113.52 153.847,114.272 150.097,117.928 150.982,123.089 146.347,120.652 141.712,123.089 142.597,117.928 138.847,114.272 144.03,113.52 "/>
                                <polygon points="166.347,108.824 168.665,113.52 173.847,114.272 170.097,117.928 170.982,123.089 166.347,120.652 161.712,123.089 162.597,117.928 158.847,114.272 164.03,113.52 "/>
                                <polygon points="186.347,108.824 188.665,113.52 193.847,114.272 190.097,117.928 190.982,123.089 186.347,120.652 181.712,123.089 182.597,117.928 178.847,114.272 184.03,113.52 "/>
                                <polygon points="46.347,128.824 48.665,133.52 53.847,134.272 50.097,137.928 50.982,143.089 46.347,140.652 41.712,143.089 42.597,137.928 38.847,134.272 44.03,133.52 "/>
                                <polygon points="66.347,128.824 68.665,133.52 73.847,134.272 70.097,137.928 70.982,143.089 66.347,140.652 61.712,143.089 62.597,137.928 58.847,134.272 64.03,133.52 "/>
                                <polygon points="86.347,128.824 88.665,133.52 93.847,134.272 90.097,137.928 90.982,143.089 86.347,140.652 81.712,143.089 82.597,137.928 78.847,134.272 84.03,133.52 "/>
                                <polygon points="106.347,128.824 108.665,133.52 113.847,134.272 110.097,137.928 110.982,143.089 106.347,140.652 101.712,143.089 102.597,137.928 98.847,134.272 104.03,133.52 "/>
                                <polygon points="126.347,128.824 128.665,133.52 133.847,134.272 130.097,137.928 130.982,143.089 126.347,140.652 121.712,143.089 122.597,137.928 118.847,134.272 124.03,133.52 "/>
                                <polygon points="146.347,128.824 148.665,133.52 153.847,134.272 150.097,137.928 150.982,143.089 146.347,140.652 141.712,143.089 142.597,137.928 138.847,134.272 144.03,133.52 "/>
                                <polygon points="166.347,128.824 168.665,133.52 173.847,134.272 170.097,137.928 170.982,143.089 166.347,140.652 161.712,143.089 162.597,137.928 158.847,134.272 164.03,133.52 "/>
                                <polygon points="186.347,128.824 188.665,133.52 193.847,134.272 190.097,137.928 190.982,143.089 186.347,140.652 181.712,143.089 182.597,137.928 178.847,134.272 184.03,133.52 "/>
                                <polygon points="46.347,148.824 48.665,153.52 53.847,154.272 50.097,157.928 50.982,163.089 46.347,160.652 41.712,163.089 42.597,157.928 38.847,154.272 44.03,153.52 "/>
                                <polygon points="66.347,148.824 68.665,153.52 73.847,154.272 70.097,157.928 70.982,163.089 66.347,160.652 61.712,163.089 62.597,157.928 58.847,154.272 64.03,153.52 "/>
                                <polygon points="86.347,148.824 88.665,153.52 93.847,154.272 90.097,157.928 90.982,163.089 86.347,160.652 81.712,163.089 82.597,157.928 78.847,154.272 84.03,153.52 "/>
                                <polygon points="106.347,148.824 108.665,153.52 113.847,154.272 110.097,157.928 110.982,163.089 106.347,160.652 101.712,163.089 102.597,157.928 98.847,154.272 104.03,153.52 "/>
                                <polygon points="126.347,148.824 128.665,153.52 133.847,154.272 130.097,157.928 130.982,163.089 126.347,160.652 121.712,163.089 122.597,157.928 118.847,154.272 124.03,153.52 "/>
                                <polygon points="146.347,148.824 148.665,153.52 153.847,154.272 150.097,157.928 150.982,163.089 146.347,160.652 141.712,163.089 142.597,157.928 138.847,154.272 144.03,153.52 "/>
                                <polygon points="166.347,148.824 168.665,153.52 173.847,154.272 170.097,157.928 170.982,163.089 166.347,160.652 161.712,163.089 162.597,157.928 158.847,154.272 164.03,153.52 "/>
                                <polygon points="186.347,148.824 188.665,153.52 193.847,154.272 190.097,157.928 190.982,163.089 186.347,160.652 181.712,163.089 182.597,157.928 178.847,154.272 184.03,153.52 "/>
                                <polygon points="46.347,168.824 48.665,173.52 53.847,174.272 50.097,177.928 50.982,183.089 46.347,180.652 41.712,183.089 42.597,177.928 38.847,174.272 44.03,173.52 "/>
                                <polygon points="66.347,168.824 68.665,173.52 73.847,174.272 70.097,177.928 70.982,183.089 66.347,180.652 61.712,183.089 62.597,177.928 58.847,174.272 64.03,173.52 "/>
                                <polygon points="86.347,168.824 88.665,173.52 93.847,174.272 90.097,177.928 90.982,183.089 86.347,180.652 81.712,183.089 82.597,177.928 78.847,174.272 84.03,173.52 "/>
                                <polygon points="106.347,168.824 108.665,173.52 113.847,174.272 110.097,177.928 110.982,183.089 106.347,180.652 101.712,183.089 102.597,177.928 98.847,174.272 104.03,173.52 "/>
                                <polygon points="126.347,168.824 128.665,173.52 133.847,174.272 130.097,177.928 130.982,183.089 126.347,180.652 121.712,183.089 122.597,177.928 118.847,174.272 124.03,173.52 "/>
                                <polygon points="146.347,168.824 148.665,173.52 153.847,174.272 150.097,177.928 150.982,183.089 146.347,180.652 141.712,183.089 142.597,177.928 138.847,174.272 144.03,173.52 "/>
                                <polygon points="166.347,168.824 168.665,173.52 173.847,174.272 170.097,177.928 170.982,183.089 166.347,180.652 161.712,183.089 162.597,177.928 158.847,174.272 164.03,173.52 "/>
                                <polygon points="186.347,168.824 188.665,173.52 193.847,174.272 190.097,177.928 190.982,183.089 186.347,180.652 181.712,183.089 182.597,177.928 178.847,174.272 184.03,173.52 "/>
                                <polygon points="46.347,188.824 48.665,193.52 53.847,194.272 50.097,197.928 50.982,203.089 46.347,200.652 41.712,203.089 42.597,197.928 38.847,194.272 44.03,193.52 "/>
                                <polygon points="66.347,188.824 68.665,193.52 73.847,194.272 70.097,197.928 70.982,203.089 66.347,200.652 61.712,203.089 62.597,197.928 58.847,194.272 64.03,193.52 "/>
                                <polygon points="86.347,188.824 88.665,193.52 93.847,194.272 90.097,197.928 90.982,203.089 86.347,200.652 81.712,203.089 82.597,197.928 78.847,194.272 84.03,193.52 "/>
                                <polygon points="106.347,188.824 108.665,193.52 113.847,194.272 110.097,197.928 110.982,203.089 106.347,200.652 101.712,203.089 102.597,197.928 98.847,194.272 104.03,193.52 "/>
                                <polygon points="126.347,188.824 128.665,193.52 133.847,194.272 130.097,197.928 130.982,203.089 126.347,200.652 121.712,203.089 122.597,197.928 118.847,194.272 124.03,193.52 "/>
                                <polygon points="146.347,188.824 148.665,193.52 153.847,194.272 150.097,197.928 150.982,203.089 146.347,200.652 141.712,203.089 142.597,197.928 138.847,194.272 144.03,193.52 "/>
                                <polygon points="166.347,188.824 168.665,193.52 173.847,194.272 170.097,197.928 170.982,203.089 166.347,200.652 161.712,203.089 162.597,197.928 158.847,194.272 164.03,193.52 "/>
                                <polygon points="186.347,188.824 188.665,193.52 193.847,194.272 190.097,197.928 190.982,203.089 186.347,200.652 181.712,203.089 182.597,197.928 178.847,194.272 184.03,193.52 "/>
                                <polygon points="46.347,208.824 48.665,213.52 53.847,214.272 50.097,217.928 50.982,223.089 46.347,220.652 41.712,223.089 42.597,217.928 38.847,214.272 44.03,213.52 "/>
                                <polygon points="66.347,208.824 68.665,213.52 73.847,214.272 70.097,217.928 70.982,223.089 66.347,220.652 61.712,223.089 62.597,217.928 58.847,214.272 64.03,213.52 "/>
                                <polygon points="86.347,208.824 88.665,213.52 93.847,214.272 90.097,217.928 90.982,223.089 86.347,220.652 81.712,223.089 82.597,217.928 78.847,214.272 84.03,213.52 "/>
                                <polygon points="106.347,208.824 108.665,213.52 113.847,214.272 110.097,217.928 110.982,223.089 106.347,220.652 101.712,223.089 102.597,217.928 98.847,214.272 104.03,213.52 "/>
                                <polygon points="126.347,208.824 128.665,213.52 133.847,214.272 130.097,217.928 130.982,223.089 126.347,220.652 121.712,223.089 122.597,217.928 118.847,214.272 124.03,213.52 "/>
                                <polygon points="146.347,208.824 148.665,213.52 153.847,214.272 150.097,217.928 150.982,223.089 146.347,220.652 141.712,223.089 142.597,217.928 138.847,214.272 144.03,213.52 "/>
                                <polygon points="166.347,208.824 168.665,213.52 173.847,214.272 170.097,217.928 170.982,223.089 166.347,220.652 161.712,223.089 162.597,217.928 158.847,214.272 164.03,213.52 "/>
                                <polygon points="186.347,208.824 188.665,213.52 193.847,214.272 190.097,217.928 190.982,223.089 186.347,220.652 181.712,223.089 182.597,217.928 178.847,214.272 184.03,213.52 "/>
                            </g>
                            <g>
                                <path d="M486.348,425.956h-460c-5.523,0-10-4.478-10-10v-320c0-5.523,4.477-10,10-10h460c5.522,0,10,4.477,10,10v320 C496.348,421.479,491.87,425.956,486.348,425.956z M36.347,405.956h440v-300h-440V405.956z"/>
                            </g>
                            <g>
                                <path d="M206.347,245.957h-180c-5.523,0-10-4.477-10-10v-140c0-5.523,4.477-10,10-10h180c5.523,0,10,4.477,10,10v140 C216.347,241.479,211.87,245.957,206.347,245.957z M36.347,225.957h160v-120h-160V225.957z"/>
                            </g>
                            <g>
                                <path d="M486.348,175.957h-280c-5.523,0-10-4.477-10-10v-30c0-5.523,4.477-10,10-10h280c5.522,0,10,4.477,10,10v30 C496.348,171.479,491.87,175.957,486.348,175.957z M216.347,155.957h260v-10h-260V155.957z"/>
                            </g>
                            <g>
                                <path d="M486.348,245.957h-280c-5.523,0-10-4.477-10-10v-30c0-5.523,4.477-10,10-10h280c5.522,0,10,4.477,10,10v30 C496.348,241.479,491.87,245.957,486.348,245.957z M216.347,225.957h260v-10h-260V225.957z"/>
                            </g>
                            <g>
                                <path d="M486.348,315.956h-460c-5.523,0-10-4.478-10-10v-30c0-5.522,4.477-10,10-10h460c5.522,0,10,4.478,10,10v30 C496.348,311.479,491.87,315.956,486.348,315.956z M36.347,295.956h440v-10h-440V295.956z"/>
                            </g>
                            <g>
                                <path d="M486.348,385.956h-460c-5.523,0-10-4.478-10-10v-30c0-5.522,4.477-10,10-10h460c5.522,0,10,4.478,10,10v30 C496.348,381.479,491.87,385.956,486.348,385.956z M36.347,365.956h440v-10h-440V365.956z"/>
                            </g>
                        </g>
                    </g>
                </g>
            </g>
            <g id="Layer_1"/>
        </g>

    </symbol>

    <symbol id="absorber" viewBox="0 0 512 512"
        xmlns="http://www.w3.org/2000/svg">
        <g>
            <path d="m487.15 170.76h-22.91v-17.12h14.74c13.71 0 24.85-11.15 24.85-24.85v-3.96c0-13.7-11.14-24.85-24.85-24.85h-14.74v-11.67h14.74c13.71 0 24.85-11.15 24.85-24.85v-3.96c0-13.7-11.14-24.85-24.85-24.85h-14.74v-9.8c0-13.7-11.15-24.85-24.85-24.85h-61.38c-13.7 0-24.85 11.15-24.85 24.85v9.8h-14.75c-13.7 0-24.85 11.15-24.85 24.85v3.96c0 13.7 11.15 24.85 24.85 24.85h14.75v11.67h-14.75c-13.7 0-24.85 11.15-24.85 24.85v3.96c0 13.7 11.15 24.85 24.85 24.85h14.75v17.12h-22.91c-13.71 0-24.85 11.15-24.85 24.85v10.79h-35.94v-68.7c0-13.7-11.14-24.85-24.84-24.85h-29.6v-73.15c0-21.89-17.81-39.7-39.7-39.7h-135.62c-21.89 0-39.7 17.81-39.7 39.7v432.6c0 21.89 17.81 39.7 39.7 39.7h135.62c21.89 0 39.7-17.81 39.7-39.7v-74.14h29.6c13.7 0 24.84-11.15 24.84-24.85v-67.71h35.94v11.32c0 13.67 11.11 24.81 24.78 24.85l156.9.42h.07c13.7 0 24.85-11.15 24.85-24.85v-121.73c0-13.7-11.15-24.85-24.85-24.85zm-401.67-148.29h34.89l-34.89 31.62zm44.06 466.44h-35.3l35.3-31.99zm0-58.98-44.06 39.93v-32.4l44.06-39.93zm0-59.4-44.06 39.93v-32.4l44.06-39.93zm0-59.39-44.06 39.93v-32.41l44.06-39.93zm0-59.4-44.06 39.93v-32.4l44.06-39.93zm0-59.39-44.06 39.93v-32.41l44.06-39.93zm0-59.4-44.06 39.93v-33.4l44.06-39.93zm0-60.39-44.06 39.93v-31.41l44.06-39.93zm175.86 213.04h-35.44v-59.2h35.44zm67.76-115.33v-16.63h71.08v16.63zm0-145.42c0-2.67 2.18-4.85 4.85-4.85h61.38c2.67 0 4.85 2.18 4.85 4.85v9.8h-71.08zm-34.75 43.46c-2.67 0-4.85-2.18-4.85-4.85v-3.96c0-2.68 2.18-4.85 4.85-4.85h140.57c2.68 0 4.85 2.17 4.85 4.85v3.96c0 2.67-2.17 4.85-4.85 4.85zm105.83 20v11.67h-71.08v-11.67zm-105.83 45.33c-2.67 0-4.85-2.17-4.85-4.85v-3.96c0-2.67 2.18-4.85 4.85-4.85h140.57c2.68 0 4.85 2.18 4.85 4.85v3.96c0 2.68-2.17 4.85-4.85 4.85z" fill="rgb(0,0,0)" style="fill: rgb(75, 198, 88);"></path>
        </g>
    </symbol>


    <symbol id="absorber-alt" enable-background="new 0 0 70 70" viewBox="0 0 70 70"
        xmlns="http://www.w3.org/2000/svg">
        <g>
            <path d="m63.8558617 34.2862091c-2.3100586 0-4.1799316 1.8701172-4.1799316 4.1699219v.9199219h-5.0500488c.0400391-.0800781.079834-.1699219.1101074-.25.4299316-1.0996094-.1101074-2.3398438-1.2001953-2.7695313.0100098-.0102539.0100098-.0302734.0200195-.050293.1699219-.449707 0-.949707-.4099121-1.199707l-5.4001465-3.3203125 6.3200684 1.0302734c.4699707.0795898.9299316-.1904297 1.0900879-.6401367.1699219-.4501953 0-.9501953-.4101563-1.2001953l-5.3999023-3.3100586 6.3100586 1.0200195c.4799805.0800781.9299316-.1899414 1.1000977-.6401367.1699219-.449707-.0102539-.949707-.4101563-1.199707l-5.3999023-3.3100586 6.3100586 1.0302734c.4697266.0698242.9299316-.1904297 1.0998535-.6401367.1599121-.4501953-.0100098-.9501953-.4199219-1.2001953l-5.5500488-3.409668c.1015854.0149803 6.9460945 1.0242672 6.5100098.9599609.402317.0713654.8882332-.1579781 1.0900879-.6601563l.4199219-1.0800781c.7305489-1.9153423-.113369-4.0684624-1.9899902-4.9199209l.8400879-2.2001953c2.1810036-.8645334 3.3714142-3.3697853 2.3498535-5.679688-.4599609-1.0302734-1.3000488-1.8300779-2.3601074-2.2299802-2.2914162-.8646259-4.6634254.3399384-5.4599609 2.4296873-.4399417 1.1303711-.3598636 2.3803716.1699216 3.4399419l-.829834 2.1801758-.0500488-.0200195c-2-.7797852-4.2600098.2202148-5.0400391 2.2202148l-.4299316 1.1098633c-.1996765.5541124.0760117 1.0989656.5800781 1.2998037l2.1398926.8203125-2.4799805-.3603516c-.4699707-.0698242-.9199219.2001953-1.0800781.6503906-.1699219.4399414.0100098.9399414.4101563 1.1899414l5.3999023 3.3100586-6.3100586-1.0200195c-.4699707-.0800781-.9299316.1899414-1.0998535.6396484-.1599121.4501953.0100098.9501953.4199219 1.2001953l5.3898926 3.3100586-6.3098145-1.0302734c-.4699707-.0698242-.9299316.1904297-1.0900879.6401367-.1699219.4501953 0 .9501953.4101563 1.2001953l5.3898926 3.3100586-6.3100586-1.0200195c-.4699707-.0800781-.9299316.1899414-1.0900879.6396484-.1699219.4501953 0 .9501953.4101563 1.2001953l5.2399902 3.2202148-5.630127-2.1801758c-.5297852-.2099609-1.119873-.2001953-1.6499023.0400391-.5200195.2299805-.9299316.6499023-1.1401367 1.1899414-.7787094 2.0631294.276825 4.2384987 2.2001953 4.9799805l1.3500977.5200195c-.0200195.0200195-.0302734.0498047-.0400391.0800781l-.2602539.6796875h-7.4799805v-1.9399414c0-1.7397461-1.4099121-3.1499023-3.1499023-3.1499023h-2.9599609v-4.8398438c0-.0800781 0-.1699219-.0200195-.25-.1599121-3.6801758-3.1999512-6.6201172-6.9199219-6.6201172h-13.0100099c-3.7102051 0-6.7600098 2.9301758-6.9299316 6.6000977-.0407475.1591091-.009843-1.2482281-.0200195 30.659668 0 3.8300781 3.119873 6.9404297 6.9499512 6.9404297h13.0100096c3.8300781 0 6.9399414-3.1103516 6.9399414-6.9404297v-4.7597656h2.9599609c1.7399902 0 3.1499023-1.4199219 3.1499023-3.1601563v-1.9399414h24.7001954v.9199219c0 2.300293 1.869873 4.1801758 4.1799316 4.1801758 2.3000526 0 4.1799355-1.8798828 4.1799355-4.1801758v-12.4399413c0-2.2998047-1.8798828-4.1699219-4.1799354-4.1699219zm-6.0998536-28.6499019c.7797852 0 1.4099121.6298828 1.4099121 1.409668 0 .7802734-.630127 1.4204106-1.4099121 1.4204106-.7900391 0-1.420166-.6401372-1.420166-1.4204106 0-.7797851.630127-1.409668 1.420166-1.409668zm-7.920166 9.02002.0700684-.1801758c.3798828-.9697266 1.4699707-1.4599609 2.4499512-1.0800781l5.0998535 1.9702148c.9561386.3653774 1.4632149 1.4503031 1.0800781 2.4501944l-.0698242.1796875zm-29.2299804 9.919921h1.3200683c2.4299316 0 4.4599609 1.7700195 4.8598633 4.1000977l-6.1799316 2.0097656zm0 21.9599609 6.2600098-1.9501953v4.7802734l-6.2600098 1.9599609zm-10.5300293 18.2402344h-1.1599121c-2.7299805 0-4.9499512-2.2202148-4.9499512-4.9404297v-1.5498047l6.1098633 2.0200195zm0-6.5703125-6.1098633-2.0200195v-4.7797852l6.1098633 2.0200195zm0-6.8798828-6.1098633-2.0200195v-4.7700195l6.1098633 2.0200195zm0-6.8798828-6.1098633-2.0200195v-4.7802734l6.1098633 2.0200195zm0-6.8798829-6.1098633-2.0205078v-4.7895507l6.1098633 2.0200195zm0-6.8901367-6.0300293-2c.4001465-2.3300781 2.4299316-4.1000977 4.8701172-4.1000977h1.1599121zm16.790039 29.159668c0 2.7202148-2.2199707 4.9404297-4.9399414 4.9404297h-1.3200684v-4.4599609l6.2600098-2.0302734zm0-3.659668-6.2600098 2.0400391v-4.7900391l6.2600098-1.9501953c.0259037.507328.0231877 5.154335 0 4.7001953zm0-13.7700195v.0800781l-6.2600098 1.949707v-4.7700195l6.2600098-1.9599609v-.0698242zm0-6.7998047-6.2600098 1.949707v-4.7700195l6.2600098-2.0297852c-.0049762.1005707-.0218963 5.292614 0 4.8500977zm15.2600098.6298828c-.9695396-.362011-1.410881-1.4651337-1.0500488-2.4003906.0300293-.0698242.1298828-.1098633.1999512-.0898438 1.1773643.4552116-4.264164-1.6486816 11.5100098 4.4501953.0800781.0297852.1201172.1201172.0900879.199707-.170166.4399414-.4899902.7802734-.880127.9799805h-1.7299805zm-.6000977 5.5595703c-1.1098633.4204102-2 1.3105469-2.4299316 2.4301758-.5 1.2900391-.3200684 2.6699219.3701172 3.75h-4.4902344v-6.6000977h6.7102051zm1.6501465 5.3803711c-.7800293 0-1.4199219-.6303711-1.4199219-1.4101563s.6398926-1.4199219 1.4199219-1.4199219c.7797852 0 1.4099121.6401367 1.4099121 1.4199219s-.6301269 1.4101563-1.4099121 1.4101563zm16.5.7998047h-13.0300293c.1398926-.2197266.2600098-.4599609.3601074-.7197266.4199219-1.1201172.3598633-2.3701172-.170166-3.4204102l.9399414-2.4599609h2.1401367c.4099121.1401367.8200684.2099609 1.2299805.2099609.4299316 0 .8498535-.0698242 1.25-.2099609h7.2800293z" fill="#000000" style="fill: rgb(75, 198, 88);"></path>
        </g>
    </symbol>


    <symbol id="wheel" viewBox="0 0 512 512"
        xmlns="http://www.w3.org/2000/svg" fill="#4bc658">

        <g stroke-width="0"/>

        <g stroke-linecap="round" stroke-linejoin="round"/>

        <g>

            <path fill="#4bc658" d="M256 21A235 235 0 0 0 21 256a235 235 0 0 0 235 235 235 235 0 0 0 235-235A235 235 0 0 0 256 21zm0 82c84.393 0 153 68.607 153 153s-68.607 153-153 153-153-68.607-153-153 68.607-153 153-153zm0 18c-20.417 0-39.757 4.52-57.09 12.602C210.457 166.482 230.218 208 256 208c25.823 0 44.926-41.65 56.752-74.555C295.505 125.462 276.284 121 256 121zm98.752 42.88c-27.714 21.143-61.142 52.79-53.17 77.327 7.981 24.564 53.508 29.858 88.459 30.936.628-5.294.959-10.678.959-16.143 0-35.642-13.755-68.012-36.248-92.12zm-197.729.243C134.663 188.204 121 220.477 121 256c0 5.55.34 11.018.988 16.39 34.833-.825 80.381-6.793 88.344-31.3 7.974-24.542-25.68-55.553-53.309-76.967zm70.188 43.643a9 9 0 0 0-5.035 1.714 9 9 0 0 0-1.99 12.57 9 9 0 0 0 12.57 1.993 9 9 0 0 0 1.992-12.572 9 9 0 0 0-7.537-3.705zm57.578 0a9 9 0 0 0-.637.004 9 9 0 0 0-6.9 3.7 9 9 0 0 0 1.992 12.573 9 9 0 0 0 12.57-1.992 9 9 0 0 0-1.99-12.57 9 9 0 0 0-5.035-1.715zM256 224a32 32 0 0 0-32 32 32 32 0 0 0 32 32 32 32 0 0 0 32-32 32 32 0 0 0-32-32zm-46.297 38.037a9 9 0 0 0-2.652.44 9 9 0 0 0-5.78 11.341 9 9 0 0 0 11.34 5.778 9 9 0 0 0 5.78-11.34 9 9 0 0 0-8.688-6.219zm92.856.008a9 9 0 0 0-8.95 6.21 9 9 0 0 0 5.78 11.34 9 9 0 0 0 11.34-5.777 9 9 0 0 0-5.78-11.341 9 9 0 0 0-2.39-.432zm-92.143 27.713c-21.59.104-50.24 16.832-72.424 31.928 19.029 34.168 52.46 59.164 92.143 66.837 9.99-33.39 18.42-78.618-2.446-93.777-4.854-3.527-10.737-5.02-17.273-4.988zm91.016.02c-6.58 0-12.492 1.516-17.346 5.042-20.895 15.181-11.863 60.106-2.088 93.678 39.687-7.715 73.108-32.76 92.1-66.973-22.006-15.224-50.935-31.747-72.666-31.748zM256 295.58a9 9 0 0 0-9 9 9 9 0 0 0 9 9 9 9 0 0 0 9-9 9 9 0 0 0-9-9z"/>

        </g>

    </symbol>


    <symbol id="door" viewBox="0 0 1024 1024" class="icon" version="1.1"
        xmlns="http://www.w3.org/2000/svg" fill="#4bc658">

        <g stroke-width="0"/>

        <g stroke-linecap="round" stroke-linejoin="round"/>

        <g>

            <path d="M961.754167 53.266667l-551.5625-2.241667-356.925 419.166667 7.204166 532.7875 906.720834 13.108333-5.4375-962.820833z m-57.866667 448.458333l-775.975-3.191667 300.704167-363.3 486.0125 2.008334-10.741667 364.483333z" fill="#4bc658"/>

            <path d="M951.6875 994.920833L13.3375 985.266667 3.508333 431.079167 367.383333 0.1875H942.041667l9.645833 994.733333z m-907.154167-41.083333l875.0875 9.004167-9.020833-930.904167H382.129167L35.466667 442.45l9.066666 511.3875z" fill="#4bc658"/>

            <path d="M885.695833 480.633333H60.808333l325.1-396.233333h509.933334l-10.145834 396.233333z m-757.766666-31.754166H854.75l8.516667-332.729167H400.929167l-273 332.729167zM867.316667 639.604167h-148.725l-38.720834-115.841667h187.445834v115.841667z m-125.858334-31.745834h94.1125v-52.345833h-111.608333l17.495833 52.345833z" fill="#4bc658"/>

        </g>

    </symbol>

    <symbol id="suspension" fill="#4bc658" version="1.1"
        xmlns="http://www.w3.org/2000/svg"
        xmlns:xlink="http://www.w3.org/1999/xlink" viewBox="0 0 512 512" xml:space="preserve" stroke="#4bc658">

        <g stroke-width="0"/>

        <g stroke-linecap="round" stroke-linejoin="round"/>

        <g>
            <g>
                <g>
                    <polygon points="450.783,165.69 450.783,0 325.379,0 325.379,66.149 186.621,66.149 186.621,0 61.217,0 61.217,165.69 186.621,165.69 186.621,99.541 239.304,99.541 239.304,412.459 186.621,412.459 186.621,346.31 61.217,346.31 61.217,512 186.621,512 186.621,445.851 325.379,445.851 325.379,512 450.783,512 450.783,346.31 325.379,346.31 325.379,412.459 272.696,412.459 272.696,99.541 325.379,99.541 325.379,165.69 "/>
                </g>
            </g>
        </g>

    </symbol>

    <symbol version="1.1" id="cylinders"
        xmlns="http://www.w3.org/2000/svg"
        xmlns:xlink="http://www.w3.org/1999/xlink" x="0px" y="0px" viewBox="0 0 456 456" style="enable-background:new 0 0 456 456;" xml:space="preserve">
        <g>
            <g>
                <path d="M448,115.987h-32c-4.418,0-8,3.582-8,8v24h-16v-40c0-2.122-0.844-4.156-2.344-5.656l-24-24 c-1.5-1.5-3.534-2.344-5.656-2.344h-32v-16h8c4.418,0,8-3.582,8-8v-32c0-4.418-3.582-8-8-8H208c-4.418,0-8,3.582-8,8v32 c0,4.418,3.582,8,8,8h8v16h-40c-1.016-0.001-2.024,0.192-2.968,0.568l-38.576,15.432H96c-4.418,0-8,3.582-8,8v24H72v-24 c0-4.418-3.582-8-8-8H32c-4.418,0-8,3.582-8,8v136c0,4.418,3.582,8,8,8h32c4.418,0,8-3.582,8-8v-24h16v24c0,4.418,3.582,8,8,8 h37.784l38.096,22.856c1.244,0.748,2.668,1.144,4.12,1.144h208c4.418,0,8-3.582,8-8v-24h16v24c0,4.418,3.582,8,8,8h32 c4.418,0,8-3.582,8-8v-136C456,119.569,452.418,115.987,448,115.987z M56,227.987H40v-120h16V227.987z M88,195.987H72v-56h16 V195.987z M128,227.987h-24v-120h24V227.987z M168,245.859l-24-14.4V105.403l24-9.6V245.859z M216,27.987h112v16H216V27.987z M312,59.987v16h-80v-16H312z M376,251.987H184v-16h192V251.987z M376,219.987H184v-128h172.688L376,111.299V219.987z M408,219.987h-16v-56h16V219.987z M440,251.987h-16v-120h16V251.987z" fill="#000000" style="fill: rgb(75, 198, 88);"></path>
            </g>
        </g>
        <g>
            <g>
                <rect x="200" y="107.987" width="16" height="16" fill="#000000" style="fill: rgb(75, 198, 88);"></rect>
            </g>
        </g>
        <g>
            <g>
                <rect x="232" y="107.987" width="16" height="16" fill="#000000" style="fill: rgb(75, 198, 88);"></rect>
            </g>
        </g>
        <g>
            <g>
                <rect x="264" y="107.987" width="16" height="16" fill="#000000" style="fill: rgb(75, 198, 88);"></rect>
            </g>
        </g>
        <g>
            <g>
                <path d="M421.928,349.203c-2.869-7.385-8.619-13.285-15.928-16.344c-7.163-3.03-15.25-3.013-22.4,0.048l-51.872,22.024 c0.143-0.976,0.234-1.959,0.272-2.944c0-15.464-12.536-28-28-28h-62.056c-6.278-0.009-12.469-1.472-18.088-4.272 c-25.961-12.942-54.568-19.694-83.576-19.728H120c0-4.418-3.582-8-8-8H48c-4.418,0-8,3.582-8,8H0v16h40v80H0v16h40 c0,4.418,3.582,8,8,8h64c4.418,0,8-3.582,8-8v-3.048l59.728,24.8c32.56,13.298,68.961,13.702,101.808,1.128l123.584-47.128 c7.321-2.782,13.213-8.397,16.344-15.576C424.697,364.883,424.864,356.608,421.928,349.203z M104,403.987H56v-96h48V403.987z M406.792,365.715c-1.413,3.266-4.084,5.825-7.408,7.096L275.8,419.931c-29.039,11.124-61.223,10.778-90.016-0.968L120,391.611 v-75.624h20.28c26.526,0.031,52.684,6.206,76.424,18.04c7.839,3.913,16.479,5.953,25.24,5.96H304 c6.627,0.043,11.965,5.45,11.922,12.077c-0.036,5.551-3.875,10.354-9.282,11.611c-1.048,0.096-2.072,0.312-3.136,0.312H208v16 h95.504c0.168,0,0.328,0,0.496,0c0.16,0,0.312-0.048,0.48-0.048c6.349-0.102,12.619-1.431,18.464-3.912l66.888-28.392 c3.186-1.36,6.79-1.36,9.976,0c3.314,1.399,5.914,4.088,7.2,7.448C408.367,358.512,408.289,362.344,406.792,365.715z" fill="#000000" style="fill: rgb(75, 198, 88);"></path>
            </g>
        </g>
    </symbol>

    <symbol id="bumper" enable-background="new 0 0 512 512" viewBox="0 0 512 512"
        xmlns="http://www.w3.org/2000/svg">
        <path d="m492.33 128.258c-5.698-10.306-20.299-11.161-27.11-1.45-17.83 25.41-49.21 41.19-81.89 41.19h-256c-31.49 0-63.12-16.16-80.58-41.16-6.351-9.076-19.625-9.028-26.01-.31-13.57 18.46-20.74 40.34-20.74 63.25v74.22c0 70.58 57.42 128 128 128h256c70.58 0 128-57.42 128-128v-59.44c0-26.62-6.8-53-19.67-76.3zm-420.33 95.74h32c22.079 0 40 17.919 40 40 0 8.84-7.16 16-16 16h-48c-17.679 0-32-14.319-32-32 0-13.25 10.75-24 24-24zm120 64c-8.84 0-16-7.16-16-16s7.16-16 16-16h128c8.84 0 16 7.16 16 16s-7.16 16-16 16zm120 32c0 8.84-7.16 16-16 16h-80c-8.84 0-16-7.16-16-16s7.16-16 16-16h80c8.84 0 16 7.16 16 16zm-192 8c0-8.84 7.16-16 16-16h8c8.84 0 16 7.16 16 16s-7.16 16-16 16h-8c-8.84 0-16-7.16-16-16zm248 16c-8.84 0-16-7.16-16-16s7.16-16 16-16h8c8.84 0 16 7.16 16 16s-7.16 16-16 16zm64-64h-48c-8.84 0-16-7.16-16-16 0-22.079 17.919-40 40-40h32c13.25 0 24 10.75 24 24 0 17.679-14.319 32-32 32z" fill="#000000" style="fill: rgb(75, 198, 88);"></path>
    </symbol>

    <symbol id="gasoline-gun" viewBox="0 0 512 512"
        xmlns="http://www.w3.org/2000/svg">
        <g>
            <path d="m135.80469 239.48438 7.93359 1.03124a70.98292 70.98292 0 0 0 -12.04785-49.64453l-28.291-40.86328-6.57812 4.55371 28.291 40.86328a62.98933 62.98933 0 0 1 10.69238 44.05958z" fill="#000000" style="fill: rgb(75, 196, 88);"></path>
            <path d="m22.15723 241.61914a71.10005 71.10005 0 0 0 139.90625 0l1.01074-5.55762a70.63526 70.63526 0 0 0 -11.49512-53.18945l-56.17969-81.14844a3.99994 3.99994 0 0 0 -6.57812 0l-56.17871 81.14746a70.63714 70.63714 0 0 0 -11.49512 53.18946zm17.06347-54.19434 52.88965-76.39746 52.89065 76.39844a62.68682 62.68682 0 0 1 10.20214 47.2041l-1.01074 5.55762a63.09988 63.09988 0 0 1 -124.16406.001l-1.00977-5.5586a62.69019 62.69019 0 0 1 10.20213-47.2051z" fill="#000000" style="fill: rgb(75, 196, 88);"></path>
            <path d="m492.57031 458.05762 6.85938-4.11524-95.10645-158.51269 12.51758-43.8125a36.17725 36.17725 0 0 0 -1.18945-23.25977l-5.06641-12.665a36.09212 36.09212 0 0 0 -28.334-22.26855l-21.08789-3.0127a28.0056 28.0056 0 0 1 -21.083-15.19629l-20.08007-40.15922a19.88991 19.88991 0 0 0 -17.88867-11.05566h-3.79l-30.84867-53.98438a3.99966 3.99966 0 0 0 -6.03321-1.08886l-6.15674 5.13037-60.64892-53.06787a3.98235 3.98235 0 0 0 -3.418-.91114l-120 24a3.99856 3.99856 0 0 0 -3.1377 4.70606l6.78421 33.91894a3.99847 3.99847 0 0 0 4.59375 3.15918l103.36524-17.60449 39.15063 33.5586-8.53247 7.11035a3.99945 3.99945 0 0 0 -.91211 5.05762l33.39356 58.43847-17.209 17.209a36.21442 36.21442 0 0 0 -7.4414 40.07617l43.6289 98.165a36.06893 36.06893 0 0 0 43.2422 19.86038l50.07129-15.02149 102.38574 165.39356 6.80274-4.21094-57.71851-93.23779 32.73462-26.18726zm-229.67578-379.92969 28.11719 49.2041-8.3335 8.3335-28.65478-50.145zm13.9209 63.40039-9.11865 9.11865-29.62158-51.83597 9.70727-8.08936zm-194.87109-64.20508-5.23734-26.18554 65.36109-13.07178 3.304 28.45508zm71.32592-12.14746-3.33056-28.68432 16.47778-3.29546.70166 29.6211zm28.12036-4.78906-6.301 1.073-.7073-29.85672 16.46827-3.29346 5.17407 4.52734zm7.64429 2.66016 13.17309-24.79957 14.55444 12.73511-16.35744 21.81058zm17.45777 14.96386 16.3081-21.74463 26.25928 22.97681-20.85474 17.37891zm14.644 34.916 10.69726-8.91455 30 52.49756-10.05 10.05zm136.9705 211.46535-52.26441 15.6792a28.05288 28.05288 0 0 1 -33.63277-15.44824l-43.62895-98.16405a28.16879 28.16879 0 0 1 5.78711-31.17089l63.28809-63.28811h4.45508a11.93192 11.93192 0 0 1 10.73242 6.63379l20.08008 40.15921a36.00869 36.00869 0 0 0 27.1084 19.53808l21.08789 3.0127a28.07053 28.07053 0 0 1 22.03711 17.31934l5.0664 12.665a28.14109 28.14109 0 0 1 .92578 18.0918l-12.64428 44.25366zm7.15991 4.51636 33.658-26.92627 10.33716 17.22876-33.43848 26.75073zm14.7981 23.90454 33.35034-26.68018 10.3584 17.26416-33.13038 26.50415zm25.37622 40.99243-10.55641-17.05273 33.04224-26.4336 10.33691 17.22827z" fill="#000000" style="fill: rgb(75, 196, 88);"></path>
            <path d="m291.28906 173.72363a4.00011 4.00011 0 0 0 -6.11718-.55175l-23.16407 23.16406a35.77607 35.77607 0 0 0 -6.24121 42.52344l27.49219 51.05762a36.00018 36.00018 0 0 0 52.62109 12.22754l26.44532-18.88965a4.0003 4.0003 0 0 0 .96386-5.53125zm-3.82422 28.91114c.02344-.09668.04395-.19434.06153-.292l2.75634-16.01806 52.51368 75.85278-2.6294.65747a27.84181 27.84181 0 0 1 -29.57617-10.88965l-18.74707-26.24609a27.95487 27.95487 0 0 1 -4.37891-23.06445zm43.76465 93a28.001 28.001 0 0 1 -40.92773-9.51075l-27.49219-51.05761a27.82849 27.82849 0 0 1 4.85449-33.07422l14.25782-14.25733-2.25488 13.10791a35.9408 35.9408 0 0 0 5.667 29.50684l18.74707 26.24609a35.77159 35.77159 0 0 0 29.18555 15.09473 36.4449 36.4449 0 0 0 8.84082-1.09375l5.55591-1.38916 6.80444 9.82861z" fill="#000000" style="fill: rgb(75, 196, 88);"></path>
            <path d="m160 293.65723 29.17188 29.17089a3.99853 3.99853 0 0 0 5.65624 0l40-40-5.65624-5.65624-37.17188 37.17089-29.17188-29.17089a3.99853 3.99853 0 0 0 -5.65624 0l-144 144 5.65624 5.65624z" fill="#000000" style="fill: rgb(75, 196, 88);"></path>
            <path d="m349.34961 168.30664 53.47851-53.47852a3.99853 3.99853 0 0 0 0-5.65624l-19.19238-19.19336 98.54-28.1543-28.1543 98.54-19.19336-19.19238a3.99853 3.99853 0 0 0 -5.65624 0l-42.7793 42.77929 5.65625 5.65625 39.95121-39.95015 21.17188 21.17089a3.99926 3.99926 0 0 0 6.67382-1.72949l32-112a3.99953 3.99953 0 0 0 -4.94433-4.94433l-112 32a3.99926 3.99926 0 0 0 -1.72949 6.67382l21.17089 21.17188-50.64941 50.65039z" fill="#000000" style="fill: rgb(75, 196, 88);"></path>
            <path d="m194.82812 386.82812 59.39747-59.39746-5.65625-5.65625-56.56934 56.56836-29.17188-29.17089a3.99853 3.99853 0 0 0 -5.65624 0l-144 144 5.65624 5.65624 141.17188-141.17089 29.17188 29.17089a3.99853 3.99853 0 0 0 5.65624 0z" fill="#000000" style="fill: rgb(75, 196, 88);"></path>
            <path d="m198.059 388h67.882v7.999h-67.882z" transform="matrix(.707 -.707 .707 .707 -209.235 278.863)" fill="#000000" style="fill: rgb(75, 196, 88);"></path>
            <path d="m180.686 428h22.627v7.999h-22.627z" transform="matrix(.707 -.707 .707 .707 -249.235 262.294)" fill="#000000" style="fill: rgb(75, 196, 88);"></path>
            <path d="m94.059 428h67.882v7.999h-67.882z" transform="matrix(.707 -.707 .707 .707 -267.98 217.04)" fill="#000000" style="fill: rgb(75, 196, 88);"></path>
            <path d="m76.686 468h22.627v7.999h-22.627z" transform="matrix(.707 -.707 .707 .707 -307.98 200.471)" fill="#000000" style="fill: rgb(75, 196, 88);"></path>
        </g>
    </symbol>


    <symbol fill="#4bc658" version="1.1" id="speedometer"
        xmlns="http://www.w3.org/2000/svg"
        xmlns:xlink="http://www.w3.org/1999/xlink" width="800px" height="800px" viewBox="0 0 601.799 601.799" xml:space="preserve">

        <g stroke-width="0"/>

        <g stroke-linecap="round" stroke-linejoin="round"/>

        <g>
            <g>
                <g>
                    <path d="M300.899,0C134.716,0,0,134.716,0,300.898c0,166.184,134.716,300.9,300.899,300.9c166.183,0,300.9-134.717,300.9-300.9 C601.799,134.716,467.082,0,300.899,0z M482.186,480.02c-0.324,0.396-0.604,0.822-0.977,1.193 c-0.369,0.369-0.795,0.648-1.193,0.977C433.932,527.727,370.652,555.9,300.899,555.9c-69.75,0-133.024-28.17-179.108-73.703 c-0.401-0.326-0.829-0.609-1.203-0.982c-0.376-0.375-0.658-0.805-0.985-1.205C74.07,433.924,45.9,370.648,45.9,300.898 c0-69.743,28.167-133.018,73.697-179.101c0.33-0.404,0.612-0.835,0.988-1.212s0.805-0.658,1.208-0.988 C167.881,74.07,231.155,45.9,300.899,45.9c69.75,0,133.027,28.173,179.111,73.706c0.4,0.328,0.826,0.606,1.199,0.979 c0.373,0.373,0.652,0.799,0.98,1.199c45.535,46.084,73.709,109.361,73.709,179.114C555.9,370.654,527.725,433.932,482.186,480.02z "/>
                    <path d="M483.48,285.599h41.238c-3.41-50.374-23.506-96.219-54.811-132.073l-29.088,29.088c-2.986,2.986-6.902,4.479-10.816,4.479 s-7.834-1.493-10.818-4.479c-5.975-5.977-5.975-15.664,0-21.637l29.086-29.085c-35.854-31.304-81.695-51.399-132.07-54.811v41.239 c0,8.449-6.85,15.3-15.299,15.3c-8.449,0-15.3-6.852-15.3-15.3V77.082c-50.374,3.412-96.216,23.507-132.073,54.811l29.085,29.085 c5.976,5.976,5.976,15.664,0,21.637c-2.99,2.986-6.903,4.479-10.82,4.479s-7.831-1.493-10.82-4.479l-29.085-29.085 c-31.304,35.854-51.396,81.696-54.808,132.07h41.239c8.449,0,15.3,6.851,15.3,15.299c0,8.449-6.852,15.301-15.3,15.301H77.082 c3.412,50.373,23.507,96.215,54.811,132.068l29.085-29.084c5.976-5.973,15.661-5.973,21.637,0c5.976,5.977,5.976,15.664,0,21.637 l-29.085,29.086c6.956,6.07,14.244,11.766,21.913,16.955c19.474-50.289,68.299-85.953,125.466-85.953 c57.164,0,105.98,35.668,125.457,85.953c7.668-5.189,14.957-10.885,21.912-16.955l-29.086-29.086 c-5.975-5.977-5.975-15.664,0-21.637c5.971-5.973,15.666-5.973,21.635,0l29.088,29.088c31.305-35.854,51.4-81.695,54.812-132.07 H483.48c-8.453,0-15.301-6.852-15.301-15.299C468.18,292.453,475.027,285.599,483.48,285.599z M335.547,314.959 c-9.262,19.922-32.919,28.566-52.843,19.303c-19.923-9.262-28.565-32.919-19.302-52.843c5.569-11.98,16.355-19.841,28.396-22.222 l73.182-101.91l-30.746,121.638C340.172,289.666,341.117,302.979,335.547,314.959z"/>
                </g>
            </g>
        </g>

    </symbol>

    <symbol id="calendar-alt" viewBox="0 0 256 256"
        xmlns="http://www.w3.org/2000/svg" data-name="Layer 1">
        <path d="m0 115.36v140.64h256v-140.64zm144 114.86h-56v-16h40v-22.55h-23.31v-16h23.31v-22.54h-40v-16h56zm32 0h-16v-93h16z" fill="#000000" style="fill: rgb(75, 198, 88);"></path>
        <path d="m0 25.9h62.6v28.91h15.06v-28.91h100.7v28.9h15.07v-28.9h62.57v74h-256z" fill="#000000" style="fill: rgb(75, 198, 88);"></path>
        <path d="m62.6 0h15.06v25.9h-15.06z" fill="#000000" style="fill: rgb(75, 198, 88);"></path>
        <path d="m178.37 0h15.06v25.9h-15.06z" fill="#000000" style="fill: rgb(75, 198, 88);"></path>
    </symbol>


    <symbol id="skier" viewBox="0 0 24 24" fill="none"
        xmlns="http://www.w3.org/2000/svg">

        <g stroke-width="0"/>

        <g stroke-linecap="round" stroke-linejoin="round"/>

        <g>
            <path d="M18.544 5.95467C19.9282 5.95467 21.0503 4.84553 21.0503 3.47733C21.0503 2.10914 19.9282 1 18.544 1C17.1598 1 16.0377 2.10914 16.0377 3.47733C16.0377 4.84553 17.1598 5.95467 18.544 5.95467Z" fill="#4bc658"/>
            <path d="M2.41932 12.9809C1.91577 12.7534 1.32095 12.9724 1.09075 13.4701C0.860558 13.9679 1.08216 14.5558 1.58571 14.7834L19.1153 22.7043C19.8545 23.0642 20.6163 23.0856 21.2817 22.8226C21.9292 22.5665 22.4154 22.07 22.6989 21.5096C22.9824 20.9491 23.0925 20.2668 22.9112 19.6011C22.7235 18.9118 22.2432 18.3185 21.4987 17.9505C21.0034 17.7057 20.4012 17.9041 20.1536 18.3936C19.906 18.8831 20.1068 19.4784 20.602 19.7231C20.9671 19.9036 21.0911 20.2564 20.9055 20.6232C20.7198 20.9903 20.3603 21.1039 19.9949 20.9233L19.9792 20.9155L11.9595 17.2917L15.1066 15.4253C15.6084 15.1277 15.7467 14.4703 15.4066 13.9996L13.5314 11.4048L14.1209 10.8222L16.8478 12.1698C17.0956 12.3198 17.3687 12.3957 17.659 12.3957H20.0478C20.6015 12.3957 21.0503 11.9521 21.0503 11.4048C21.0503 10.8575 20.6015 10.4139 20.0478 10.4139H18.892C18.402 10.4139 17.9837 10.0637 17.9031 9.58584L17.7251 8.52962C17.5428 7.44893 16.7905 6.82244 15.9981 6.16976C15.1778 5.49403 13.9655 5.57241 13.2412 6.34802L12.076 7.59573L6.96217 5.06835C6.46695 4.8236 5.86477 5.02201 5.61716 5.51151C5.36955 6.00101 5.57028 6.59623 6.0655 6.84098L10.6602 9.1118L10.1117 9.69913C9.27561 10.5945 9.44716 12.0165 10.4728 12.6924L12.3462 13.9269C12.6584 14.1326 12.6396 14.5921 12.3116 14.7722L9.63563 16.2417L2.41932 12.9809Z" fill="#4bc658"/>
        </g>

    </symbol>

    <symbol id="not-found" width="120" height="120" viewBox="0 0 120 120" fill="none"
        xmlns="http://www.w3.org/2000/svg">
        <circle cx="60" cy="60" r="55" stroke="#FFE5E5" stroke-width="10"/>
        <rect x="32" y="39.0711" width="10" height="70" rx="5" transform="rotate(-45 32 39.0711)" fill="#FFE6E6"/>
        <rect x="81.498" y="32" width="10" height="70" rx="5" transform="rotate(45 81.498 32)" fill="#FFE6E6"/>
    </symbol>

    <symbol id="not-login" width="18" height="17" viewBox="0 0 18 17" fill="none"
        xmlns="http://www.w3.org/2000/svg">
        <path d="M13.0625 11.6667L17.0209 15.625M17.0209 11.6667L13.0625 15.625M9.50004 11.2708H5.93754C4.83272 11.2708 4.28031 11.2708 3.8308 11.4072C2.81873 11.7142 2.02674 12.5062 1.71973 13.5183C1.58337 13.9678 1.58337 14.5202 1.58337 15.625M11.4792 4.9375C11.4792 6.90501 9.88422 8.5 7.91671 8.5C5.94919 8.5 4.35421 6.90501 4.35421 4.9375C4.35421 2.96999 5.94919 1.375 7.91671 1.375C9.88422 1.375 11.4792 2.96999 11.4792 4.9375Z" stroke="white" stroke-width="1.2" stroke-linecap="round" stroke-linejoin="round"></path>
    </symbol>

    <symbol id="wallet" width="24" height="24" viewBox="0 0 24 24"
        xmlns="http://www.w3.org/2000/svg">
        <g fill="none" fill-rule="evenodd">
            <path d="M0 0h24v24H0z"/>
            <path d="M6.037 4H16.95c.56 0 1.012.45 1.012 1.007a1.01 1.01 0 0 1-1.012 1.006H7.444a.9.9 0 0 0-.9.9v.101a.9.9 0 0 0 .9.9h9a3.029 3.029 0 0 1 3.037 3.02v.526c0 .264.213.478.477.478h.032A1.01 1.01 0 0 1 21 12.945v3.028a1.01 1.01 0 0 1-1.007 1.006h-.017a.497.497 0 0 0-.495.498v.503c0 1.668-1.36 3.02-3.037 3.02H6.038A3.029 3.029 0 0 1 3 17.98V7.02C3 5.352 4.36 4 6.037 4zm11.41 11.57c.654 0 1.185-.53 1.185-1.181 0-.652-.53-1.18-1.185-1.18-.654 0-1.184.528-1.184 1.18 0 .652.53 1.18 1.184 1.18z" stroke="#ff6ea7" stroke-width="1.4" fill-rule="nonzero"/>
        </g>
    </symbol>

    <symbol id="notification" width="120" height="120" viewBox="0 0 120 120" fill="none"
        xmlns="http://www.w3.org/2000/svg">
        <circle opacity="0.15" cx="60" cy="60" r="55" stroke="#FF7F00" stroke-width="10"/>
        <rect opacity="0.15" x="55" y="25" width="10" height="55" rx="5" fill="#FF7F00"/>
        <rect opacity="0.15" x="55" y="85" width="10" height="10" rx="5" fill="#FF7F00"/>
    </symbol>

    <symbol id="cross" width="16" height="16" viewBox="0 0 16 16" fill="none"
        xmlns="http://www.w3.org/2000/svg">
        <rect x="1.41422" width="20" height="2" rx="1" transform="rotate(45 1.41422 0)" fill="#3878C2"></rect>
        <rect x="0.000152588" y="14.1422" width="20" height="2" rx="1" transform="rotate(-45 0.000152588 14.1422)" fill="#3878C2"></rect>
    </symbol>

    <symbol id="circle" width="20" height="35" viewBox="0 0 20 35" fill="none"
        xmlns="http://www.w3.org/2000/svg">
        <circle cx="10" cy="5" r="5" fill="#F1F1F3"></circle>
        <circle cx="10" cy="25" r="10" fill="#F1F1F3"></circle>
    </symbol>
</svg>