<svg data-testid="indicator-full-IN" class="ooa-148ktri eektw1c0">
    <path stroke="#66676C" fill="none" stroke-width="2" d="M37,28.1c0.8-0.6,1.8-0.8,2.7-0.6c0.9,0.2,1.8,0.7,2.3,1.5l0,0l39.8,61.9c0.5,0.8,0.8,1.8,0.8,2.8 c0,1.4-0.6,2.8-1.5,3.7c-1,1-2.3,1.5-3.7,1.5l0,0h-73c-1,0-1.9-0.4-2.5-1.1c-0.6-0.6-1-1.5-0.9-2.5C2.4,69.2,21.6,39.4,37,28.1z M100.1,1c14.6,0,27.7,3.4,41.4,10.6c0.9,0.5,1.5,1.3,1.8,2.3c0.3,1,0.1,2-0.4,2.9l0,0 l-38.5,62.9c-0.4,0.7-1,1.3-1.7,1.7c-1.2,0.8-2.7,0.9-4,0.6c-1.3-0.3-2.5-1.1-3.2-2.4l0,0l-38.3-63c-0.5-0.9-0.7-1.9-0.4-2.8 c0.2-0.9,0.8-1.8,1.7-2.3C70.7,4.3,85.4,1,100.1,1z M160.3,27.4c0.9-0.2,1.9,0,2.7,0.6c15.4,11.3,34.6,41.1,36,67.4c0.1,1-0.3,1.8-0.9,2.5 c-0.6,0.7-1.5,1.1-2.5,1.1l0,0h-73c-1.4,0-2.8-0.6-3.7-1.5c-1-1-1.5-2.3-1.5-3.7c0-1,0.3-2,0.8-2.8l0,0L158,29 C158.5,28.1,159.4,27.6,160.3,27.4z"></path>
    <g data-testid="filling" fill="#0071ce">$        <path data-testid="draw-in" d="M105.212 80.16l38.54-62.867c1.411-2.301.587-5.365-1.754-6.59C128.089 3.427 114.914 0 100.103 0 85.237 0 70.332 3.391 57.829 10.653c-2.217 1.288-2.947 4.25-1.589 6.483l38.303 63.005a6.25 6.25 0 0010.67.02z"></path>
    </g>
    <defs>
        <filter id="prefix__a" width="189.3%" height="189.3%" x="-44.6%" y="-41.1%">
            <feOffset dy="2" in="SourceAlpha" result="shadowOffsetOuter1"></feOffset>
            <feGaussianBlur in="shadowOffsetOuter1" result="shadowBlurOuter1" stdDeviation="8"></feGaussianBlur>
            <feColorMatrix in="shadowBlurOuter1" values="0 0 0 0 0.00784313725 0 0 0 0 0.0117647059 0 0 0 0 0.0352941176 0 0 0 0.32 0"></feColorMatrix>
        </filter>
        <circle id="prefix__b" cx="100" cy="100" r="28"></circle>
    </defs>
    <g data-testid="site-logo" fill="none" fill-rule="evenodd" transform="translate(72 72)"></g>
</svg>