<svg width="14" height="14" viewBox="0 0 14 14" fill="none" xmlns="http://www.w3.org/2000/svg">
<path d="M11.4932 2.12863C10.366 0.990112 8.86895 0.291898 7.27223 0.159927C5.6755 0.0279558 4.08418 0.470915 2.78528 1.4089C1.48639 2.34689 0.565442 3.71817 0.188552 5.27538C-0.188338 6.83259 0.00364315 8.47322 0.729867 9.90135L0.0169876 13.3623C0.00959066 13.3968 0.00938115 13.4324 0.0163723 13.4669C0.0233634 13.5014 0.0374045 13.5342 0.0576177 13.563C0.0872287 13.6068 0.129496 13.6405 0.178776 13.6597C0.228056 13.6788 0.282003 13.6825 0.333412 13.6701L3.72544 12.8661C5.14955 13.574 6.7786 13.7536 8.32273 13.3731C9.86685 12.9925 11.2259 12.0765 12.158 10.788C13.0902 9.49953 13.5349 7.9221 13.4132 6.33645C13.2915 4.75079 12.6111 3.25975 11.4932 2.12863ZM10.4356 10.5699C9.65565 11.3477 8.65131 11.8611 7.5641 12.0378C6.4769 12.2145 5.36165 12.0456 4.37552 11.5549L3.90273 11.3209L1.82319 11.8134L1.82935 11.7876L2.26028 9.6945L2.02881 9.23772C1.52494 8.24815 1.3472 7.12449 1.52103 6.02772C1.69487 4.93095 2.21137 3.91733 2.99655 3.13208C3.98314 2.14579 5.32105 1.59173 6.71608 1.59173C8.11111 1.59173 9.44902 2.14579 10.4356 3.13208C10.444 3.14171 10.4531 3.15076 10.4627 3.15916C11.4371 4.14799 11.981 5.48191 11.9759 6.87011C11.9708 8.25832 11.4172 9.58823 10.4356 10.5699Z" fill="white"/>
<path d="M10.2509 9.03457C9.99601 9.43595 9.5934 9.92721 9.08737 10.0491C8.20089 10.2633 6.84038 10.0565 5.14745 8.47806L5.12652 8.45959C3.63797 7.07939 3.25136 5.93066 3.34494 5.01955C3.39665 4.50244 3.82758 4.03457 4.19079 3.72923C4.24821 3.68022 4.3163 3.64532 4.38962 3.62734C4.46294 3.60935 4.53945 3.60877 4.61304 3.62564C4.68662 3.64251 4.75524 3.67637 4.8134 3.7245C4.87156 3.77263 4.91765 3.8337 4.94799 3.90283L5.49589 5.13405C5.53149 5.21389 5.54468 5.30191 5.53406 5.38867C5.52343 5.47543 5.48938 5.55766 5.43556 5.62654L5.15853 5.98606C5.09909 6.06029 5.06322 6.15062 5.05554 6.24541C5.04786 6.3402 5.06872 6.43511 5.11544 6.51795C5.27057 6.79005 5.6424 7.1902 6.05486 7.5608C6.5178 7.97941 7.03122 8.36232 7.35627 8.49283C7.44324 8.52837 7.53887 8.53704 7.63081 8.51772C7.72276 8.49841 7.80682 8.45201 7.87215 8.38449L8.1935 8.06067C8.2555 7.99953 8.33261 7.95592 8.41697 7.93429C8.50132 7.91266 8.5899 7.91379 8.67368 7.93755L9.97508 8.30692C10.0469 8.32894 10.1127 8.36708 10.1675 8.41844C10.2222 8.46979 10.2646 8.53299 10.2912 8.60321C10.3178 8.67342 10.328 8.74879 10.321 8.82356C10.314 8.89832 10.29 8.9705 10.2509 9.03457Z" fill="white"/>
</svg>
